G04 #@! TF.GenerationSoftware,KiCad,Pcbnew,(6.0.10)*
G04 #@! TF.CreationDate,2023-07-30T21:36:37+01:00*
G04 #@! TF.ProjectId,magnetonetouchpad,6d61676e-6574-46f6-9e65-746f75636870,rev?*
G04 #@! TF.SameCoordinates,Original*
G04 #@! TF.FileFunction,Paste,Bot*
G04 #@! TF.FilePolarity,Positive*
%FSLAX46Y46*%
G04 Gerber Fmt 4.6, Leading zero omitted, Abs format (unit mm)*
G04 Created by KiCad (PCBNEW (6.0.10)) date 2023-07-30 21:36:37*
%MOMM*%
%LPD*%
G01*
G04 APERTURE LIST*
G04 Aperture macros list*
%AMFreePoly0*
4,1,9,0.500000,-0.600000,-0.050000,-0.600000,-0.050000,-0.350000,-0.500000,-0.350000,-0.500000,0.200000,-0.050000,0.200000,-0.050000,0.600000,0.500000,0.600000,0.500000,-0.600000,0.500000,-0.600000,$1*%
%AMFreePoly1*
4,1,9,0.050000,0.200000,0.500000,0.200000,0.500000,-0.350000,0.050000,-0.350000,0.050000,-0.600000,-0.500000,-0.600000,-0.500000,0.600000,0.050000,0.600000,0.050000,0.200000,0.050000,0.200000,$1*%
G04 Aperture macros list end*
%ADD10FreePoly0,180.000000*%
%ADD11R,0.700000X1.487500*%
%ADD12R,0.450000X1.487500*%
%ADD13FreePoly1,180.000000*%
%ADD14FreePoly0,0.000000*%
%ADD15FreePoly1,0.000000*%
G04 APERTURE END LIST*
D10*
X103737686Y-43985874D03*
D11*
X102387686Y-43817124D03*
D12*
X101362686Y-43817124D03*
D13*
X100137686Y-43960874D03*
D14*
X100137686Y-151960874D03*
D11*
X101487686Y-152129624D03*
D12*
X102512686Y-152129624D03*
D15*
X103737686Y-151985874D03*
D10*
X174537686Y-43985874D03*
D11*
X173187686Y-43817124D03*
D12*
X172162686Y-43817124D03*
D13*
X170937686Y-43960874D03*
D14*
X111937686Y-151960874D03*
D11*
X113287686Y-152129624D03*
D12*
X114312686Y-152129624D03*
D15*
X115537686Y-151985874D03*
D10*
X127337686Y-43985874D03*
D11*
X125987686Y-43817124D03*
D12*
X124962686Y-43817124D03*
D13*
X123737686Y-43960874D03*
D14*
X135537686Y-151960874D03*
D11*
X136887686Y-152129624D03*
D12*
X137912686Y-152129624D03*
D15*
X139137686Y-151985874D03*
D10*
X139137686Y-43985874D03*
D11*
X137787686Y-43817124D03*
D12*
X136762686Y-43817124D03*
D13*
X135537686Y-43960874D03*
D10*
X150937686Y-43985874D03*
D11*
X149587686Y-43817124D03*
D12*
X148562686Y-43817124D03*
D13*
X147337686Y-43960874D03*
D14*
X123737686Y-151960874D03*
D11*
X125087686Y-152129624D03*
D12*
X126112686Y-152129624D03*
D15*
X127337686Y-151985874D03*
D14*
X170937686Y-151960874D03*
D11*
X172287686Y-152129624D03*
D12*
X173312686Y-152129624D03*
D15*
X174537686Y-151985874D03*
D10*
X162737686Y-43985874D03*
D11*
X161387686Y-43817124D03*
D12*
X160362686Y-43817124D03*
D13*
X159137686Y-43960874D03*
D10*
X115537686Y-43985874D03*
D11*
X114187686Y-43817124D03*
D12*
X113162686Y-43817124D03*
D13*
X111937686Y-43960874D03*
D14*
X147337686Y-151960874D03*
D11*
X148687686Y-152129624D03*
D12*
X149712686Y-152129624D03*
D15*
X150937686Y-151985874D03*
D14*
X159137686Y-151960874D03*
D11*
X160487686Y-152129624D03*
D12*
X161512686Y-152129624D03*
D15*
X162737686Y-151985874D03*
M02*
