%TF.GenerationSoftware,KiCad,Pcbnew,(6.0.10)*%
%TF.CreationDate,2023-07-30T21:36:47+01:00*%
%TF.ProjectId,magnetonetouchpad,6d61676e-6574-46f6-9e65-746f75636870,rev?*%
%TF.SameCoordinates,Original*%
%TF.FileFunction,Drillmap*%
%TF.FilePolarity,Positive*%
%FSLAX45Y45*%
G04 Gerber Fmt 4.5, Leading zero omitted, Abs format (unit mm)*
G04 Created by KiCad (PCBNEW (6.0.10)) date 2023-07-30 21:36:47*
%MOMM*%
%LPD*%
G01*
G04 APERTURE LIST*
%ADD10C,0.100000*%
%ADD11C,0.200000*%
%ADD12C,0.030000*%
%ADD13C,0.038110*%
%ADD14C,0.050000*%
G04 APERTURE END LIST*
D10*
X9585299Y-4046312D02*
X17884475Y-4046312D01*
X17884475Y-4046312D02*
X17884475Y-15534681D01*
X17884475Y-15534681D02*
X9585299Y-15534681D01*
X9585299Y-15534681D02*
X9585299Y-4046312D01*
D11*
D12*
X9877749Y-15002337D02*
X9907749Y-15032337D01*
X9907749Y-15002337D02*
X9877749Y-15032337D01*
X9883769Y-5867367D02*
X9913769Y-5897367D01*
X9913769Y-5867367D02*
X9883769Y-5897367D01*
X9883769Y-6457367D02*
X9913769Y-6487367D01*
X9913769Y-6457367D02*
X9883769Y-6487367D01*
X9883769Y-7047367D02*
X9913769Y-7077367D01*
X9913769Y-7047367D02*
X9883769Y-7077367D01*
X9883769Y-7637367D02*
X9913769Y-7667367D01*
X9913769Y-7637367D02*
X9883769Y-7667367D01*
X9883769Y-8227367D02*
X9913769Y-8257367D01*
X9913769Y-8227367D02*
X9883769Y-8257367D01*
X9883769Y-8817367D02*
X9913769Y-8847367D01*
X9913769Y-8817367D02*
X9883769Y-8847367D01*
X9883769Y-9407367D02*
X9913769Y-9437367D01*
X9913769Y-9407367D02*
X9883769Y-9437367D01*
X9883769Y-9997367D02*
X9913769Y-10027367D01*
X9913769Y-9997367D02*
X9883769Y-10027367D01*
X9883769Y-10587367D02*
X9913769Y-10617367D01*
X9913769Y-10587367D02*
X9883769Y-10617367D01*
X9883769Y-11177367D02*
X9913769Y-11207367D01*
X9913769Y-11177367D02*
X9883769Y-11207367D01*
X9883769Y-11767367D02*
X9913769Y-11797367D01*
X9913769Y-11767367D02*
X9883769Y-11797367D01*
X9883769Y-12357367D02*
X9913769Y-12387367D01*
X9913769Y-12357367D02*
X9883769Y-12387367D01*
X9883769Y-12947367D02*
X9913769Y-12977367D01*
X9913769Y-12947367D02*
X9883769Y-12977367D01*
X9883769Y-13537367D02*
X9913769Y-13567367D01*
X9913769Y-13537367D02*
X9883769Y-13567367D01*
X9883769Y-13684867D02*
X9913769Y-13714867D01*
X9913769Y-13684867D02*
X9883769Y-13714867D01*
X10040286Y-4613337D02*
X10070286Y-4643337D01*
X10070286Y-4613337D02*
X10040286Y-4643337D01*
X10473769Y-5867367D02*
X10503769Y-5897367D01*
X10503769Y-5867367D02*
X10473769Y-5897367D01*
X10473769Y-6457367D02*
X10503769Y-6487367D01*
X10503769Y-6457367D02*
X10473769Y-6487367D01*
X10473769Y-7047367D02*
X10503769Y-7077367D01*
X10503769Y-7047367D02*
X10473769Y-7077367D01*
X10473769Y-7632357D02*
X10503769Y-7662357D01*
X10503769Y-7632357D02*
X10473769Y-7662357D01*
X10473769Y-8227367D02*
X10503769Y-8257367D01*
X10503769Y-8227367D02*
X10473769Y-8257367D01*
X10473769Y-8817367D02*
X10503769Y-8847367D01*
X10503769Y-8817367D02*
X10473769Y-8847367D01*
X10473769Y-9407367D02*
X10503769Y-9437367D01*
X10503769Y-9407367D02*
X10473769Y-9437367D01*
X10473769Y-9997367D02*
X10503769Y-10027367D01*
X10503769Y-9997367D02*
X10473769Y-10027367D01*
X10473769Y-10587367D02*
X10503769Y-10617367D01*
X10503769Y-10587367D02*
X10473769Y-10617367D01*
X10473769Y-11177367D02*
X10503769Y-11207367D01*
X10503769Y-11177367D02*
X10473769Y-11207367D01*
X10473769Y-11767367D02*
X10503769Y-11797367D01*
X10503769Y-11767367D02*
X10473769Y-11797367D01*
X10473769Y-12357367D02*
X10503769Y-12387367D01*
X10503769Y-12357367D02*
X10473769Y-12387367D01*
X10473769Y-12947367D02*
X10503769Y-12977367D01*
X10503769Y-12947367D02*
X10473769Y-12977367D01*
X10473769Y-13537367D02*
X10503769Y-13567367D01*
X10503769Y-13537367D02*
X10473769Y-13567367D01*
X10473769Y-13684867D02*
X10503769Y-13714867D01*
X10503769Y-13684867D02*
X10473769Y-13714867D01*
X10897831Y-8393304D02*
X10927831Y-8423304D01*
X10927831Y-8393304D02*
X10897831Y-8423304D01*
X11063769Y-5867367D02*
X11093769Y-5897367D01*
X11093769Y-5867367D02*
X11063769Y-5897367D01*
X11063769Y-6457367D02*
X11093769Y-6487367D01*
X11093769Y-6457367D02*
X11063769Y-6487367D01*
X11063769Y-7047367D02*
X11093769Y-7077367D01*
X11093769Y-7047367D02*
X11063769Y-7077367D01*
X11063769Y-7386087D02*
X11093769Y-7416087D01*
X11093769Y-7386087D02*
X11063769Y-7416087D01*
X11063769Y-8227367D02*
X11093769Y-8257367D01*
X11093769Y-8227367D02*
X11063769Y-8257367D01*
X11063769Y-8817367D02*
X11093769Y-8847367D01*
X11093769Y-8817367D02*
X11063769Y-8847367D01*
X11063769Y-9407367D02*
X11093769Y-9437367D01*
X11093769Y-9407367D02*
X11063769Y-9437367D01*
X11063769Y-9997367D02*
X11093769Y-10027367D01*
X11093769Y-9997367D02*
X11063769Y-10027367D01*
X11063769Y-10587367D02*
X11093769Y-10617367D01*
X11093769Y-10587367D02*
X11063769Y-10617367D01*
X11063769Y-11177367D02*
X11093769Y-11207367D01*
X11093769Y-11177367D02*
X11063769Y-11207367D01*
X11063769Y-11767367D02*
X11093769Y-11797367D01*
X11093769Y-11767367D02*
X11063769Y-11797367D01*
X11063769Y-12357367D02*
X11093769Y-12387367D01*
X11093769Y-12357367D02*
X11063769Y-12387367D01*
X11063769Y-12947367D02*
X11093769Y-12977367D01*
X11093769Y-12947367D02*
X11063769Y-12977367D01*
X11063769Y-13537367D02*
X11093769Y-13567367D01*
X11093769Y-13537367D02*
X11063769Y-13567367D01*
X11063769Y-13684867D02*
X11093769Y-13714867D01*
X11093769Y-13684867D02*
X11063769Y-13714867D01*
X11653769Y-5867367D02*
X11683769Y-5897367D01*
X11683769Y-5867367D02*
X11653769Y-5897367D01*
X11653769Y-6457367D02*
X11683769Y-6487367D01*
X11683769Y-6457367D02*
X11653769Y-6487367D01*
X11653769Y-7047367D02*
X11683769Y-7077367D01*
X11683769Y-7047367D02*
X11653769Y-7077367D01*
X11653769Y-7269837D02*
X11683769Y-7299837D01*
X11683769Y-7269837D02*
X11653769Y-7299837D01*
X11653769Y-8227367D02*
X11683769Y-8257367D01*
X11683769Y-8227367D02*
X11653769Y-8257367D01*
X11653769Y-8622617D02*
X11683769Y-8652617D01*
X11683769Y-8622617D02*
X11653769Y-8652617D01*
X11653769Y-9407367D02*
X11683769Y-9437367D01*
X11683769Y-9407367D02*
X11653769Y-9437367D01*
X11653769Y-9997367D02*
X11683769Y-10027367D01*
X11683769Y-9997367D02*
X11653769Y-10027367D01*
X11653769Y-10587367D02*
X11683769Y-10617367D01*
X11683769Y-10587367D02*
X11653769Y-10617367D01*
X11653769Y-11177367D02*
X11683769Y-11207367D01*
X11683769Y-11177367D02*
X11653769Y-11207367D01*
X11653769Y-11767367D02*
X11683769Y-11797367D01*
X11683769Y-11767367D02*
X11653769Y-11797367D01*
X11653769Y-12357367D02*
X11683769Y-12387367D01*
X11683769Y-12357367D02*
X11653769Y-12387367D01*
X11653769Y-12947367D02*
X11683769Y-12977367D01*
X11683769Y-12947367D02*
X11653769Y-12977367D01*
X11653769Y-13537367D02*
X11683769Y-13567367D01*
X11683769Y-13537367D02*
X11653769Y-13567367D01*
X11653769Y-13684867D02*
X11683769Y-13714867D01*
X11683769Y-13684867D02*
X11653769Y-13714867D01*
X11948769Y-9093929D02*
X11978769Y-9123929D01*
X11978769Y-9093929D02*
X11948769Y-9123929D01*
X12243769Y-5867367D02*
X12273769Y-5897367D01*
X12273769Y-5867367D02*
X12243769Y-5897367D01*
X12243769Y-6457367D02*
X12273769Y-6487367D01*
X12273769Y-6457367D02*
X12243769Y-6487367D01*
X12243769Y-7047367D02*
X12273769Y-7077367D01*
X12273769Y-7047367D02*
X12243769Y-7077367D01*
X12243769Y-7409357D02*
X12273769Y-7439357D01*
X12273769Y-7409357D02*
X12243769Y-7439357D01*
X12243769Y-8227367D02*
X12273769Y-8257367D01*
X12273769Y-8227367D02*
X12243769Y-8257367D01*
X12243769Y-8632992D02*
X12273769Y-8662992D01*
X12273769Y-8632992D02*
X12243769Y-8662992D01*
X12243769Y-9407367D02*
X12273769Y-9437367D01*
X12273769Y-9407367D02*
X12243769Y-9437367D01*
X12243769Y-9610179D02*
X12273769Y-9640179D01*
X12273769Y-9610179D02*
X12243769Y-9640179D01*
X12243769Y-10587367D02*
X12273769Y-10617367D01*
X12273769Y-10587367D02*
X12243769Y-10617367D01*
X12243769Y-11177367D02*
X12273769Y-11207367D01*
X12273769Y-11177367D02*
X12243769Y-11207367D01*
X12243769Y-11767367D02*
X12273769Y-11797367D01*
X12273769Y-11767367D02*
X12243769Y-11797367D01*
X12243769Y-12357367D02*
X12273769Y-12387367D01*
X12273769Y-12357367D02*
X12243769Y-12387367D01*
X12243769Y-12947367D02*
X12273769Y-12977367D01*
X12273769Y-12947367D02*
X12243769Y-12977367D01*
X12243769Y-13537367D02*
X12273769Y-13567367D01*
X12273769Y-13537367D02*
X12243769Y-13567367D01*
X12243769Y-13684867D02*
X12273769Y-13714867D01*
X12273769Y-13684867D02*
X12243769Y-13714867D01*
X12467287Y-9591742D02*
X12497287Y-9621742D01*
X12497287Y-9591742D02*
X12467287Y-9621742D01*
X12538131Y-12796720D02*
X12568131Y-12826720D01*
X12568131Y-12796720D02*
X12538131Y-12826720D01*
X12538769Y-12209867D02*
X12568769Y-12239867D01*
X12568769Y-12209867D02*
X12538769Y-12239867D01*
X12833769Y-5867367D02*
X12863769Y-5897367D01*
X12863769Y-5867367D02*
X12833769Y-5897367D01*
X12833769Y-6457367D02*
X12863769Y-6487367D01*
X12863769Y-6457367D02*
X12833769Y-6487367D01*
X12833769Y-6907562D02*
X12863769Y-6937562D01*
X12863769Y-6907562D02*
X12833769Y-6937562D01*
X12833769Y-7637367D02*
X12863769Y-7667367D01*
X12863769Y-7637367D02*
X12833769Y-7667367D01*
X12833769Y-8227367D02*
X12863769Y-8257367D01*
X12863769Y-8227367D02*
X12833769Y-8257367D01*
X12833769Y-8448617D02*
X12863769Y-8478617D01*
X12863769Y-8448617D02*
X12833769Y-8478617D01*
X12833769Y-8983304D02*
X12863769Y-9013304D01*
X12863769Y-8983304D02*
X12833769Y-9013304D01*
X12833769Y-9905179D02*
X12863769Y-9935179D01*
X12863769Y-9905179D02*
X12833769Y-9935179D01*
X12833769Y-10237054D02*
X12863769Y-10267054D01*
X12863769Y-10237054D02*
X12833769Y-10267054D01*
X12833769Y-10882367D02*
X12863769Y-10912367D01*
X12863769Y-10882367D02*
X12833769Y-10912367D01*
X12833769Y-11619867D02*
X12863769Y-11649867D01*
X12863769Y-11619867D02*
X12833769Y-11649867D01*
X12833769Y-12357367D02*
X12863769Y-12387367D01*
X12863769Y-12357367D02*
X12833769Y-12387367D01*
X12833769Y-12947367D02*
X12863769Y-12977367D01*
X12863769Y-12947367D02*
X12833769Y-12977367D01*
X12833769Y-13537367D02*
X12863769Y-13567367D01*
X12863769Y-13537367D02*
X12833769Y-13567367D01*
X12833769Y-13684867D02*
X12863769Y-13714867D01*
X12863769Y-13684867D02*
X12833769Y-13714867D01*
X12898519Y-9481117D02*
X12928519Y-9511117D01*
X12928519Y-9481117D02*
X12898519Y-9511117D01*
X13045749Y-10216337D02*
X13075749Y-10246337D01*
X13075749Y-10216337D02*
X13045749Y-10246337D01*
X13126749Y-13386337D02*
X13156749Y-13416337D01*
X13156749Y-13386337D02*
X13126749Y-13416337D01*
X13256849Y-8808499D02*
X13286849Y-8838499D01*
X13286849Y-8808499D02*
X13256849Y-8838499D01*
X13338287Y-10328938D02*
X13368287Y-10358938D01*
X13368287Y-10328938D02*
X13338287Y-10358938D01*
X13340499Y-8301117D02*
X13370499Y-8331117D01*
X13370499Y-8301117D02*
X13340499Y-8331117D01*
X13423769Y-5867367D02*
X13453769Y-5897367D01*
X13453769Y-5867367D02*
X13423769Y-5897367D01*
X13423769Y-6372456D02*
X13453769Y-6402456D01*
X13453769Y-6372456D02*
X13423769Y-6402456D01*
X13423769Y-6907562D02*
X13453769Y-6937562D01*
X13453769Y-6907562D02*
X13423769Y-6937562D01*
X13423769Y-7637367D02*
X13453769Y-7667367D01*
X13453769Y-7637367D02*
X13423769Y-7667367D01*
X13423769Y-8227367D02*
X13453769Y-8257367D01*
X13453769Y-8227367D02*
X13423769Y-8257367D01*
X13423769Y-9997367D02*
X13453769Y-10027367D01*
X13453769Y-9997367D02*
X13423769Y-10027367D01*
X13423769Y-10587367D02*
X13453769Y-10617367D01*
X13453769Y-10587367D02*
X13423769Y-10617367D01*
X13423769Y-10734867D02*
X13453769Y-10764867D01*
X13453769Y-10734867D02*
X13423769Y-10764867D01*
X13423769Y-11195804D02*
X13453769Y-11225804D01*
X13453769Y-11195804D02*
X13423769Y-11225804D01*
X13423769Y-11785804D02*
X13453769Y-11815804D01*
X13453769Y-11785804D02*
X13423769Y-11815804D01*
X13423769Y-12375804D02*
X13453769Y-12405804D01*
X13453769Y-12375804D02*
X13423769Y-12405804D01*
X13423769Y-12965804D02*
X13453769Y-12995804D01*
X13453769Y-12965804D02*
X13423769Y-12995804D01*
X13423769Y-13555804D02*
X13453769Y-13585804D01*
X13453769Y-13555804D02*
X13423769Y-13585804D01*
X13423769Y-13666429D02*
X13453769Y-13696429D01*
X13453769Y-13666429D02*
X13423769Y-13696429D01*
X13645019Y-8301117D02*
X13675019Y-8331117D01*
X13675019Y-8301117D02*
X13645019Y-8331117D01*
X13714749Y-11080337D02*
X13744749Y-11110337D01*
X13744749Y-11080337D02*
X13714749Y-11110337D01*
X13727686Y-11829525D02*
X13757686Y-11859525D01*
X13757686Y-11829525D02*
X13727686Y-11859525D01*
X13810956Y-6070179D02*
X13840956Y-6100179D01*
X13840956Y-6070179D02*
X13810956Y-6100179D01*
X13878456Y-10605679D02*
X13908456Y-10635679D01*
X13908456Y-10605679D02*
X13878456Y-10635679D01*
X13945769Y-8894117D02*
X13975769Y-8924117D01*
X13975769Y-8894117D02*
X13945769Y-8924117D01*
X13952519Y-9481117D02*
X13982519Y-9511117D01*
X13982519Y-9481117D02*
X13952519Y-9511117D01*
X14011019Y-11150007D02*
X14041019Y-11180007D01*
X14041019Y-11150007D02*
X14011019Y-11180007D01*
X14013769Y-5867367D02*
X14043769Y-5897367D01*
X14043769Y-5867367D02*
X14013769Y-5897367D01*
X14013769Y-6457367D02*
X14043769Y-6487367D01*
X14043769Y-6457367D02*
X14013769Y-6487367D01*
X14013769Y-7047367D02*
X14043769Y-7077367D01*
X14043769Y-7047367D02*
X14013769Y-7077367D01*
X14013769Y-7637367D02*
X14043769Y-7667367D01*
X14043769Y-7637367D02*
X14013769Y-7667367D01*
X14013769Y-7840179D02*
X14043769Y-7870179D01*
X14043769Y-7840179D02*
X14013769Y-7870179D01*
X14013769Y-8227367D02*
X14043769Y-8257367D01*
X14043769Y-8227367D02*
X14013769Y-8257367D01*
X14013769Y-8817367D02*
X14043769Y-8847367D01*
X14043769Y-8817367D02*
X14013769Y-8847367D01*
X14013769Y-9259867D02*
X14043769Y-9289867D01*
X14043769Y-9259867D02*
X14013769Y-9289867D01*
X14013769Y-10587367D02*
X14043769Y-10617367D01*
X14043769Y-10587367D02*
X14013769Y-10617367D01*
X14013769Y-10734867D02*
X14043769Y-10764867D01*
X14043769Y-10734867D02*
X14013769Y-10764867D01*
X14013769Y-11767367D02*
X14043769Y-11797367D01*
X14043769Y-11767367D02*
X14013769Y-11797367D01*
X14013769Y-12357367D02*
X14043769Y-12387367D01*
X14043769Y-12357367D02*
X14013769Y-12387367D01*
X14013769Y-12947367D02*
X14043769Y-12977367D01*
X14043769Y-12947367D02*
X14013769Y-12977367D01*
X14013769Y-13537367D02*
X14043769Y-13567367D01*
X14043769Y-13537367D02*
X14013769Y-13567367D01*
X14013769Y-13684867D02*
X14043769Y-13714867D01*
X14043769Y-13684867D02*
X14013769Y-13714867D01*
X14050644Y-10181742D02*
X14080644Y-10211742D01*
X14080644Y-10181742D02*
X14050644Y-10211742D01*
X14074144Y-9936992D02*
X14104144Y-9966992D01*
X14104144Y-9936992D02*
X14074144Y-9966992D01*
X14161269Y-6623304D02*
X14191269Y-6653304D01*
X14191269Y-6623304D02*
X14161269Y-6653304D01*
X14308769Y-7342367D02*
X14338769Y-7372367D01*
X14338769Y-7342367D02*
X14308769Y-7372367D01*
X14400956Y-7840179D02*
X14430956Y-7870179D01*
X14430956Y-7840179D02*
X14400956Y-7870179D01*
X14403287Y-12482417D02*
X14433287Y-12512417D01*
X14433287Y-12482417D02*
X14403287Y-12512417D01*
X14603769Y-5867367D02*
X14633769Y-5897367D01*
X14633769Y-5867367D02*
X14603769Y-5897367D01*
X14603769Y-6457367D02*
X14633769Y-6487367D01*
X14633769Y-6457367D02*
X14603769Y-6487367D01*
X14603769Y-7047367D02*
X14633769Y-7077367D01*
X14633769Y-7047367D02*
X14603769Y-7077367D01*
X14603769Y-7637367D02*
X14633769Y-7667367D01*
X14633769Y-7637367D02*
X14603769Y-7667367D01*
X14603769Y-8227367D02*
X14633769Y-8257367D01*
X14633769Y-8227367D02*
X14603769Y-8257367D01*
X14603769Y-8817367D02*
X14633769Y-8847367D01*
X14633769Y-8817367D02*
X14603769Y-8847367D01*
X14603769Y-9333617D02*
X14633769Y-9363617D01*
X14633769Y-9333617D02*
X14603769Y-9363617D01*
X14603769Y-9997367D02*
X14633769Y-10027367D01*
X14633769Y-9997367D02*
X14603769Y-10027367D01*
X14603769Y-10587367D02*
X14633769Y-10617367D01*
X14633769Y-10587367D02*
X14603769Y-10617367D01*
X14603769Y-11177367D02*
X14633769Y-11207367D01*
X14633769Y-11177367D02*
X14603769Y-11207367D01*
X14603769Y-11767367D02*
X14633769Y-11797367D01*
X14633769Y-11767367D02*
X14603769Y-11797367D01*
X14603769Y-11977025D02*
X14633769Y-12007025D01*
X14633769Y-11977025D02*
X14603769Y-12007025D01*
X14603769Y-12947367D02*
X14633769Y-12977367D01*
X14633769Y-12947367D02*
X14603769Y-12977367D01*
X14603769Y-13537367D02*
X14633769Y-13567367D01*
X14633769Y-13537367D02*
X14603769Y-13567367D01*
X14603769Y-13684867D02*
X14633769Y-13714867D01*
X14633769Y-13684867D02*
X14603769Y-13714867D01*
X15193769Y-5867367D02*
X15223769Y-5897367D01*
X15223769Y-5867367D02*
X15193769Y-5897367D01*
X15193769Y-6457367D02*
X15223769Y-6487367D01*
X15223769Y-6457367D02*
X15193769Y-6487367D01*
X15193769Y-7047367D02*
X15223769Y-7077367D01*
X15223769Y-7047367D02*
X15193769Y-7077367D01*
X15193769Y-7637367D02*
X15223769Y-7667367D01*
X15223769Y-7637367D02*
X15193769Y-7667367D01*
X15193769Y-8227367D02*
X15223769Y-8257367D01*
X15223769Y-8227367D02*
X15193769Y-8257367D01*
X15193769Y-8817367D02*
X15223769Y-8847367D01*
X15223769Y-8817367D02*
X15193769Y-8847367D01*
X15193769Y-9407367D02*
X15223769Y-9437367D01*
X15223769Y-9407367D02*
X15193769Y-9437367D01*
X15193769Y-9997367D02*
X15223769Y-10027367D01*
X15223769Y-9997367D02*
X15193769Y-10027367D01*
X15193769Y-10587367D02*
X15223769Y-10617367D01*
X15223769Y-10587367D02*
X15193769Y-10617367D01*
X15193769Y-10852337D02*
X15223769Y-10882337D01*
X15223769Y-10852337D02*
X15193769Y-10882337D01*
X15193769Y-11767367D02*
X15223769Y-11797367D01*
X15223769Y-11767367D02*
X15193769Y-11797367D01*
X15193769Y-12357367D02*
X15223769Y-12387367D01*
X15223769Y-12357367D02*
X15193769Y-12387367D01*
X15193769Y-12947367D02*
X15223769Y-12977367D01*
X15223769Y-12947367D02*
X15193769Y-12977367D01*
X15193769Y-13537367D02*
X15223769Y-13567367D01*
X15223769Y-13537367D02*
X15193769Y-13567367D01*
X15193769Y-13684867D02*
X15223769Y-13714867D01*
X15223769Y-13684867D02*
X15193769Y-13714867D01*
X15562519Y-8596117D02*
X15592519Y-8626117D01*
X15592519Y-8596117D02*
X15562519Y-8626117D01*
X15783769Y-5867367D02*
X15813769Y-5897367D01*
X15813769Y-5867367D02*
X15783769Y-5897367D01*
X15783769Y-6457367D02*
X15813769Y-6487367D01*
X15813769Y-6457367D02*
X15783769Y-6487367D01*
X15783769Y-7047367D02*
X15813769Y-7077367D01*
X15813769Y-7047367D02*
X15783769Y-7077367D01*
X15783769Y-7637367D02*
X15813769Y-7667367D01*
X15813769Y-7637367D02*
X15783769Y-7667367D01*
X15783769Y-8227367D02*
X15813769Y-8257367D01*
X15813769Y-8227367D02*
X15783769Y-8257367D01*
X15783769Y-8817367D02*
X15813769Y-8847367D01*
X15813769Y-8817367D02*
X15783769Y-8847367D01*
X15783769Y-9407367D02*
X15813769Y-9437367D01*
X15813769Y-9407367D02*
X15783769Y-9437367D01*
X15783769Y-9997367D02*
X15813769Y-10027367D01*
X15813769Y-9997367D02*
X15783769Y-10027367D01*
X15783769Y-10587367D02*
X15813769Y-10617367D01*
X15813769Y-10587367D02*
X15783769Y-10617367D01*
X15783769Y-11177367D02*
X15813769Y-11207367D01*
X15813769Y-11177367D02*
X15783769Y-11207367D01*
X15783769Y-11767367D02*
X15813769Y-11797367D01*
X15813769Y-11767367D02*
X15783769Y-11797367D01*
X15783769Y-12357367D02*
X15813769Y-12387367D01*
X15813769Y-12357367D02*
X15783769Y-12387367D01*
X15783769Y-12947367D02*
X15813769Y-12977367D01*
X15813769Y-12947367D02*
X15783769Y-12977367D01*
X15783769Y-13537367D02*
X15813769Y-13567367D01*
X15813769Y-13537367D02*
X15783769Y-13567367D01*
X15783769Y-13684867D02*
X15813769Y-13714867D01*
X15813769Y-13684867D02*
X15783769Y-13714867D01*
X16373769Y-5867367D02*
X16403769Y-5897367D01*
X16403769Y-5867367D02*
X16373769Y-5897367D01*
X16373769Y-6457367D02*
X16403769Y-6487367D01*
X16403769Y-6457367D02*
X16373769Y-6487367D01*
X16373769Y-7047367D02*
X16403769Y-7077367D01*
X16403769Y-7047367D02*
X16373769Y-7077367D01*
X16373769Y-7637367D02*
X16403769Y-7667367D01*
X16403769Y-7637367D02*
X16373769Y-7667367D01*
X16373769Y-8227367D02*
X16403769Y-8257367D01*
X16403769Y-8227367D02*
X16373769Y-8257367D01*
X16373769Y-8817367D02*
X16403769Y-8847367D01*
X16403769Y-8817367D02*
X16373769Y-8847367D01*
X16373769Y-9407367D02*
X16403769Y-9437367D01*
X16403769Y-9407367D02*
X16373769Y-9437367D01*
X16373769Y-9997367D02*
X16403769Y-10027367D01*
X16403769Y-9997367D02*
X16373769Y-10027367D01*
X16373769Y-10587367D02*
X16403769Y-10617367D01*
X16403769Y-10587367D02*
X16373769Y-10617367D01*
X16373769Y-11177367D02*
X16403769Y-11207367D01*
X16403769Y-11177367D02*
X16373769Y-11207367D01*
X16373769Y-11767367D02*
X16403769Y-11797367D01*
X16403769Y-11767367D02*
X16373769Y-11797367D01*
X16373769Y-12357367D02*
X16403769Y-12387367D01*
X16403769Y-12357367D02*
X16373769Y-12387367D01*
X16373769Y-12947367D02*
X16403769Y-12977367D01*
X16403769Y-12947367D02*
X16373769Y-12977367D01*
X16373769Y-13537367D02*
X16403769Y-13567367D01*
X16403769Y-13537367D02*
X16373769Y-13567367D01*
X16373769Y-13684867D02*
X16403769Y-13714867D01*
X16403769Y-13684867D02*
X16373769Y-13714867D01*
X16963769Y-5867367D02*
X16993769Y-5897367D01*
X16993769Y-5867367D02*
X16963769Y-5897367D01*
X16963769Y-6457367D02*
X16993769Y-6487367D01*
X16993769Y-6457367D02*
X16963769Y-6487367D01*
X16963769Y-7047367D02*
X16993769Y-7077367D01*
X16993769Y-7047367D02*
X16963769Y-7077367D01*
X16963769Y-7637367D02*
X16993769Y-7667367D01*
X16993769Y-7637367D02*
X16963769Y-7667367D01*
X16963769Y-8227367D02*
X16993769Y-8257367D01*
X16993769Y-8227367D02*
X16963769Y-8257367D01*
X16963769Y-8817367D02*
X16993769Y-8847367D01*
X16993769Y-8817367D02*
X16963769Y-8847367D01*
X16963769Y-9407367D02*
X16993769Y-9437367D01*
X16993769Y-9407367D02*
X16963769Y-9437367D01*
X16963769Y-9997367D02*
X16993769Y-10027367D01*
X16993769Y-9997367D02*
X16963769Y-10027367D01*
X16963769Y-10587367D02*
X16993769Y-10617367D01*
X16993769Y-10587367D02*
X16963769Y-10617367D01*
X16963769Y-11177367D02*
X16993769Y-11207367D01*
X16993769Y-11177367D02*
X16963769Y-11207367D01*
X16963769Y-11767367D02*
X16993769Y-11797367D01*
X16993769Y-11767367D02*
X16963769Y-11797367D01*
X16963769Y-12357367D02*
X16993769Y-12387367D01*
X16993769Y-12357367D02*
X16963769Y-12387367D01*
X16963769Y-12947367D02*
X16993769Y-12977367D01*
X16993769Y-12947367D02*
X16963769Y-12977367D01*
X16963769Y-13537367D02*
X16993769Y-13567367D01*
X16993769Y-13537367D02*
X16963769Y-13567367D01*
X16963769Y-13684867D02*
X16993769Y-13714867D01*
X16993769Y-13684867D02*
X16963769Y-13714867D01*
X17312288Y-14931937D02*
X17342288Y-14961937D01*
X17342288Y-14931937D02*
X17312288Y-14961937D01*
X17544349Y-4576462D02*
X17574349Y-4606462D01*
X17574349Y-4576462D02*
X17544349Y-4606462D01*
X17553769Y-5867367D02*
X17583769Y-5897367D01*
X17583769Y-5867367D02*
X17553769Y-5897367D01*
X17553769Y-6457367D02*
X17583769Y-6487367D01*
X17583769Y-6457367D02*
X17553769Y-6487367D01*
X17553769Y-7047367D02*
X17583769Y-7077367D01*
X17583769Y-7047367D02*
X17553769Y-7077367D01*
X17553769Y-7637367D02*
X17583769Y-7667367D01*
X17583769Y-7637367D02*
X17553769Y-7667367D01*
X17553769Y-8227367D02*
X17583769Y-8257367D01*
X17583769Y-8227367D02*
X17553769Y-8257367D01*
X17553769Y-8817367D02*
X17583769Y-8847367D01*
X17583769Y-8817367D02*
X17553769Y-8847367D01*
X17553769Y-9407367D02*
X17583769Y-9437367D01*
X17583769Y-9407367D02*
X17553769Y-9437367D01*
X17553769Y-9997367D02*
X17583769Y-10027367D01*
X17583769Y-9997367D02*
X17553769Y-10027367D01*
X17553769Y-10587367D02*
X17583769Y-10617367D01*
X17583769Y-10587367D02*
X17553769Y-10617367D01*
X17553769Y-11177367D02*
X17583769Y-11207367D01*
X17583769Y-11177367D02*
X17553769Y-11207367D01*
X17553769Y-11767367D02*
X17583769Y-11797367D01*
X17583769Y-11767367D02*
X17553769Y-11797367D01*
X17553769Y-12357367D02*
X17583769Y-12387367D01*
X17583769Y-12357367D02*
X17553769Y-12387367D01*
X17553769Y-12947367D02*
X17583769Y-12977367D01*
X17583769Y-12947367D02*
X17553769Y-12977367D01*
X17553769Y-13537367D02*
X17583769Y-13567367D01*
X17583769Y-13537367D02*
X17553769Y-13567367D01*
X17553769Y-13684867D02*
X17583769Y-13714867D01*
X17583769Y-13684867D02*
X17553769Y-13714867D01*
D13*
X11285804Y-8471337D02*
G75*
G03*
X11285804Y-8471337I-19055J0D01*
G01*
X13213817Y-8912436D02*
G75*
G03*
X13213817Y-8912436I-19055J0D01*
G01*
X13555342Y-8426938D02*
G75*
G03*
X13555342Y-8426938I-19055J0D01*
G01*
X13647342Y-8496938D02*
G75*
G03*
X13647342Y-8496938I-19055J0D01*
G01*
X13756324Y-8592117D02*
G75*
G03*
X13756324Y-8592117I-19055J0D01*
G01*
X13869653Y-11012787D02*
G75*
G03*
X13869653Y-11012787I-19055J0D01*
G01*
X13956004Y-9793730D02*
G75*
G03*
X13956004Y-9793730I-19055J0D01*
G01*
X13991324Y-10014117D02*
G75*
G03*
X13991324Y-10014117I-19055J0D01*
G01*
X14180324Y-10188117D02*
G75*
G03*
X14180324Y-10188117I-19055J0D01*
G01*
D14*
X9889349Y-4393538D02*
X9889349Y-4443538D01*
X9864349Y-4418538D02*
X9914349Y-4418538D01*
X10196038Y-15394437D02*
X10196038Y-15444437D01*
X10171038Y-15419437D02*
X10221038Y-15419437D01*
X10239661Y-4216150D02*
X10239661Y-4266150D01*
X10214661Y-4241150D02*
X10264661Y-4241150D01*
X10239661Y-4677087D02*
X10239661Y-4727087D01*
X10214661Y-4702087D02*
X10264661Y-4702087D01*
X10239661Y-14812087D02*
X10239661Y-14862087D01*
X10214661Y-14837087D02*
X10264661Y-14837087D01*
X10515532Y-15222443D02*
X10515532Y-15272443D01*
X10490532Y-15247443D02*
X10540532Y-15247443D01*
X10712288Y-15246937D02*
X10712288Y-15296937D01*
X10687288Y-15271937D02*
X10737288Y-15271937D01*
X10786038Y-4308337D02*
X10786038Y-4358337D01*
X10761038Y-4333337D02*
X10811038Y-4333337D01*
X10829561Y-15061712D02*
X10829561Y-15111712D01*
X10804561Y-15086712D02*
X10854561Y-15086712D01*
X10829661Y-4474275D02*
X10829661Y-4524275D01*
X10804661Y-4499275D02*
X10854661Y-4499275D01*
X10922299Y-15268212D02*
X10922299Y-15318212D01*
X10897299Y-15293212D02*
X10947299Y-15293212D01*
X11069349Y-4382087D02*
X11069349Y-4432087D01*
X11044349Y-4407087D02*
X11094349Y-4407087D01*
X11315298Y-15326212D02*
X11315298Y-15376212D01*
X11290298Y-15351212D02*
X11340298Y-15351212D01*
X11429698Y-4203912D02*
X11429698Y-4253912D01*
X11404698Y-4228912D02*
X11454698Y-4228912D01*
X11835298Y-15169212D02*
X11835298Y-15219212D01*
X11810298Y-15194212D02*
X11860298Y-15194212D01*
X11967648Y-4357612D02*
X11967648Y-4407612D01*
X11942648Y-4382612D02*
X11992648Y-4382612D01*
X12121348Y-4280762D02*
X12121348Y-4330762D01*
X12096348Y-4305762D02*
X12146348Y-4305762D01*
X12531298Y-15351212D02*
X12531298Y-15401212D01*
X12506298Y-15376212D02*
X12556298Y-15376212D01*
X12574399Y-7423049D02*
X12574399Y-7473049D01*
X12549399Y-7448049D02*
X12599399Y-7448049D01*
X12659298Y-4203912D02*
X12659298Y-4253912D01*
X12634298Y-4228912D02*
X12684298Y-4228912D01*
X12703749Y-8418337D02*
X12703749Y-8468337D01*
X12678749Y-8443337D02*
X12728749Y-8443337D01*
X12736749Y-8745337D02*
X12736749Y-8795337D01*
X12711749Y-8770337D02*
X12761749Y-8770337D01*
X12857686Y-15172337D02*
X12857686Y-15222337D01*
X12832686Y-15197337D02*
X12882686Y-15197337D01*
X13043298Y-15227212D02*
X13043298Y-15277212D01*
X13018298Y-15252212D02*
X13068298Y-15252212D01*
X13043548Y-4357612D02*
X13043548Y-4407612D01*
X13018548Y-4382612D02*
X13068548Y-4382612D01*
X13281749Y-9588587D02*
X13281749Y-9638587D01*
X13256749Y-9613587D02*
X13306749Y-9613587D01*
X13296749Y-8442337D02*
X13296749Y-8492337D01*
X13271749Y-8467337D02*
X13321749Y-8467337D01*
X13429349Y-4382087D02*
X13429349Y-4432087D01*
X13404349Y-4407087D02*
X13454349Y-4407087D01*
X13447786Y-4566462D02*
X13447786Y-4616462D01*
X13422786Y-4591462D02*
X13472786Y-4591462D01*
X13618749Y-7884337D02*
X13618749Y-7934337D01*
X13593749Y-7909337D02*
X13643749Y-7909337D01*
X13717474Y-15026462D02*
X13717474Y-15076462D01*
X13692474Y-15051462D02*
X13742474Y-15051462D01*
X13779661Y-4548025D02*
X13779661Y-4598025D01*
X13754661Y-4573025D02*
X13804661Y-4573025D01*
X14024036Y-14978025D02*
X14024036Y-15028025D01*
X13999036Y-15003025D02*
X14049036Y-15003025D01*
X14056124Y-15172337D02*
X14056124Y-15222337D01*
X14031124Y-15197337D02*
X14081124Y-15197337D01*
X14213144Y-9637054D02*
X14213144Y-9687054D01*
X14188144Y-9662054D02*
X14238144Y-9662054D01*
X14361298Y-15189212D02*
X14361298Y-15239212D01*
X14336298Y-15214212D02*
X14386298Y-15214212D01*
X14400298Y-4337212D02*
X14400298Y-4387212D01*
X14375298Y-4362212D02*
X14425298Y-4362212D01*
X14415956Y-9330462D02*
X14415956Y-9380462D01*
X14390956Y-9355462D02*
X14440956Y-9355462D01*
X14609349Y-4382087D02*
X14609349Y-4432087D01*
X14584349Y-4407087D02*
X14634349Y-4407087D01*
X14844298Y-15321212D02*
X14844298Y-15371212D01*
X14819298Y-15346212D02*
X14869298Y-15346212D01*
X14937298Y-4214212D02*
X14937298Y-4264212D01*
X14912298Y-4239212D02*
X14962298Y-4239212D01*
X15374298Y-15174212D02*
X15374298Y-15224212D01*
X15349298Y-15199212D02*
X15399298Y-15199212D01*
X15517298Y-4334212D02*
X15517298Y-4384212D01*
X15492298Y-4359212D02*
X15542298Y-4359212D01*
X15552298Y-15291212D02*
X15552298Y-15341212D01*
X15527298Y-15316212D02*
X15577298Y-15316212D01*
X15634298Y-4424212D02*
X15634298Y-4474212D01*
X15609298Y-4449212D02*
X15659298Y-4449212D01*
X15995298Y-15330212D02*
X15995298Y-15380212D01*
X15970298Y-15355212D02*
X16020298Y-15355212D01*
X16128298Y-4219212D02*
X16128298Y-4269212D01*
X16103298Y-4244212D02*
X16153298Y-4244212D01*
X16397686Y-15172337D02*
X16397686Y-15222337D01*
X16372686Y-15197337D02*
X16422686Y-15197337D01*
X16637474Y-4474275D02*
X16637474Y-4524275D01*
X16612474Y-4499275D02*
X16662474Y-4499275D01*
X16637474Y-15125525D02*
X16637474Y-15175525D01*
X16612474Y-15150525D02*
X16662474Y-15150525D01*
X16762287Y-15256937D02*
X16762287Y-15306937D01*
X16737287Y-15281937D02*
X16787288Y-15281937D01*
X16783288Y-4330938D02*
X16783288Y-4380938D01*
X16758287Y-4355938D02*
X16808288Y-4355938D01*
X16943288Y-4321938D02*
X16943288Y-4371938D01*
X16918288Y-4346938D02*
X16968288Y-4346938D01*
X17174288Y-15340937D02*
X17174288Y-15390937D01*
X17149288Y-15365937D02*
X17199288Y-15365937D01*
X17221286Y-14810931D02*
X17221286Y-14860931D01*
X17196286Y-14835931D02*
X17246286Y-14835931D01*
X17245911Y-4806150D02*
X17245911Y-4856150D01*
X17220911Y-4831150D02*
X17270911Y-4831150D01*
X17301986Y-4216150D02*
X17301986Y-4266150D01*
X17276986Y-4241150D02*
X17326986Y-4241150D01*
X17577686Y-15172337D02*
X17577686Y-15222337D01*
X17552686Y-15197337D02*
X17602686Y-15197337D01*
D11*
X9837918Y-15850157D02*
X9837918Y-15650157D01*
X9885537Y-15650157D01*
X9914108Y-15659681D01*
X9933156Y-15678728D01*
X9942679Y-15697776D01*
X9952203Y-15735871D01*
X9952203Y-15764443D01*
X9942679Y-15802538D01*
X9933156Y-15821585D01*
X9914108Y-15840633D01*
X9885537Y-15850157D01*
X9837918Y-15850157D01*
X10037918Y-15850157D02*
X10037918Y-15716824D01*
X10037918Y-15754919D02*
X10047441Y-15735871D01*
X10056965Y-15726347D01*
X10076013Y-15716824D01*
X10095060Y-15716824D01*
X10161727Y-15850157D02*
X10161727Y-15716824D01*
X10161727Y-15650157D02*
X10152203Y-15659681D01*
X10161727Y-15669205D01*
X10171251Y-15659681D01*
X10161727Y-15650157D01*
X10161727Y-15669205D01*
X10285537Y-15850157D02*
X10266489Y-15840633D01*
X10256965Y-15821585D01*
X10256965Y-15650157D01*
X10390299Y-15850157D02*
X10371251Y-15840633D01*
X10361727Y-15821585D01*
X10361727Y-15650157D01*
X10618870Y-15850157D02*
X10618870Y-15650157D01*
X10685537Y-15793014D01*
X10752203Y-15650157D01*
X10752203Y-15850157D01*
X10933156Y-15850157D02*
X10933156Y-15745395D01*
X10923632Y-15726347D01*
X10904584Y-15716824D01*
X10866489Y-15716824D01*
X10847441Y-15726347D01*
X10933156Y-15840633D02*
X10914108Y-15850157D01*
X10866489Y-15850157D01*
X10847441Y-15840633D01*
X10837918Y-15821585D01*
X10837918Y-15802538D01*
X10847441Y-15783490D01*
X10866489Y-15773966D01*
X10914108Y-15773966D01*
X10933156Y-15764443D01*
X11028394Y-15716824D02*
X11028394Y-15916824D01*
X11028394Y-15726347D02*
X11047441Y-15716824D01*
X11085537Y-15716824D01*
X11104584Y-15726347D01*
X11114108Y-15735871D01*
X11123632Y-15754919D01*
X11123632Y-15812062D01*
X11114108Y-15831109D01*
X11104584Y-15840633D01*
X11085537Y-15850157D01*
X11047441Y-15850157D01*
X11028394Y-15840633D01*
X11209346Y-15831109D02*
X11218870Y-15840633D01*
X11209346Y-15850157D01*
X11199822Y-15840633D01*
X11209346Y-15831109D01*
X11209346Y-15850157D01*
X11209346Y-15726347D02*
X11218870Y-15735871D01*
X11209346Y-15745395D01*
X11199822Y-15735871D01*
X11209346Y-15726347D01*
X11209346Y-15745395D01*
D12*
X9550299Y-16164681D02*
X9580299Y-16194681D01*
X9580299Y-16164681D02*
X9550299Y-16194681D01*
D11*
X9876013Y-16070157D02*
X9895060Y-16070157D01*
X9914108Y-16079681D01*
X9923632Y-16089205D01*
X9933156Y-16108252D01*
X9942679Y-16146347D01*
X9942679Y-16193966D01*
X9933156Y-16232062D01*
X9923632Y-16251109D01*
X9914108Y-16260633D01*
X9895060Y-16270157D01*
X9876013Y-16270157D01*
X9856965Y-16260633D01*
X9847441Y-16251109D01*
X9837918Y-16232062D01*
X9828394Y-16193966D01*
X9828394Y-16146347D01*
X9837918Y-16108252D01*
X9847441Y-16089205D01*
X9856965Y-16079681D01*
X9876013Y-16070157D01*
X10028394Y-16251109D02*
X10037918Y-16260633D01*
X10028394Y-16270157D01*
X10018870Y-16260633D01*
X10028394Y-16251109D01*
X10028394Y-16270157D01*
X10104584Y-16070157D02*
X10228394Y-16070157D01*
X10161727Y-16146347D01*
X10190299Y-16146347D01*
X10209346Y-16155871D01*
X10218870Y-16165395D01*
X10228394Y-16184443D01*
X10228394Y-16232062D01*
X10218870Y-16251109D01*
X10209346Y-16260633D01*
X10190299Y-16270157D01*
X10133156Y-16270157D01*
X10114108Y-16260633D01*
X10104584Y-16251109D01*
X10352203Y-16070157D02*
X10371251Y-16070157D01*
X10390299Y-16079681D01*
X10399822Y-16089205D01*
X10409346Y-16108252D01*
X10418870Y-16146347D01*
X10418870Y-16193966D01*
X10409346Y-16232062D01*
X10399822Y-16251109D01*
X10390299Y-16260633D01*
X10371251Y-16270157D01*
X10352203Y-16270157D01*
X10333156Y-16260633D01*
X10323632Y-16251109D01*
X10314108Y-16232062D01*
X10304584Y-16193966D01*
X10304584Y-16146347D01*
X10314108Y-16108252D01*
X10323632Y-16089205D01*
X10333156Y-16079681D01*
X10352203Y-16070157D01*
X10542679Y-16070157D02*
X10561727Y-16070157D01*
X10580775Y-16079681D01*
X10590299Y-16089205D01*
X10599822Y-16108252D01*
X10609346Y-16146347D01*
X10609346Y-16193966D01*
X10599822Y-16232062D01*
X10590299Y-16251109D01*
X10580775Y-16260633D01*
X10561727Y-16270157D01*
X10542679Y-16270157D01*
X10523632Y-16260633D01*
X10514108Y-16251109D01*
X10504584Y-16232062D01*
X10495060Y-16193966D01*
X10495060Y-16146347D01*
X10504584Y-16108252D01*
X10514108Y-16089205D01*
X10523632Y-16079681D01*
X10542679Y-16070157D01*
X10695060Y-16270157D02*
X10695060Y-16136824D01*
X10695060Y-16155871D02*
X10704584Y-16146347D01*
X10723632Y-16136824D01*
X10752203Y-16136824D01*
X10771251Y-16146347D01*
X10780775Y-16165395D01*
X10780775Y-16270157D01*
X10780775Y-16165395D02*
X10790299Y-16146347D01*
X10809346Y-16136824D01*
X10837918Y-16136824D01*
X10856965Y-16146347D01*
X10866489Y-16165395D01*
X10866489Y-16270157D01*
X10961727Y-16270157D02*
X10961727Y-16136824D01*
X10961727Y-16155871D02*
X10971251Y-16146347D01*
X10990299Y-16136824D01*
X11018870Y-16136824D01*
X11037918Y-16146347D01*
X11047441Y-16165395D01*
X11047441Y-16270157D01*
X11047441Y-16165395D02*
X11056965Y-16146347D01*
X11076013Y-16136824D01*
X11104584Y-16136824D01*
X11123632Y-16146347D01*
X11133156Y-16165395D01*
X11133156Y-16270157D01*
X11523632Y-16060633D02*
X11352203Y-16317776D01*
X11780775Y-16070157D02*
X11799822Y-16070157D01*
X11818870Y-16079681D01*
X11828394Y-16089205D01*
X11837917Y-16108252D01*
X11847441Y-16146347D01*
X11847441Y-16193966D01*
X11837917Y-16232062D01*
X11828394Y-16251109D01*
X11818870Y-16260633D01*
X11799822Y-16270157D01*
X11780775Y-16270157D01*
X11761727Y-16260633D01*
X11752203Y-16251109D01*
X11742679Y-16232062D01*
X11733156Y-16193966D01*
X11733156Y-16146347D01*
X11742679Y-16108252D01*
X11752203Y-16089205D01*
X11761727Y-16079681D01*
X11780775Y-16070157D01*
X11933156Y-16251109D02*
X11942679Y-16260633D01*
X11933156Y-16270157D01*
X11923632Y-16260633D01*
X11933156Y-16251109D01*
X11933156Y-16270157D01*
X12066489Y-16070157D02*
X12085536Y-16070157D01*
X12104584Y-16079681D01*
X12114108Y-16089205D01*
X12123632Y-16108252D01*
X12133156Y-16146347D01*
X12133156Y-16193966D01*
X12123632Y-16232062D01*
X12114108Y-16251109D01*
X12104584Y-16260633D01*
X12085536Y-16270157D01*
X12066489Y-16270157D01*
X12047441Y-16260633D01*
X12037917Y-16251109D01*
X12028394Y-16232062D01*
X12018870Y-16193966D01*
X12018870Y-16146347D01*
X12028394Y-16108252D01*
X12037917Y-16089205D01*
X12047441Y-16079681D01*
X12066489Y-16070157D01*
X12323632Y-16270157D02*
X12209346Y-16270157D01*
X12266489Y-16270157D02*
X12266489Y-16070157D01*
X12247441Y-16098728D01*
X12228394Y-16117776D01*
X12209346Y-16127300D01*
X12514108Y-16270157D02*
X12399822Y-16270157D01*
X12456965Y-16270157D02*
X12456965Y-16070157D01*
X12437917Y-16098728D01*
X12418870Y-16117776D01*
X12399822Y-16127300D01*
X12628394Y-16155871D02*
X12609346Y-16146347D01*
X12599822Y-16136824D01*
X12590298Y-16117776D01*
X12590298Y-16108252D01*
X12599822Y-16089205D01*
X12609346Y-16079681D01*
X12628394Y-16070157D01*
X12666489Y-16070157D01*
X12685536Y-16079681D01*
X12695060Y-16089205D01*
X12704584Y-16108252D01*
X12704584Y-16117776D01*
X12695060Y-16136824D01*
X12685536Y-16146347D01*
X12666489Y-16155871D01*
X12628394Y-16155871D01*
X12609346Y-16165395D01*
X12599822Y-16174919D01*
X12590298Y-16193966D01*
X12590298Y-16232062D01*
X12599822Y-16251109D01*
X12609346Y-16260633D01*
X12628394Y-16270157D01*
X12666489Y-16270157D01*
X12685536Y-16260633D01*
X12695060Y-16251109D01*
X12704584Y-16232062D01*
X12704584Y-16193966D01*
X12695060Y-16174919D01*
X12685536Y-16165395D01*
X12666489Y-16155871D01*
X12780775Y-16070157D02*
X12780775Y-16108252D01*
X12856965Y-16070157D02*
X12856965Y-16108252D01*
X13152203Y-16346347D02*
X13142679Y-16336824D01*
X13123632Y-16308252D01*
X13114108Y-16289205D01*
X13104584Y-16260633D01*
X13095060Y-16213014D01*
X13095060Y-16174919D01*
X13104584Y-16127300D01*
X13114108Y-16098728D01*
X13123632Y-16079681D01*
X13142679Y-16051109D01*
X13152203Y-16041585D01*
X13218870Y-16089205D02*
X13228394Y-16079681D01*
X13247441Y-16070157D01*
X13295060Y-16070157D01*
X13314108Y-16079681D01*
X13323632Y-16089205D01*
X13333156Y-16108252D01*
X13333156Y-16127300D01*
X13323632Y-16155871D01*
X13209346Y-16270157D01*
X13333156Y-16270157D01*
X13399822Y-16070157D02*
X13523632Y-16070157D01*
X13456965Y-16146347D01*
X13485536Y-16146347D01*
X13504584Y-16155871D01*
X13514108Y-16165395D01*
X13523632Y-16184443D01*
X13523632Y-16232062D01*
X13514108Y-16251109D01*
X13504584Y-16260633D01*
X13485536Y-16270157D01*
X13428394Y-16270157D01*
X13409346Y-16260633D01*
X13399822Y-16251109D01*
X13618870Y-16270157D02*
X13656965Y-16270157D01*
X13676013Y-16260633D01*
X13685536Y-16251109D01*
X13704584Y-16222538D01*
X13714108Y-16184443D01*
X13714108Y-16108252D01*
X13704584Y-16089205D01*
X13695060Y-16079681D01*
X13676013Y-16070157D01*
X13637917Y-16070157D01*
X13618870Y-16079681D01*
X13609346Y-16089205D01*
X13599822Y-16108252D01*
X13599822Y-16155871D01*
X13609346Y-16174919D01*
X13618870Y-16184443D01*
X13637917Y-16193966D01*
X13676013Y-16193966D01*
X13695060Y-16184443D01*
X13704584Y-16174919D01*
X13714108Y-16155871D01*
X13952203Y-16270157D02*
X13952203Y-16070157D01*
X14037917Y-16270157D02*
X14037917Y-16165395D01*
X14028394Y-16146347D01*
X14009346Y-16136824D01*
X13980775Y-16136824D01*
X13961727Y-16146347D01*
X13952203Y-16155871D01*
X14161727Y-16270157D02*
X14142679Y-16260633D01*
X14133156Y-16251109D01*
X14123632Y-16232062D01*
X14123632Y-16174919D01*
X14133156Y-16155871D01*
X14142679Y-16146347D01*
X14161727Y-16136824D01*
X14190298Y-16136824D01*
X14209346Y-16146347D01*
X14218870Y-16155871D01*
X14228394Y-16174919D01*
X14228394Y-16232062D01*
X14218870Y-16251109D01*
X14209346Y-16260633D01*
X14190298Y-16270157D01*
X14161727Y-16270157D01*
X14342679Y-16270157D02*
X14323632Y-16260633D01*
X14314108Y-16241585D01*
X14314108Y-16070157D01*
X14495060Y-16260633D02*
X14476013Y-16270157D01*
X14437917Y-16270157D01*
X14418870Y-16260633D01*
X14409346Y-16241585D01*
X14409346Y-16165395D01*
X14418870Y-16146347D01*
X14437917Y-16136824D01*
X14476013Y-16136824D01*
X14495060Y-16146347D01*
X14504584Y-16165395D01*
X14504584Y-16184443D01*
X14409346Y-16203490D01*
X14580775Y-16260633D02*
X14599822Y-16270157D01*
X14637917Y-16270157D01*
X14656965Y-16260633D01*
X14666489Y-16241585D01*
X14666489Y-16232062D01*
X14656965Y-16213014D01*
X14637917Y-16203490D01*
X14609346Y-16203490D01*
X14590298Y-16193966D01*
X14580775Y-16174919D01*
X14580775Y-16165395D01*
X14590298Y-16146347D01*
X14609346Y-16136824D01*
X14637917Y-16136824D01*
X14656965Y-16146347D01*
X14733156Y-16346347D02*
X14742679Y-16336824D01*
X14761727Y-16308252D01*
X14771251Y-16289205D01*
X14780775Y-16260633D01*
X14790298Y-16213014D01*
X14790298Y-16174919D01*
X14780775Y-16127300D01*
X14771251Y-16098728D01*
X14761727Y-16079681D01*
X14742679Y-16051109D01*
X14733156Y-16041585D01*
D13*
X9580299Y-16443681D02*
G75*
G03*
X9580299Y-16443681I-19055J0D01*
G01*
D11*
X9876013Y-16334157D02*
X9895060Y-16334157D01*
X9914108Y-16343681D01*
X9923632Y-16353205D01*
X9933156Y-16372252D01*
X9942679Y-16410347D01*
X9942679Y-16457966D01*
X9933156Y-16496062D01*
X9923632Y-16515109D01*
X9914108Y-16524633D01*
X9895060Y-16534157D01*
X9876013Y-16534157D01*
X9856965Y-16524633D01*
X9847441Y-16515109D01*
X9837918Y-16496062D01*
X9828394Y-16457966D01*
X9828394Y-16410347D01*
X9837918Y-16372252D01*
X9847441Y-16353205D01*
X9856965Y-16343681D01*
X9876013Y-16334157D01*
X10028394Y-16515109D02*
X10037918Y-16524633D01*
X10028394Y-16534157D01*
X10018870Y-16524633D01*
X10028394Y-16515109D01*
X10028394Y-16534157D01*
X10104584Y-16334157D02*
X10228394Y-16334157D01*
X10161727Y-16410347D01*
X10190299Y-16410347D01*
X10209346Y-16419871D01*
X10218870Y-16429395D01*
X10228394Y-16448443D01*
X10228394Y-16496062D01*
X10218870Y-16515109D01*
X10209346Y-16524633D01*
X10190299Y-16534157D01*
X10133156Y-16534157D01*
X10114108Y-16524633D01*
X10104584Y-16515109D01*
X10342679Y-16419871D02*
X10323632Y-16410347D01*
X10314108Y-16400824D01*
X10304584Y-16381776D01*
X10304584Y-16372252D01*
X10314108Y-16353205D01*
X10323632Y-16343681D01*
X10342679Y-16334157D01*
X10380775Y-16334157D01*
X10399822Y-16343681D01*
X10409346Y-16353205D01*
X10418870Y-16372252D01*
X10418870Y-16381776D01*
X10409346Y-16400824D01*
X10399822Y-16410347D01*
X10380775Y-16419871D01*
X10342679Y-16419871D01*
X10323632Y-16429395D01*
X10314108Y-16438919D01*
X10304584Y-16457966D01*
X10304584Y-16496062D01*
X10314108Y-16515109D01*
X10323632Y-16524633D01*
X10342679Y-16534157D01*
X10380775Y-16534157D01*
X10399822Y-16524633D01*
X10409346Y-16515109D01*
X10418870Y-16496062D01*
X10418870Y-16457966D01*
X10409346Y-16438919D01*
X10399822Y-16429395D01*
X10380775Y-16419871D01*
X10609346Y-16534157D02*
X10495060Y-16534157D01*
X10552203Y-16534157D02*
X10552203Y-16334157D01*
X10533156Y-16362728D01*
X10514108Y-16381776D01*
X10495060Y-16391300D01*
X10695060Y-16534157D02*
X10695060Y-16400824D01*
X10695060Y-16419871D02*
X10704584Y-16410347D01*
X10723632Y-16400824D01*
X10752203Y-16400824D01*
X10771251Y-16410347D01*
X10780775Y-16429395D01*
X10780775Y-16534157D01*
X10780775Y-16429395D02*
X10790299Y-16410347D01*
X10809346Y-16400824D01*
X10837918Y-16400824D01*
X10856965Y-16410347D01*
X10866489Y-16429395D01*
X10866489Y-16534157D01*
X10961727Y-16534157D02*
X10961727Y-16400824D01*
X10961727Y-16419871D02*
X10971251Y-16410347D01*
X10990299Y-16400824D01*
X11018870Y-16400824D01*
X11037918Y-16410347D01*
X11047441Y-16429395D01*
X11047441Y-16534157D01*
X11047441Y-16429395D02*
X11056965Y-16410347D01*
X11076013Y-16400824D01*
X11104584Y-16400824D01*
X11123632Y-16410347D01*
X11133156Y-16429395D01*
X11133156Y-16534157D01*
X11523632Y-16324633D02*
X11352203Y-16581776D01*
X11780775Y-16334157D02*
X11799822Y-16334157D01*
X11818870Y-16343681D01*
X11828394Y-16353205D01*
X11837917Y-16372252D01*
X11847441Y-16410347D01*
X11847441Y-16457966D01*
X11837917Y-16496062D01*
X11828394Y-16515109D01*
X11818870Y-16524633D01*
X11799822Y-16534157D01*
X11780775Y-16534157D01*
X11761727Y-16524633D01*
X11752203Y-16515109D01*
X11742679Y-16496062D01*
X11733156Y-16457966D01*
X11733156Y-16410347D01*
X11742679Y-16372252D01*
X11752203Y-16353205D01*
X11761727Y-16343681D01*
X11780775Y-16334157D01*
X11933156Y-16515109D02*
X11942679Y-16524633D01*
X11933156Y-16534157D01*
X11923632Y-16524633D01*
X11933156Y-16515109D01*
X11933156Y-16534157D01*
X12066489Y-16334157D02*
X12085536Y-16334157D01*
X12104584Y-16343681D01*
X12114108Y-16353205D01*
X12123632Y-16372252D01*
X12133156Y-16410347D01*
X12133156Y-16457966D01*
X12123632Y-16496062D01*
X12114108Y-16515109D01*
X12104584Y-16524633D01*
X12085536Y-16534157D01*
X12066489Y-16534157D01*
X12047441Y-16524633D01*
X12037917Y-16515109D01*
X12028394Y-16496062D01*
X12018870Y-16457966D01*
X12018870Y-16410347D01*
X12028394Y-16372252D01*
X12037917Y-16353205D01*
X12047441Y-16343681D01*
X12066489Y-16334157D01*
X12323632Y-16534157D02*
X12209346Y-16534157D01*
X12266489Y-16534157D02*
X12266489Y-16334157D01*
X12247441Y-16362728D01*
X12228394Y-16381776D01*
X12209346Y-16391300D01*
X12504584Y-16334157D02*
X12409346Y-16334157D01*
X12399822Y-16429395D01*
X12409346Y-16419871D01*
X12428394Y-16410347D01*
X12476013Y-16410347D01*
X12495060Y-16419871D01*
X12504584Y-16429395D01*
X12514108Y-16448443D01*
X12514108Y-16496062D01*
X12504584Y-16515109D01*
X12495060Y-16524633D01*
X12476013Y-16534157D01*
X12428394Y-16534157D01*
X12409346Y-16524633D01*
X12399822Y-16515109D01*
X12637917Y-16334157D02*
X12656965Y-16334157D01*
X12676013Y-16343681D01*
X12685536Y-16353205D01*
X12695060Y-16372252D01*
X12704584Y-16410347D01*
X12704584Y-16457966D01*
X12695060Y-16496062D01*
X12685536Y-16515109D01*
X12676013Y-16524633D01*
X12656965Y-16534157D01*
X12637917Y-16534157D01*
X12618870Y-16524633D01*
X12609346Y-16515109D01*
X12599822Y-16496062D01*
X12590298Y-16457966D01*
X12590298Y-16410347D01*
X12599822Y-16372252D01*
X12609346Y-16353205D01*
X12618870Y-16343681D01*
X12637917Y-16334157D01*
X12780775Y-16334157D02*
X12780775Y-16372252D01*
X12856965Y-16334157D02*
X12856965Y-16372252D01*
X13152203Y-16610347D02*
X13142679Y-16600824D01*
X13123632Y-16572252D01*
X13114108Y-16553205D01*
X13104584Y-16524633D01*
X13095060Y-16477014D01*
X13095060Y-16438919D01*
X13104584Y-16391300D01*
X13114108Y-16362728D01*
X13123632Y-16343681D01*
X13142679Y-16315109D01*
X13152203Y-16305585D01*
X13237917Y-16534157D02*
X13276013Y-16534157D01*
X13295060Y-16524633D01*
X13304584Y-16515109D01*
X13323632Y-16486538D01*
X13333156Y-16448443D01*
X13333156Y-16372252D01*
X13323632Y-16353205D01*
X13314108Y-16343681D01*
X13295060Y-16334157D01*
X13256965Y-16334157D01*
X13237917Y-16343681D01*
X13228394Y-16353205D01*
X13218870Y-16372252D01*
X13218870Y-16419871D01*
X13228394Y-16438919D01*
X13237917Y-16448443D01*
X13256965Y-16457966D01*
X13295060Y-16457966D01*
X13314108Y-16448443D01*
X13323632Y-16438919D01*
X13333156Y-16419871D01*
X13571251Y-16534157D02*
X13571251Y-16334157D01*
X13656965Y-16534157D02*
X13656965Y-16429395D01*
X13647441Y-16410347D01*
X13628394Y-16400824D01*
X13599822Y-16400824D01*
X13580775Y-16410347D01*
X13571251Y-16419871D01*
X13780775Y-16534157D02*
X13761727Y-16524633D01*
X13752203Y-16515109D01*
X13742679Y-16496062D01*
X13742679Y-16438919D01*
X13752203Y-16419871D01*
X13761727Y-16410347D01*
X13780775Y-16400824D01*
X13809346Y-16400824D01*
X13828394Y-16410347D01*
X13837917Y-16419871D01*
X13847441Y-16438919D01*
X13847441Y-16496062D01*
X13837917Y-16515109D01*
X13828394Y-16524633D01*
X13809346Y-16534157D01*
X13780775Y-16534157D01*
X13961727Y-16534157D02*
X13942679Y-16524633D01*
X13933156Y-16505585D01*
X13933156Y-16334157D01*
X14114108Y-16524633D02*
X14095060Y-16534157D01*
X14056965Y-16534157D01*
X14037917Y-16524633D01*
X14028394Y-16505585D01*
X14028394Y-16429395D01*
X14037917Y-16410347D01*
X14056965Y-16400824D01*
X14095060Y-16400824D01*
X14114108Y-16410347D01*
X14123632Y-16429395D01*
X14123632Y-16448443D01*
X14028394Y-16467490D01*
X14199822Y-16524633D02*
X14218870Y-16534157D01*
X14256965Y-16534157D01*
X14276013Y-16524633D01*
X14285536Y-16505585D01*
X14285536Y-16496062D01*
X14276013Y-16477014D01*
X14256965Y-16467490D01*
X14228394Y-16467490D01*
X14209346Y-16457966D01*
X14199822Y-16438919D01*
X14199822Y-16429395D01*
X14209346Y-16410347D01*
X14228394Y-16400824D01*
X14256965Y-16400824D01*
X14276013Y-16410347D01*
X14352203Y-16610347D02*
X14361727Y-16600824D01*
X14380775Y-16572252D01*
X14390298Y-16553205D01*
X14399822Y-16524633D01*
X14409346Y-16477014D01*
X14409346Y-16438919D01*
X14399822Y-16391300D01*
X14390298Y-16362728D01*
X14380775Y-16343681D01*
X14361727Y-16315109D01*
X14352203Y-16305585D01*
D14*
X9555299Y-16682681D02*
X9555299Y-16732681D01*
X9530299Y-16707681D02*
X9580299Y-16707681D01*
D11*
X9876013Y-16598157D02*
X9895060Y-16598157D01*
X9914108Y-16607681D01*
X9923632Y-16617205D01*
X9933156Y-16636252D01*
X9942679Y-16674347D01*
X9942679Y-16721966D01*
X9933156Y-16760062D01*
X9923632Y-16779109D01*
X9914108Y-16788633D01*
X9895060Y-16798157D01*
X9876013Y-16798157D01*
X9856965Y-16788633D01*
X9847441Y-16779109D01*
X9837918Y-16760062D01*
X9828394Y-16721966D01*
X9828394Y-16674347D01*
X9837918Y-16636252D01*
X9847441Y-16617205D01*
X9856965Y-16607681D01*
X9876013Y-16598157D01*
X10028394Y-16779109D02*
X10037918Y-16788633D01*
X10028394Y-16798157D01*
X10018870Y-16788633D01*
X10028394Y-16779109D01*
X10028394Y-16798157D01*
X10218870Y-16598157D02*
X10123632Y-16598157D01*
X10114108Y-16693395D01*
X10123632Y-16683871D01*
X10142679Y-16674347D01*
X10190299Y-16674347D01*
X10209346Y-16683871D01*
X10218870Y-16693395D01*
X10228394Y-16712443D01*
X10228394Y-16760062D01*
X10218870Y-16779109D01*
X10209346Y-16788633D01*
X10190299Y-16798157D01*
X10142679Y-16798157D01*
X10123632Y-16788633D01*
X10114108Y-16779109D01*
X10352203Y-16598157D02*
X10371251Y-16598157D01*
X10390299Y-16607681D01*
X10399822Y-16617205D01*
X10409346Y-16636252D01*
X10418870Y-16674347D01*
X10418870Y-16721966D01*
X10409346Y-16760062D01*
X10399822Y-16779109D01*
X10390299Y-16788633D01*
X10371251Y-16798157D01*
X10352203Y-16798157D01*
X10333156Y-16788633D01*
X10323632Y-16779109D01*
X10314108Y-16760062D01*
X10304584Y-16721966D01*
X10304584Y-16674347D01*
X10314108Y-16636252D01*
X10323632Y-16617205D01*
X10333156Y-16607681D01*
X10352203Y-16598157D01*
X10542679Y-16598157D02*
X10561727Y-16598157D01*
X10580775Y-16607681D01*
X10590299Y-16617205D01*
X10599822Y-16636252D01*
X10609346Y-16674347D01*
X10609346Y-16721966D01*
X10599822Y-16760062D01*
X10590299Y-16779109D01*
X10580775Y-16788633D01*
X10561727Y-16798157D01*
X10542679Y-16798157D01*
X10523632Y-16788633D01*
X10514108Y-16779109D01*
X10504584Y-16760062D01*
X10495060Y-16721966D01*
X10495060Y-16674347D01*
X10504584Y-16636252D01*
X10514108Y-16617205D01*
X10523632Y-16607681D01*
X10542679Y-16598157D01*
X10695060Y-16798157D02*
X10695060Y-16664824D01*
X10695060Y-16683871D02*
X10704584Y-16674347D01*
X10723632Y-16664824D01*
X10752203Y-16664824D01*
X10771251Y-16674347D01*
X10780775Y-16693395D01*
X10780775Y-16798157D01*
X10780775Y-16693395D02*
X10790299Y-16674347D01*
X10809346Y-16664824D01*
X10837918Y-16664824D01*
X10856965Y-16674347D01*
X10866489Y-16693395D01*
X10866489Y-16798157D01*
X10961727Y-16798157D02*
X10961727Y-16664824D01*
X10961727Y-16683871D02*
X10971251Y-16674347D01*
X10990299Y-16664824D01*
X11018870Y-16664824D01*
X11037918Y-16674347D01*
X11047441Y-16693395D01*
X11047441Y-16798157D01*
X11047441Y-16693395D02*
X11056965Y-16674347D01*
X11076013Y-16664824D01*
X11104584Y-16664824D01*
X11123632Y-16674347D01*
X11133156Y-16693395D01*
X11133156Y-16798157D01*
X11523632Y-16588633D02*
X11352203Y-16845776D01*
X11780775Y-16598157D02*
X11799822Y-16598157D01*
X11818870Y-16607681D01*
X11828394Y-16617205D01*
X11837917Y-16636252D01*
X11847441Y-16674347D01*
X11847441Y-16721966D01*
X11837917Y-16760062D01*
X11828394Y-16779109D01*
X11818870Y-16788633D01*
X11799822Y-16798157D01*
X11780775Y-16798157D01*
X11761727Y-16788633D01*
X11752203Y-16779109D01*
X11742679Y-16760062D01*
X11733156Y-16721966D01*
X11733156Y-16674347D01*
X11742679Y-16636252D01*
X11752203Y-16617205D01*
X11761727Y-16607681D01*
X11780775Y-16598157D01*
X11933156Y-16779109D02*
X11942679Y-16788633D01*
X11933156Y-16798157D01*
X11923632Y-16788633D01*
X11933156Y-16779109D01*
X11933156Y-16798157D01*
X12066489Y-16598157D02*
X12085536Y-16598157D01*
X12104584Y-16607681D01*
X12114108Y-16617205D01*
X12123632Y-16636252D01*
X12133156Y-16674347D01*
X12133156Y-16721966D01*
X12123632Y-16760062D01*
X12114108Y-16779109D01*
X12104584Y-16788633D01*
X12085536Y-16798157D01*
X12066489Y-16798157D01*
X12047441Y-16788633D01*
X12037917Y-16779109D01*
X12028394Y-16760062D01*
X12018870Y-16721966D01*
X12018870Y-16674347D01*
X12028394Y-16636252D01*
X12037917Y-16617205D01*
X12047441Y-16607681D01*
X12066489Y-16598157D01*
X12323632Y-16798157D02*
X12209346Y-16798157D01*
X12266489Y-16798157D02*
X12266489Y-16598157D01*
X12247441Y-16626728D01*
X12228394Y-16645776D01*
X12209346Y-16655300D01*
X12418870Y-16798157D02*
X12456965Y-16798157D01*
X12476013Y-16788633D01*
X12485536Y-16779109D01*
X12504584Y-16750538D01*
X12514108Y-16712443D01*
X12514108Y-16636252D01*
X12504584Y-16617205D01*
X12495060Y-16607681D01*
X12476013Y-16598157D01*
X12437917Y-16598157D01*
X12418870Y-16607681D01*
X12409346Y-16617205D01*
X12399822Y-16636252D01*
X12399822Y-16683871D01*
X12409346Y-16702919D01*
X12418870Y-16712443D01*
X12437917Y-16721966D01*
X12476013Y-16721966D01*
X12495060Y-16712443D01*
X12504584Y-16702919D01*
X12514108Y-16683871D01*
X12580775Y-16598157D02*
X12714108Y-16598157D01*
X12628394Y-16798157D01*
X12780775Y-16598157D02*
X12780775Y-16636252D01*
X12856965Y-16598157D02*
X12856965Y-16636252D01*
X13152203Y-16874347D02*
X13142679Y-16864824D01*
X13123632Y-16836252D01*
X13114108Y-16817205D01*
X13104584Y-16788633D01*
X13095060Y-16741014D01*
X13095060Y-16702919D01*
X13104584Y-16655300D01*
X13114108Y-16626728D01*
X13123632Y-16607681D01*
X13142679Y-16579109D01*
X13152203Y-16569585D01*
X13323632Y-16598157D02*
X13228394Y-16598157D01*
X13218870Y-16693395D01*
X13228394Y-16683871D01*
X13247441Y-16674347D01*
X13295060Y-16674347D01*
X13314108Y-16683871D01*
X13323632Y-16693395D01*
X13333156Y-16712443D01*
X13333156Y-16760062D01*
X13323632Y-16779109D01*
X13314108Y-16788633D01*
X13295060Y-16798157D01*
X13247441Y-16798157D01*
X13228394Y-16788633D01*
X13218870Y-16779109D01*
X13447441Y-16683871D02*
X13428394Y-16674347D01*
X13418870Y-16664824D01*
X13409346Y-16645776D01*
X13409346Y-16636252D01*
X13418870Y-16617205D01*
X13428394Y-16607681D01*
X13447441Y-16598157D01*
X13485536Y-16598157D01*
X13504584Y-16607681D01*
X13514108Y-16617205D01*
X13523632Y-16636252D01*
X13523632Y-16645776D01*
X13514108Y-16664824D01*
X13504584Y-16674347D01*
X13485536Y-16683871D01*
X13447441Y-16683871D01*
X13428394Y-16693395D01*
X13418870Y-16702919D01*
X13409346Y-16721966D01*
X13409346Y-16760062D01*
X13418870Y-16779109D01*
X13428394Y-16788633D01*
X13447441Y-16798157D01*
X13485536Y-16798157D01*
X13504584Y-16788633D01*
X13514108Y-16779109D01*
X13523632Y-16760062D01*
X13523632Y-16721966D01*
X13514108Y-16702919D01*
X13504584Y-16693395D01*
X13485536Y-16683871D01*
X13761727Y-16798157D02*
X13761727Y-16598157D01*
X13847441Y-16798157D02*
X13847441Y-16693395D01*
X13837917Y-16674347D01*
X13818870Y-16664824D01*
X13790298Y-16664824D01*
X13771251Y-16674347D01*
X13761727Y-16683871D01*
X13971251Y-16798157D02*
X13952203Y-16788633D01*
X13942679Y-16779109D01*
X13933156Y-16760062D01*
X13933156Y-16702919D01*
X13942679Y-16683871D01*
X13952203Y-16674347D01*
X13971251Y-16664824D01*
X13999822Y-16664824D01*
X14018870Y-16674347D01*
X14028394Y-16683871D01*
X14037917Y-16702919D01*
X14037917Y-16760062D01*
X14028394Y-16779109D01*
X14018870Y-16788633D01*
X13999822Y-16798157D01*
X13971251Y-16798157D01*
X14152203Y-16798157D02*
X14133156Y-16788633D01*
X14123632Y-16769585D01*
X14123632Y-16598157D01*
X14304584Y-16788633D02*
X14285536Y-16798157D01*
X14247441Y-16798157D01*
X14228394Y-16788633D01*
X14218870Y-16769585D01*
X14218870Y-16693395D01*
X14228394Y-16674347D01*
X14247441Y-16664824D01*
X14285536Y-16664824D01*
X14304584Y-16674347D01*
X14314108Y-16693395D01*
X14314108Y-16712443D01*
X14218870Y-16731490D01*
X14390298Y-16788633D02*
X14409346Y-16798157D01*
X14447441Y-16798157D01*
X14466489Y-16788633D01*
X14476013Y-16769585D01*
X14476013Y-16760062D01*
X14466489Y-16741014D01*
X14447441Y-16731490D01*
X14418870Y-16731490D01*
X14399822Y-16721966D01*
X14390298Y-16702919D01*
X14390298Y-16693395D01*
X14399822Y-16674347D01*
X14418870Y-16664824D01*
X14447441Y-16664824D01*
X14466489Y-16674347D01*
X14542679Y-16874347D02*
X14552203Y-16864824D01*
X14571251Y-16836252D01*
X14580775Y-16817205D01*
X14590298Y-16788633D01*
X14599822Y-16741014D01*
X14599822Y-16702919D01*
X14590298Y-16655300D01*
X14580775Y-16626728D01*
X14571251Y-16607681D01*
X14552203Y-16579109D01*
X14542679Y-16569585D01*
M02*
