G04 #@! TF.GenerationSoftware,KiCad,Pcbnew,(6.0.10)*
G04 #@! TF.CreationDate,2023-07-30T21:36:38+01:00*
G04 #@! TF.ProjectId,magnetonetouchpad,6d61676e-6574-46f6-9e65-746f75636870,rev?*
G04 #@! TF.SameCoordinates,Original*
G04 #@! TF.FileFunction,Legend,Top*
G04 #@! TF.FilePolarity,Positive*
%FSLAX46Y46*%
G04 Gerber Fmt 4.6, Leading zero omitted, Abs format (unit mm)*
G04 Created by KiCad (PCBNEW (6.0.10)) date 2023-07-30 21:36:38*
%MOMM*%
%LPD*%
G01*
G04 APERTURE LIST*
G04 Aperture macros list*
%AMRotRect*
0 Rectangle, with rotation*
0 The origin of the aperture is its center*
0 $1 length*
0 $2 width*
0 $3 Rotation angle, in degrees counterclockwise*
0 Add horizontal line*
21,1,$1,$2,0,0,$3*%
G04 Aperture macros list end*
%ADD10C,0.125000*%
%ADD11C,0.025000*%
%ADD12C,0.150000*%
%ADD13C,0.098425*%
%ADD14C,0.254000*%
%ADD15C,0.120000*%
%ADD16C,0.200000*%
%ADD17C,0.127000*%
%ADD18C,0.400000*%
%ADD19R,4.500000X1.200000*%
%ADD20R,3.000000X1.600000*%
%ADD21R,0.600000X0.500000*%
%ADD22RotRect,0.600000X0.500000X45.000000*%
%ADD23RotRect,0.400000X0.600000X225.000000*%
%ADD24R,0.970000X1.000000*%
%ADD25RotRect,0.400000X0.600000X315.000000*%
%ADD26C,2.200000*%
%ADD27RotRect,0.400000X0.600000X135.000000*%
%ADD28R,1.300000X4.800000*%
%ADD29R,1.800000X3.900000*%
%ADD30RotRect,0.600000X0.500000X315.000000*%
%ADD31RotRect,0.600000X0.500000X225.000000*%
%ADD32RotRect,0.400000X0.600000X45.000000*%
%ADD33R,0.600000X0.400000*%
%ADD34RotRect,0.400000X0.600000X77.500000*%
%ADD35R,0.400000X0.600000*%
%ADD36R,3.500000X2.500000*%
%ADD37RotRect,0.280000X1.560000X45.000000*%
%ADD38RotRect,1.560000X0.280000X45.000000*%
%ADD39RotRect,0.600000X0.500000X135.000000*%
%ADD40R,1.200000X4.500000*%
%ADD41R,1.600000X3.700000*%
%ADD42RotRect,0.400000X0.600000X78.750000*%
G04 APERTURE END LIST*
D10*
X150105634Y-130385889D02*
X149869932Y-130150186D01*
X149752081Y-130032335D02*
X149752081Y-130066007D01*
X149785752Y-130066007D01*
X149785752Y-130032335D01*
X149752081Y-130032335D01*
X149785752Y-130066007D01*
X150038290Y-129981828D02*
X150273993Y-130217530D01*
X150071962Y-130015499D02*
X150071962Y-129981828D01*
X150088798Y-129931320D01*
X150139306Y-129880812D01*
X150189813Y-129863977D01*
X150240321Y-129880812D01*
X150425516Y-130066007D01*
X150560203Y-129897648D02*
X150610710Y-129880812D01*
X150678054Y-129813469D01*
X150694890Y-129762961D01*
X150678054Y-129712454D01*
X150661218Y-129695618D01*
X150610710Y-129678782D01*
X150560203Y-129695618D01*
X150509695Y-129746125D01*
X150459187Y-129762961D01*
X150408680Y-129746125D01*
X150391844Y-129729290D01*
X150375008Y-129678782D01*
X150391844Y-129628274D01*
X150442351Y-129577767D01*
X150492859Y-129560931D01*
X150593874Y-129426244D02*
X150728561Y-129291557D01*
X150526531Y-129257885D02*
X150829577Y-129560931D01*
X150880084Y-129577767D01*
X150930592Y-129560931D01*
X150964264Y-129527259D01*
X151082115Y-129409408D02*
X150846413Y-129173706D01*
X150728561Y-129055854D02*
X150728561Y-129089526D01*
X150762233Y-129089526D01*
X150762233Y-129055854D01*
X150728561Y-129055854D01*
X150762233Y-129089526D01*
X151014771Y-129005347D02*
X151250474Y-129241049D01*
X151048443Y-129039019D02*
X151048443Y-129005347D01*
X151065279Y-128954839D01*
X151115787Y-128904332D01*
X151166294Y-128887496D01*
X151216802Y-128904332D01*
X151401996Y-129089526D01*
X151705042Y-128752809D02*
X151688206Y-128803316D01*
X151620863Y-128870660D01*
X151570355Y-128887496D01*
X151536683Y-128887496D01*
X151486176Y-128870660D01*
X151385161Y-128769645D01*
X151368325Y-128719137D01*
X151368325Y-128685465D01*
X151385161Y-128634958D01*
X151452504Y-128567614D01*
X151503012Y-128550778D01*
X151587191Y-128432927D02*
X151721878Y-128298240D01*
X151519848Y-128264568D02*
X151822893Y-128567614D01*
X151873401Y-128584450D01*
X151923909Y-128567614D01*
X151957580Y-128533942D01*
X152311134Y-128146717D02*
X152361641Y-128129881D01*
X152428985Y-128062538D01*
X152445821Y-128012030D01*
X152428985Y-127961523D01*
X152412149Y-127944687D01*
X152361641Y-127927851D01*
X152311134Y-127944687D01*
X152260626Y-127995194D01*
X152210118Y-128012030D01*
X152159611Y-127995194D01*
X152142775Y-127978358D01*
X152125939Y-127927851D01*
X152142775Y-127877343D01*
X152193283Y-127826836D01*
X152243790Y-127810000D01*
X152782538Y-127708984D02*
X152597344Y-127523790D01*
X152546836Y-127506954D01*
X152496328Y-127523790D01*
X152428985Y-127591133D01*
X152412149Y-127641641D01*
X152765702Y-127692149D02*
X152748866Y-127742656D01*
X152664687Y-127826836D01*
X152614179Y-127843671D01*
X152563672Y-127826836D01*
X152530000Y-127793164D01*
X152513164Y-127742656D01*
X152530000Y-127692149D01*
X152614179Y-127607969D01*
X152631015Y-127557462D01*
X152681523Y-127338595D02*
X153001405Y-127490118D01*
X152849882Y-127170236D02*
X153001405Y-127490118D01*
X153051912Y-127607969D01*
X153051912Y-127641641D01*
X153035076Y-127692149D01*
X153186599Y-127271252D02*
X153237107Y-127254416D01*
X153304450Y-127187072D01*
X153321286Y-127136565D01*
X153304450Y-127086057D01*
X153287614Y-127069221D01*
X153237107Y-127052385D01*
X153186599Y-127069221D01*
X153136092Y-127119729D01*
X153085584Y-127136565D01*
X153035076Y-127119729D01*
X153018240Y-127102893D01*
X153001405Y-127052385D01*
X153018240Y-127001878D01*
X153068748Y-126951370D01*
X153119256Y-126934534D01*
X153540153Y-126479965D02*
X153775855Y-126715668D01*
X153573824Y-126513637D02*
X153573824Y-126479965D01*
X153590660Y-126429458D01*
X153641168Y-126378950D01*
X153691676Y-126362114D01*
X153742183Y-126378950D01*
X153927378Y-126564145D01*
X154146244Y-126345278D02*
X154095737Y-126362114D01*
X154062065Y-126362114D01*
X154011557Y-126345278D01*
X153910542Y-126244263D01*
X153893706Y-126193756D01*
X153893706Y-126160084D01*
X153910542Y-126109576D01*
X153961050Y-126059069D01*
X154011557Y-126042233D01*
X154045229Y-126042233D01*
X154095737Y-126059069D01*
X154196752Y-126160084D01*
X154213588Y-126210591D01*
X154213588Y-126244263D01*
X154196752Y-126294771D01*
X154146244Y-126345278D01*
X154836515Y-125655008D02*
X154651320Y-125469813D01*
X154600813Y-125452977D01*
X154550305Y-125469813D01*
X154482962Y-125537156D01*
X154466126Y-125587664D01*
X154819679Y-125638172D02*
X154802843Y-125688679D01*
X154718664Y-125772859D01*
X154668156Y-125789695D01*
X154617649Y-125772859D01*
X154583977Y-125739187D01*
X154567141Y-125688679D01*
X154583977Y-125638172D01*
X154668156Y-125553992D01*
X154684992Y-125503485D01*
X154971202Y-125486649D02*
X155021710Y-125469813D01*
X155089053Y-125402469D01*
X155105889Y-125351962D01*
X155089053Y-125301454D01*
X155072217Y-125284618D01*
X155021710Y-125267782D01*
X154971202Y-125284618D01*
X154920694Y-125335126D01*
X154870187Y-125351962D01*
X154819679Y-125335126D01*
X154802843Y-125318290D01*
X154786007Y-125267782D01*
X154802843Y-125217275D01*
X154853351Y-125166767D01*
X154903859Y-125149931D01*
X155610965Y-124880557D02*
X155560458Y-124897393D01*
X155526786Y-124897393D01*
X155476278Y-124880557D01*
X155375263Y-124779542D01*
X155358427Y-124729034D01*
X155358427Y-124695363D01*
X155375263Y-124644855D01*
X155425771Y-124594347D01*
X155476278Y-124577512D01*
X155509950Y-124577512D01*
X155560458Y-124594347D01*
X155661473Y-124695363D01*
X155678309Y-124745870D01*
X155678309Y-124779542D01*
X155661473Y-124830050D01*
X155610965Y-124880557D01*
X155644637Y-124375481D02*
X155880339Y-124611183D01*
X155678309Y-124409153D02*
X155678309Y-124375481D01*
X155695145Y-124324973D01*
X155745652Y-124274466D01*
X155796160Y-124257630D01*
X155846668Y-124274466D01*
X156031862Y-124459660D01*
X156250729Y-124240794D02*
X156200221Y-124257630D01*
X156149713Y-124240794D01*
X155846668Y-123937748D01*
X156116042Y-123904076D02*
X156435923Y-124055599D01*
X156284400Y-123735718D02*
X156435923Y-124055599D01*
X156486431Y-124173451D01*
X156486431Y-124207122D01*
X156469595Y-124257630D01*
X156839984Y-123180134D02*
X157075687Y-123415836D01*
X156688461Y-123331657D02*
X156873656Y-123516851D01*
X156924164Y-123533687D01*
X156974671Y-123516851D01*
X157025179Y-123466344D01*
X157042015Y-123415836D01*
X157042015Y-123382164D01*
X157210374Y-123247477D02*
X157260881Y-123230641D01*
X157328225Y-123163298D01*
X157345061Y-123112790D01*
X157328225Y-123062283D01*
X157311389Y-123045447D01*
X157260881Y-123028611D01*
X157210374Y-123045447D01*
X157159866Y-123095954D01*
X157109358Y-123112790D01*
X157058851Y-123095954D01*
X157042015Y-123079119D01*
X157025179Y-123028611D01*
X157042015Y-122978103D01*
X157092522Y-122927596D01*
X157143030Y-122910760D01*
X157648106Y-122809745D02*
X157631270Y-122860252D01*
X157563927Y-122927596D01*
X157513419Y-122944432D01*
X157462912Y-122927596D01*
X157328225Y-122792909D01*
X157311389Y-122742401D01*
X157328225Y-122691893D01*
X157395568Y-122624550D01*
X157446076Y-122607714D01*
X157496583Y-122624550D01*
X157530255Y-122658222D01*
X157395568Y-122860252D01*
X157984824Y-122506699D02*
X157631270Y-122153145D01*
X157967988Y-122489863D02*
X157951152Y-122540371D01*
X157883809Y-122607714D01*
X157833301Y-122624550D01*
X157799629Y-122624550D01*
X157749122Y-122607714D01*
X157648106Y-122506699D01*
X157631270Y-122456191D01*
X157631270Y-122422519D01*
X157648106Y-122372012D01*
X157715450Y-122304668D01*
X157765957Y-122287832D01*
X158422557Y-122068966D02*
X158186854Y-121833264D01*
X158069003Y-121715413D02*
X158069003Y-121749084D01*
X158102675Y-121749084D01*
X158102675Y-121715413D01*
X158069003Y-121715413D01*
X158102675Y-121749084D01*
X158355213Y-121664905D02*
X158590915Y-121900607D01*
X158388885Y-121698577D02*
X158388885Y-121664905D01*
X158405721Y-121614397D01*
X158456228Y-121563890D01*
X158506736Y-121547054D01*
X158557244Y-121563890D01*
X158742438Y-121749084D01*
X158944469Y-121075649D02*
X159298022Y-121429203D01*
X158961305Y-121092485D02*
X158978141Y-121041978D01*
X159045484Y-120974634D01*
X159095992Y-120957798D01*
X159129663Y-120957798D01*
X159180171Y-120974634D01*
X159281186Y-121075649D01*
X159298022Y-121126157D01*
X159298022Y-121159829D01*
X159281186Y-121210336D01*
X159213843Y-121277680D01*
X159163335Y-121294516D01*
X159500053Y-120991470D02*
X159264350Y-120755768D01*
X159331694Y-120823111D02*
X159314858Y-120772604D01*
X159314858Y-120738932D01*
X159331694Y-120688424D01*
X159365366Y-120654752D01*
X159769427Y-120722096D02*
X159718919Y-120738932D01*
X159685247Y-120738932D01*
X159634740Y-120722096D01*
X159533724Y-120621081D01*
X159516889Y-120570573D01*
X159516889Y-120536901D01*
X159533724Y-120486394D01*
X159584232Y-120435886D01*
X159634740Y-120419050D01*
X159668411Y-120419050D01*
X159718919Y-120435886D01*
X159819934Y-120536901D01*
X159836770Y-120587409D01*
X159836770Y-120621081D01*
X159819934Y-120671588D01*
X159769427Y-120722096D01*
X159954621Y-120065497D02*
X160240831Y-120351707D01*
X160257667Y-120402214D01*
X160257667Y-120435886D01*
X160240831Y-120486394D01*
X160190324Y-120536901D01*
X160139816Y-120553737D01*
X160173488Y-120284363D02*
X160156652Y-120334871D01*
X160089308Y-120402214D01*
X160038801Y-120419050D01*
X160005129Y-120419050D01*
X159954621Y-120402214D01*
X159853606Y-120301199D01*
X159836770Y-120250691D01*
X159836770Y-120217020D01*
X159853606Y-120166512D01*
X159920950Y-120099169D01*
X159971457Y-120082333D01*
X160358682Y-120132840D02*
X160122980Y-119897138D01*
X160190324Y-119964482D02*
X160173488Y-119913974D01*
X160173488Y-119880302D01*
X160190324Y-119829795D01*
X160223995Y-119796123D01*
X160729072Y-119762451D02*
X160543877Y-119577256D01*
X160493369Y-119560421D01*
X160442862Y-119577256D01*
X160375518Y-119644600D01*
X160358682Y-119695108D01*
X160712236Y-119745615D02*
X160695400Y-119796123D01*
X160611220Y-119880302D01*
X160560713Y-119897138D01*
X160510205Y-119880302D01*
X160476533Y-119846630D01*
X160459698Y-119796123D01*
X160476533Y-119745615D01*
X160560713Y-119661436D01*
X160577549Y-119610928D01*
X160897430Y-119594092D02*
X160661728Y-119358390D01*
X160695400Y-119392062D02*
X160695400Y-119358390D01*
X160712236Y-119307882D01*
X160762743Y-119257375D01*
X160813251Y-119240539D01*
X160863759Y-119257375D01*
X161048953Y-119442569D01*
X160863759Y-119257375D02*
X160846923Y-119206867D01*
X160863759Y-119156360D01*
X160914266Y-119105852D01*
X160964774Y-119089016D01*
X161015281Y-119105852D01*
X161200476Y-119291047D01*
X161368835Y-119122688D02*
X161133133Y-118886986D01*
X161166804Y-118920657D02*
X161166804Y-118886986D01*
X161183640Y-118836478D01*
X161234148Y-118785970D01*
X161284655Y-118769134D01*
X161335163Y-118785970D01*
X161520358Y-118971165D01*
X161335163Y-118785970D02*
X161318327Y-118735463D01*
X161335163Y-118684955D01*
X161385671Y-118634447D01*
X161436178Y-118617612D01*
X161486686Y-118634447D01*
X161671881Y-118819642D01*
X161840239Y-118651283D02*
X161604537Y-118415581D01*
X161486686Y-118297730D02*
X161486686Y-118331402D01*
X161520358Y-118331402D01*
X161520358Y-118297730D01*
X161486686Y-118297730D01*
X161520358Y-118331402D01*
X161772896Y-118247222D02*
X162008598Y-118482925D01*
X161806568Y-118280894D02*
X161806568Y-118247222D01*
X161823404Y-118196715D01*
X161873911Y-118146207D01*
X161924419Y-118129371D01*
X161974926Y-118146207D01*
X162160121Y-118331402D01*
X162244300Y-117775818D02*
X162530510Y-118062028D01*
X162547346Y-118112535D01*
X162547346Y-118146207D01*
X162530510Y-118196715D01*
X162480003Y-118247222D01*
X162429495Y-118264058D01*
X162463167Y-117994684D02*
X162446331Y-118045192D01*
X162378987Y-118112535D01*
X162328480Y-118129371D01*
X162294808Y-118129371D01*
X162244300Y-118112535D01*
X162143285Y-118011520D01*
X162126449Y-117961012D01*
X162126449Y-117927341D01*
X162143285Y-117876833D01*
X162210629Y-117809489D01*
X162261136Y-117792654D01*
X150368269Y-128471302D02*
X150418776Y-128454466D01*
X150486120Y-128387123D01*
X150502956Y-128336615D01*
X150486120Y-128286108D01*
X150469284Y-128269272D01*
X150418776Y-128252436D01*
X150368269Y-128269272D01*
X150317761Y-128319779D01*
X150267253Y-128336615D01*
X150216746Y-128319779D01*
X150199910Y-128302943D01*
X150183074Y-128252436D01*
X150199910Y-128201928D01*
X150250418Y-128151421D01*
X150300925Y-128134585D01*
X150688150Y-128185092D02*
X150334597Y-127831539D01*
X150839673Y-128033569D02*
X150654479Y-127848375D01*
X150603971Y-127831539D01*
X150553463Y-127848375D01*
X150502956Y-127898882D01*
X150486120Y-127949390D01*
X150486120Y-127983062D01*
X151058540Y-127814703D02*
X151008032Y-127831539D01*
X150974360Y-127831539D01*
X150923853Y-127814703D01*
X150822837Y-127713688D01*
X150806001Y-127663180D01*
X150806001Y-127629508D01*
X150822837Y-127579001D01*
X150873345Y-127528493D01*
X150923853Y-127511657D01*
X150957524Y-127511657D01*
X151008032Y-127528493D01*
X151109047Y-127629508D01*
X151125883Y-127680016D01*
X151125883Y-127713688D01*
X151109047Y-127764195D01*
X151058540Y-127814703D01*
X151243734Y-127158104D02*
X151479437Y-127393806D01*
X151092211Y-127309627D02*
X151277406Y-127494821D01*
X151327914Y-127511657D01*
X151378421Y-127494821D01*
X151428929Y-127444314D01*
X151445765Y-127393806D01*
X151445765Y-127360134D01*
X151698303Y-127174940D02*
X151647795Y-127191776D01*
X151597288Y-127174940D01*
X151294242Y-126871894D01*
X151984513Y-126888730D02*
X151630959Y-126535176D01*
X151967677Y-126871894D02*
X151950841Y-126922402D01*
X151883498Y-126989745D01*
X151832990Y-127006581D01*
X151799318Y-127006581D01*
X151748811Y-126989745D01*
X151647795Y-126888730D01*
X151630959Y-126838222D01*
X151630959Y-126804550D01*
X151647795Y-126754043D01*
X151715139Y-126686699D01*
X151765646Y-126669863D01*
X152422246Y-126450997D02*
X152068692Y-126097444D01*
X152624276Y-125777562D02*
X152977829Y-126131115D01*
X152641112Y-125794398D02*
X152657948Y-125743890D01*
X152725291Y-125676547D01*
X152775799Y-125659711D01*
X152809471Y-125659711D01*
X152859978Y-125676547D01*
X152960994Y-125777562D01*
X152977829Y-125828070D01*
X152977829Y-125861741D01*
X152960994Y-125912249D01*
X152893650Y-125979593D01*
X152843142Y-125996428D01*
X153095681Y-125306158D02*
X153331383Y-125541860D01*
X152944158Y-125457680D02*
X153129352Y-125642875D01*
X153179860Y-125659711D01*
X153230368Y-125642875D01*
X153280875Y-125592367D01*
X153297711Y-125541860D01*
X153297711Y-125508188D01*
X153213532Y-125188306D02*
X153348219Y-125053619D01*
X153146188Y-125019948D02*
X153449234Y-125322993D01*
X153499742Y-125339829D01*
X153550249Y-125322993D01*
X153583921Y-125289322D01*
X154122669Y-124750574D02*
X153937474Y-124565379D01*
X153886967Y-124548543D01*
X153836459Y-124565379D01*
X153769116Y-124632723D01*
X153752280Y-124683230D01*
X154105833Y-124733738D02*
X154088997Y-124784245D01*
X154004818Y-124868425D01*
X153954310Y-124885261D01*
X153903803Y-124868425D01*
X153870131Y-124834753D01*
X153853295Y-124784245D01*
X153870131Y-124733738D01*
X153954310Y-124649558D01*
X153971146Y-124599051D01*
X154711925Y-124161318D02*
X154358371Y-123807765D01*
X154695089Y-124144482D02*
X154678253Y-124194990D01*
X154610909Y-124262333D01*
X154560402Y-124279169D01*
X154526730Y-124279169D01*
X154476222Y-124262333D01*
X154375207Y-124161318D01*
X154358371Y-124110810D01*
X154358371Y-124077139D01*
X154375207Y-124026631D01*
X154442551Y-123959287D01*
X154493058Y-123942452D01*
X154880283Y-123992959D02*
X154644581Y-123757257D01*
X154526730Y-123639406D02*
X154526730Y-123673078D01*
X154560402Y-123673078D01*
X154560402Y-123639406D01*
X154526730Y-123639406D01*
X154560402Y-123673078D01*
X155048642Y-123824600D02*
X154812940Y-123588898D01*
X154880283Y-123656242D02*
X154863448Y-123605734D01*
X154863448Y-123572062D01*
X154880283Y-123521555D01*
X154913955Y-123487883D01*
X155385360Y-123454211D02*
X155368524Y-123504719D01*
X155301180Y-123572062D01*
X155250673Y-123588898D01*
X155200165Y-123572062D01*
X155065478Y-123437375D01*
X155048642Y-123386868D01*
X155065478Y-123336360D01*
X155132822Y-123269017D01*
X155183329Y-123252181D01*
X155233837Y-123269017D01*
X155267509Y-123302688D01*
X155132822Y-123504719D01*
X155705241Y-123134330D02*
X155688405Y-123184837D01*
X155621062Y-123252181D01*
X155570554Y-123269017D01*
X155536883Y-123269017D01*
X155486375Y-123252181D01*
X155385360Y-123151165D01*
X155368524Y-123100658D01*
X155368524Y-123066986D01*
X155385360Y-123016478D01*
X155452703Y-122949135D01*
X155503211Y-122932299D01*
X155587390Y-122814448D02*
X155722077Y-122679761D01*
X155520047Y-122646089D02*
X155823092Y-122949135D01*
X155873600Y-122965971D01*
X155924108Y-122949135D01*
X155957779Y-122915463D01*
X156345005Y-122528238D02*
X156109302Y-122292536D01*
X156176646Y-122359879D02*
X156159810Y-122309372D01*
X156159810Y-122275700D01*
X156176646Y-122225192D01*
X156210318Y-122191521D01*
X156614379Y-122258864D02*
X156563871Y-122275700D01*
X156530199Y-122275700D01*
X156479692Y-122258864D01*
X156378676Y-122157849D01*
X156361840Y-122107341D01*
X156361840Y-122073669D01*
X156378676Y-122023162D01*
X156429184Y-121972654D01*
X156479692Y-121955818D01*
X156513363Y-121955818D01*
X156563871Y-121972654D01*
X156664886Y-122073669D01*
X156681722Y-122124177D01*
X156681722Y-122157849D01*
X156664886Y-122208356D01*
X156614379Y-122258864D01*
X156799573Y-121602265D02*
X157035275Y-121837967D01*
X156648050Y-121753788D02*
X156833245Y-121938982D01*
X156883753Y-121955818D01*
X156934260Y-121938982D01*
X156984768Y-121888475D01*
X157001604Y-121837967D01*
X157001604Y-121804295D01*
X156917424Y-121484414D02*
X157052111Y-121349727D01*
X156850081Y-121316055D02*
X157153127Y-121619101D01*
X157203634Y-121635937D01*
X157254142Y-121619101D01*
X157287814Y-121585429D01*
X157523516Y-121316055D02*
X157506680Y-121366563D01*
X157439337Y-121433906D01*
X157388829Y-121450742D01*
X157338321Y-121433906D01*
X157203634Y-121299219D01*
X157186798Y-121248711D01*
X157203634Y-121198204D01*
X157270978Y-121130860D01*
X157321485Y-121114024D01*
X157371993Y-121130860D01*
X157405665Y-121164532D01*
X157270978Y-121366563D01*
X157691875Y-120709963D02*
X157826562Y-120575276D01*
X157624531Y-120541605D02*
X157927577Y-120844650D01*
X157978085Y-120861486D01*
X158028592Y-120844650D01*
X158062264Y-120810979D01*
X158230623Y-120642620D02*
X158180115Y-120659456D01*
X158146443Y-120659456D01*
X158095936Y-120642620D01*
X157994920Y-120541605D01*
X157978085Y-120491097D01*
X157978085Y-120457425D01*
X157994920Y-120406918D01*
X158045428Y-120356410D01*
X158095936Y-120339574D01*
X158129607Y-120339574D01*
X158180115Y-120356410D01*
X158281130Y-120457425D01*
X158297966Y-120507933D01*
X158297966Y-120541605D01*
X158281130Y-120592112D01*
X158230623Y-120642620D01*
X158685191Y-119716647D02*
X158971401Y-120002857D01*
X158988237Y-120053364D01*
X158988237Y-120087036D01*
X158971401Y-120137544D01*
X158920894Y-120188051D01*
X158870386Y-120204887D01*
X158904058Y-119935513D02*
X158887222Y-119986021D01*
X158819878Y-120053364D01*
X158769371Y-120070200D01*
X158735699Y-120070200D01*
X158685191Y-120053364D01*
X158584176Y-119952349D01*
X158567340Y-119901841D01*
X158567340Y-119868170D01*
X158584176Y-119817662D01*
X158651520Y-119750319D01*
X158702027Y-119733483D01*
X158853550Y-119548288D02*
X159089252Y-119783990D01*
X158887222Y-119581960D02*
X158887222Y-119548288D01*
X158904058Y-119497780D01*
X158954565Y-119447273D01*
X159005073Y-119430437D01*
X159055581Y-119447273D01*
X159240775Y-119632467D01*
X159560657Y-119312586D02*
X159207103Y-118959032D01*
X159543821Y-119295750D02*
X159526985Y-119346258D01*
X159459642Y-119413601D01*
X159409134Y-119430437D01*
X159375462Y-119430437D01*
X159324955Y-119413601D01*
X159223939Y-119312586D01*
X159207103Y-119262078D01*
X159207103Y-119228406D01*
X159223939Y-119177899D01*
X159291283Y-119110555D01*
X159341790Y-119093719D01*
X159998390Y-118874853D02*
X159644836Y-118521300D01*
X160149913Y-118723330D02*
X159964718Y-118538135D01*
X159914210Y-118521300D01*
X159863703Y-118538135D01*
X159813195Y-118588643D01*
X159796359Y-118639151D01*
X159796359Y-118672823D01*
X160436122Y-118403448D02*
X160419287Y-118453956D01*
X160351943Y-118521300D01*
X160301435Y-118538135D01*
X160250928Y-118521300D01*
X160116241Y-118386613D01*
X160099405Y-118336105D01*
X160116241Y-118285597D01*
X160183584Y-118218254D01*
X160234092Y-118201418D01*
X160284600Y-118218254D01*
X160318271Y-118251926D01*
X160183584Y-118453956D01*
X160621317Y-118251926D02*
X160385615Y-118016223D01*
X160452958Y-118083567D02*
X160436122Y-118033059D01*
X160436122Y-117999387D01*
X160452958Y-117948880D01*
X160486630Y-117915208D01*
X160958035Y-117881536D02*
X160941199Y-117932044D01*
X160873855Y-117999387D01*
X160823348Y-118016223D01*
X160772840Y-117999387D01*
X160638153Y-117864700D01*
X160621317Y-117814193D01*
X160638153Y-117763685D01*
X160705496Y-117696342D01*
X160756004Y-117679506D01*
X160806512Y-117696342D01*
X160840183Y-117730013D01*
X160705496Y-117932044D01*
X161160065Y-117645834D02*
X161193737Y-117645834D01*
X161193737Y-117679506D01*
X161160065Y-117679506D01*
X161160065Y-117645834D01*
X161193737Y-117679506D01*
X160789676Y-117410132D02*
X160806512Y-117359624D01*
X160890691Y-117275445D01*
X160941199Y-117258609D01*
X160991706Y-117275445D01*
X161025378Y-117309117D01*
X161042214Y-117359624D01*
X161042214Y-117393296D01*
X161025378Y-117443804D01*
X161025378Y-117477475D01*
X161042214Y-117527983D01*
X161059050Y-117544819D01*
X112359682Y-89688560D02*
X112123980Y-89452858D01*
X112006129Y-89335007D02*
X112006129Y-89368679D01*
X112039801Y-89368679D01*
X112039801Y-89335007D01*
X112006129Y-89335007D01*
X112039801Y-89368679D01*
X112292339Y-89284499D02*
X112528041Y-89520201D01*
X112326011Y-89318171D02*
X112326011Y-89284499D01*
X112342847Y-89233992D01*
X112393354Y-89183484D01*
X112443862Y-89166648D01*
X112494369Y-89183484D01*
X112679564Y-89368679D01*
X112814251Y-89200320D02*
X112864759Y-89183484D01*
X112932102Y-89116140D01*
X112948938Y-89065633D01*
X112932102Y-89015125D01*
X112915266Y-88998289D01*
X112864759Y-88981453D01*
X112814251Y-88998289D01*
X112763743Y-89048797D01*
X112713236Y-89065633D01*
X112662728Y-89048797D01*
X112645892Y-89031961D01*
X112629056Y-88981453D01*
X112645892Y-88930946D01*
X112696400Y-88880438D01*
X112746908Y-88863602D01*
X112847923Y-88728915D02*
X112982610Y-88594228D01*
X112780579Y-88560557D02*
X113083625Y-88863602D01*
X113134133Y-88880438D01*
X113184640Y-88863602D01*
X113218312Y-88829931D01*
X113336163Y-88712079D02*
X113100461Y-88476377D01*
X112982610Y-88358526D02*
X112982610Y-88392198D01*
X113016282Y-88392198D01*
X113016282Y-88358526D01*
X112982610Y-88358526D01*
X113016282Y-88392198D01*
X113268820Y-88308018D02*
X113504522Y-88543721D01*
X113302491Y-88341690D02*
X113302491Y-88308018D01*
X113319327Y-88257511D01*
X113369835Y-88207003D01*
X113420343Y-88190167D01*
X113470850Y-88207003D01*
X113656045Y-88392198D01*
X113959091Y-88055480D02*
X113942255Y-88105988D01*
X113874911Y-88173331D01*
X113824404Y-88190167D01*
X113790732Y-88190167D01*
X113740224Y-88173331D01*
X113639209Y-88072316D01*
X113622373Y-88021809D01*
X113622373Y-87988137D01*
X113639209Y-87937629D01*
X113706552Y-87870286D01*
X113757060Y-87853450D01*
X113841239Y-87735599D02*
X113975926Y-87600912D01*
X113773896Y-87567240D02*
X114076942Y-87870286D01*
X114127449Y-87887122D01*
X114177957Y-87870286D01*
X114211629Y-87836614D01*
X114565182Y-87449389D02*
X114615690Y-87432553D01*
X114683033Y-87365209D01*
X114699869Y-87314702D01*
X114683033Y-87264194D01*
X114666197Y-87247358D01*
X114615690Y-87230522D01*
X114565182Y-87247358D01*
X114514675Y-87297866D01*
X114464167Y-87314702D01*
X114413659Y-87297866D01*
X114396823Y-87281030D01*
X114379988Y-87230522D01*
X114396823Y-87180015D01*
X114447331Y-87129507D01*
X114497839Y-87112671D01*
X115036587Y-87011656D02*
X114851392Y-86826461D01*
X114800884Y-86809625D01*
X114750377Y-86826461D01*
X114683033Y-86893805D01*
X114666197Y-86944312D01*
X115019751Y-86994820D02*
X115002915Y-87045328D01*
X114918736Y-87129507D01*
X114868228Y-87146343D01*
X114817720Y-87129507D01*
X114784049Y-87095835D01*
X114767213Y-87045328D01*
X114784049Y-86994820D01*
X114868228Y-86910641D01*
X114885064Y-86860133D01*
X114935571Y-86641267D02*
X115255453Y-86792790D01*
X115103930Y-86472908D02*
X115255453Y-86792790D01*
X115305961Y-86910641D01*
X115305961Y-86944312D01*
X115289125Y-86994820D01*
X115440648Y-86573923D02*
X115491155Y-86557087D01*
X115558499Y-86489744D01*
X115575335Y-86439236D01*
X115558499Y-86388729D01*
X115541663Y-86371893D01*
X115491155Y-86355057D01*
X115440648Y-86371893D01*
X115390140Y-86422400D01*
X115339632Y-86439236D01*
X115289125Y-86422400D01*
X115272289Y-86405564D01*
X115255453Y-86355057D01*
X115272289Y-86304549D01*
X115322797Y-86254042D01*
X115373304Y-86237206D01*
X115760529Y-85816309D02*
X116080411Y-85967832D01*
X115928888Y-85647950D02*
X116080411Y-85967832D01*
X116130919Y-86085683D01*
X116130919Y-86119355D01*
X116114083Y-86169862D01*
X116417128Y-85597442D02*
X116400293Y-85647950D01*
X116332949Y-85715294D01*
X116282441Y-85732129D01*
X116231934Y-85715294D01*
X116097247Y-85580607D01*
X116080411Y-85530099D01*
X116097247Y-85479591D01*
X116164590Y-85412248D01*
X116215098Y-85395412D01*
X116265606Y-85412248D01*
X116299277Y-85445920D01*
X116164590Y-85647950D01*
X116568651Y-85445920D02*
X116619159Y-85429084D01*
X116686502Y-85361740D01*
X116703338Y-85311233D01*
X116686502Y-85260725D01*
X116669667Y-85243889D01*
X116619159Y-85227053D01*
X116568651Y-85243889D01*
X116518144Y-85294397D01*
X116467636Y-85311233D01*
X116417128Y-85294397D01*
X116400293Y-85277561D01*
X116383457Y-85227053D01*
X116400293Y-85176546D01*
X116450800Y-85126038D01*
X116501308Y-85109202D01*
D11*
X141797209Y-102334145D02*
X141787686Y-102338907D01*
X141768638Y-102338907D01*
X141759114Y-102334145D01*
X141754352Y-102329383D01*
X141749590Y-102319859D01*
X141749590Y-102291288D01*
X141754352Y-102281764D01*
X141759114Y-102277002D01*
X141768638Y-102272240D01*
X141787686Y-102272240D01*
X141797209Y-102277002D01*
X141882924Y-102338907D02*
X141882924Y-102286526D01*
X141878162Y-102277002D01*
X141868638Y-102272240D01*
X141849590Y-102272240D01*
X141840066Y-102277002D01*
X141882924Y-102334145D02*
X141873400Y-102338907D01*
X141849590Y-102338907D01*
X141840066Y-102334145D01*
X141835305Y-102324621D01*
X141835305Y-102315097D01*
X141840066Y-102305573D01*
X141849590Y-102300811D01*
X141873400Y-102300811D01*
X141882924Y-102296049D01*
X141930543Y-102272240D02*
X141930543Y-102338907D01*
X141930543Y-102281764D02*
X141935305Y-102277002D01*
X141944828Y-102272240D01*
X141959114Y-102272240D01*
X141968638Y-102277002D01*
X141973400Y-102286526D01*
X141973400Y-102338907D01*
X142097209Y-102338907D02*
X142097209Y-102272240D01*
X142097209Y-102238907D02*
X142092447Y-102243669D01*
X142097209Y-102248430D01*
X142101971Y-102243669D01*
X142097209Y-102238907D01*
X142097209Y-102248430D01*
X142216257Y-102334145D02*
X142225781Y-102338907D01*
X142244828Y-102338907D01*
X142254352Y-102334145D01*
X142259114Y-102324621D01*
X142259114Y-102319859D01*
X142254352Y-102310335D01*
X142244828Y-102305573D01*
X142230543Y-102305573D01*
X142221019Y-102300811D01*
X142216257Y-102291288D01*
X142216257Y-102286526D01*
X142221019Y-102277002D01*
X142230543Y-102272240D01*
X142244828Y-102272240D01*
X142254352Y-102277002D01*
X142301971Y-102338907D02*
X142301971Y-102238907D01*
X142344828Y-102338907D02*
X142344828Y-102286526D01*
X142340066Y-102277002D01*
X142330543Y-102272240D01*
X142316257Y-102272240D01*
X142306733Y-102277002D01*
X142301971Y-102281764D01*
X142435305Y-102338907D02*
X142435305Y-102286526D01*
X142430543Y-102277002D01*
X142421019Y-102272240D01*
X142401971Y-102272240D01*
X142392447Y-102277002D01*
X142435305Y-102334145D02*
X142425781Y-102338907D01*
X142401971Y-102338907D01*
X142392447Y-102334145D01*
X142387686Y-102324621D01*
X142387686Y-102315097D01*
X142392447Y-102305573D01*
X142401971Y-102300811D01*
X142425781Y-102300811D01*
X142435305Y-102296049D01*
X142482924Y-102338907D02*
X142482924Y-102272240D01*
X142482924Y-102291288D02*
X142487686Y-102281764D01*
X142492447Y-102277002D01*
X142501971Y-102272240D01*
X142511495Y-102272240D01*
X142582924Y-102334145D02*
X142573400Y-102338907D01*
X142554352Y-102338907D01*
X142544828Y-102334145D01*
X142540066Y-102324621D01*
X142540066Y-102286526D01*
X142544828Y-102277002D01*
X142554352Y-102272240D01*
X142573400Y-102272240D01*
X142582924Y-102277002D01*
X142587686Y-102286526D01*
X142587686Y-102296049D01*
X142540066Y-102305573D01*
X142697209Y-102272240D02*
X142721019Y-102338907D01*
X142744828Y-102272240D01*
X142782924Y-102338907D02*
X142782924Y-102272240D01*
X142782924Y-102238907D02*
X142778162Y-102243669D01*
X142782924Y-102248430D01*
X142787686Y-102243669D01*
X142782924Y-102238907D01*
X142782924Y-102248430D01*
X142873400Y-102338907D02*
X142873400Y-102286526D01*
X142868638Y-102277002D01*
X142859114Y-102272240D01*
X142840066Y-102272240D01*
X142830543Y-102277002D01*
X142873400Y-102334145D02*
X142863876Y-102338907D01*
X142840066Y-102338907D01*
X142830543Y-102334145D01*
X142825781Y-102324621D01*
X142825781Y-102315097D01*
X142830543Y-102305573D01*
X142840066Y-102300811D01*
X142863876Y-102300811D01*
X142873400Y-102296049D01*
X142997209Y-102338907D02*
X142997209Y-102238907D01*
X143040066Y-102338907D02*
X143040066Y-102286526D01*
X143035305Y-102277002D01*
X143025781Y-102272240D01*
X143011495Y-102272240D01*
X143001971Y-102277002D01*
X142997209Y-102281764D01*
X143125781Y-102334145D02*
X143116257Y-102338907D01*
X143097209Y-102338907D01*
X143087686Y-102334145D01*
X143082924Y-102324621D01*
X143082924Y-102286526D01*
X143087686Y-102277002D01*
X143097209Y-102272240D01*
X143116257Y-102272240D01*
X143125781Y-102277002D01*
X143130543Y-102286526D01*
X143130543Y-102296049D01*
X143082924Y-102305573D01*
X143173400Y-102338907D02*
X143173400Y-102272240D01*
X143173400Y-102291288D02*
X143178162Y-102281764D01*
X143182924Y-102277002D01*
X143192447Y-102272240D01*
X143201971Y-102272240D01*
X143273400Y-102334145D02*
X143263876Y-102338907D01*
X143244828Y-102338907D01*
X143235305Y-102334145D01*
X143230543Y-102324621D01*
X143230543Y-102286526D01*
X143235305Y-102277002D01*
X143244828Y-102272240D01*
X143263876Y-102272240D01*
X143273400Y-102277002D01*
X143278162Y-102286526D01*
X143278162Y-102296049D01*
X143230543Y-102305573D01*
X143411495Y-102338907D02*
X143401971Y-102334145D01*
X143397209Y-102329383D01*
X143392447Y-102319859D01*
X143392447Y-102291288D01*
X143397209Y-102281764D01*
X143401971Y-102277002D01*
X143411495Y-102272240D01*
X143425781Y-102272240D01*
X143435305Y-102277002D01*
X143440066Y-102281764D01*
X143444828Y-102291288D01*
X143444828Y-102319859D01*
X143440066Y-102329383D01*
X143435305Y-102334145D01*
X143425781Y-102338907D01*
X143411495Y-102338907D01*
X143487686Y-102338907D02*
X143487686Y-102272240D01*
X143487686Y-102291288D02*
X143492447Y-102281764D01*
X143497209Y-102277002D01*
X143506733Y-102272240D01*
X143516257Y-102272240D01*
X143625781Y-102338907D02*
X143625781Y-102272240D01*
X143625781Y-102238907D02*
X143621019Y-102243669D01*
X143625781Y-102248430D01*
X143630543Y-102243669D01*
X143625781Y-102238907D01*
X143625781Y-102248430D01*
X143668638Y-102334145D02*
X143678162Y-102338907D01*
X143697209Y-102338907D01*
X143706733Y-102334145D01*
X143711495Y-102324621D01*
X143711495Y-102319859D01*
X143706733Y-102310335D01*
X143697209Y-102305573D01*
X143682924Y-102305573D01*
X143673400Y-102300811D01*
X143668638Y-102291288D01*
X143668638Y-102286526D01*
X143673400Y-102277002D01*
X143682924Y-102272240D01*
X143697209Y-102272240D01*
X143706733Y-102277002D01*
X143825781Y-102334145D02*
X143835305Y-102338907D01*
X143854352Y-102338907D01*
X143863876Y-102334145D01*
X143868638Y-102324621D01*
X143868638Y-102319859D01*
X143863876Y-102310335D01*
X143854352Y-102305573D01*
X143840066Y-102305573D01*
X143830543Y-102300811D01*
X143825781Y-102291288D01*
X143825781Y-102286526D01*
X143830543Y-102277002D01*
X143840066Y-102272240D01*
X143854352Y-102272240D01*
X143863876Y-102277002D01*
X143949590Y-102334145D02*
X143940066Y-102338907D01*
X143921019Y-102338907D01*
X143911495Y-102334145D01*
X143906733Y-102324621D01*
X143906733Y-102286526D01*
X143911495Y-102277002D01*
X143921019Y-102272240D01*
X143940066Y-102272240D01*
X143949590Y-102277002D01*
X143954352Y-102286526D01*
X143954352Y-102296049D01*
X143906733Y-102305573D01*
X143997209Y-102272240D02*
X143997209Y-102372240D01*
X143997209Y-102277002D02*
X144006733Y-102272240D01*
X144025781Y-102272240D01*
X144035305Y-102277002D01*
X144040066Y-102281764D01*
X144044828Y-102291288D01*
X144044828Y-102319859D01*
X144040066Y-102329383D01*
X144035305Y-102334145D01*
X144025781Y-102338907D01*
X144006733Y-102338907D01*
X143997209Y-102334145D01*
X144125781Y-102334145D02*
X144116257Y-102338907D01*
X144097209Y-102338907D01*
X144087686Y-102334145D01*
X144082924Y-102324621D01*
X144082924Y-102286526D01*
X144087686Y-102277002D01*
X144097209Y-102272240D01*
X144116257Y-102272240D01*
X144125781Y-102277002D01*
X144130543Y-102286526D01*
X144130543Y-102296049D01*
X144082924Y-102305573D01*
X144173400Y-102338907D02*
X144173400Y-102272240D01*
X144173400Y-102291288D02*
X144178162Y-102281764D01*
X144182924Y-102277002D01*
X144192447Y-102272240D01*
X144201971Y-102272240D01*
X144278162Y-102338907D02*
X144278162Y-102286526D01*
X144273400Y-102277002D01*
X144263876Y-102272240D01*
X144244828Y-102272240D01*
X144235305Y-102277002D01*
X144278162Y-102334145D02*
X144268638Y-102338907D01*
X144244828Y-102338907D01*
X144235305Y-102334145D01*
X144230543Y-102324621D01*
X144230543Y-102315097D01*
X144235305Y-102305573D01*
X144244828Y-102300811D01*
X144268638Y-102300811D01*
X144278162Y-102296049D01*
X144311495Y-102272240D02*
X144349590Y-102272240D01*
X144325781Y-102238907D02*
X144325781Y-102324621D01*
X144330543Y-102334145D01*
X144340066Y-102338907D01*
X144349590Y-102338907D01*
X144421019Y-102334145D02*
X144411495Y-102338907D01*
X144392447Y-102338907D01*
X144382924Y-102334145D01*
X144378162Y-102324621D01*
X144378162Y-102286526D01*
X144382924Y-102277002D01*
X144392447Y-102272240D01*
X144411495Y-102272240D01*
X144421019Y-102277002D01*
X144425781Y-102286526D01*
X144425781Y-102296049D01*
X144378162Y-102305573D01*
X144544828Y-102338907D02*
X144544828Y-102238907D01*
X144544828Y-102277002D02*
X144554352Y-102272240D01*
X144573400Y-102272240D01*
X144582924Y-102277002D01*
X144587686Y-102281764D01*
X144592447Y-102291288D01*
X144592447Y-102319859D01*
X144587686Y-102329383D01*
X144582924Y-102334145D01*
X144573400Y-102338907D01*
X144554352Y-102338907D01*
X144544828Y-102334145D01*
X144673400Y-102334145D02*
X144663876Y-102338907D01*
X144644828Y-102338907D01*
X144635305Y-102334145D01*
X144630543Y-102324621D01*
X144630543Y-102286526D01*
X144635305Y-102277002D01*
X144644828Y-102272240D01*
X144663876Y-102272240D01*
X144673400Y-102277002D01*
X144678162Y-102286526D01*
X144678162Y-102296049D01*
X144630543Y-102305573D01*
X144706733Y-102272240D02*
X144744828Y-102272240D01*
X144721019Y-102238907D02*
X144721019Y-102324621D01*
X144725781Y-102334145D01*
X144735305Y-102338907D01*
X144744828Y-102338907D01*
X144763876Y-102272240D02*
X144801971Y-102272240D01*
X144778162Y-102238907D02*
X144778162Y-102324621D01*
X144782924Y-102334145D01*
X144792447Y-102338907D01*
X144801971Y-102338907D01*
X144873400Y-102334145D02*
X144863876Y-102338907D01*
X144844828Y-102338907D01*
X144835305Y-102334145D01*
X144830543Y-102324621D01*
X144830543Y-102286526D01*
X144835305Y-102277002D01*
X144844828Y-102272240D01*
X144863876Y-102272240D01*
X144873400Y-102277002D01*
X144878162Y-102286526D01*
X144878162Y-102296049D01*
X144830543Y-102305573D01*
X144921019Y-102338907D02*
X144921019Y-102272240D01*
X144921019Y-102291288D02*
X144925781Y-102281764D01*
X144930543Y-102277002D01*
X144940066Y-102272240D01*
X144949590Y-102272240D01*
X144997209Y-102329383D02*
X145001971Y-102334145D01*
X144997209Y-102338907D01*
X144992447Y-102334145D01*
X144997209Y-102329383D01*
X144997209Y-102338907D01*
X144978162Y-102243669D02*
X144987686Y-102238907D01*
X145011495Y-102238907D01*
X145021019Y-102243669D01*
X145025781Y-102253192D01*
X145025781Y-102262716D01*
X145021019Y-102272240D01*
X145016257Y-102277002D01*
X145006733Y-102281764D01*
X145001971Y-102286526D01*
X144997209Y-102296049D01*
X144997209Y-102300811D01*
D12*
X105121240Y-149647284D02*
X105835526Y-149647284D01*
X105978383Y-149694903D01*
X106073621Y-149790141D01*
X106121240Y-149932998D01*
X106121240Y-150028236D01*
X105454574Y-148742522D02*
X106121240Y-148742522D01*
X105073621Y-148980617D02*
X105787907Y-149218712D01*
X105787907Y-148599665D01*
X168812875Y-155919375D02*
X168779541Y-155952708D01*
X168679541Y-155986041D01*
X168612875Y-155986041D01*
X168512875Y-155952708D01*
X168446208Y-155886041D01*
X168412875Y-155819375D01*
X168379541Y-155686041D01*
X168379541Y-155586041D01*
X168412875Y-155452708D01*
X168446208Y-155386041D01*
X168512875Y-155319375D01*
X168612875Y-155286041D01*
X168679541Y-155286041D01*
X168779541Y-155319375D01*
X168812875Y-155352708D01*
X169479541Y-155986041D02*
X169079541Y-155986041D01*
X169279541Y-155986041D02*
X169279541Y-155286041D01*
X169212875Y-155386041D01*
X169146208Y-155452708D01*
X169079541Y-155486041D01*
X169746208Y-155352708D02*
X169779541Y-155319375D01*
X169846208Y-155286041D01*
X170012875Y-155286041D01*
X170079541Y-155319375D01*
X170112875Y-155352708D01*
X170146208Y-155419375D01*
X170146208Y-155486041D01*
X170112875Y-155586041D01*
X169712875Y-155986041D01*
X170146208Y-155986041D01*
X140714306Y-100828647D02*
X140714306Y-100875787D01*
X140667166Y-100970068D01*
X140620026Y-101017209D01*
X140525745Y-101064349D01*
X140431464Y-101064349D01*
X140360753Y-101040779D01*
X140242902Y-100970068D01*
X140172191Y-100899358D01*
X140101481Y-100781507D01*
X140077910Y-100710796D01*
X140077910Y-100616515D01*
X140125051Y-100522234D01*
X140172191Y-100475094D01*
X140266472Y-100427953D01*
X140313613Y-100427953D01*
X140431464Y-100215821D02*
X140737877Y-99909408D01*
X140761447Y-100262962D01*
X140832158Y-100192251D01*
X140902868Y-100168681D01*
X140950009Y-100168681D01*
X141020719Y-100192251D01*
X141138570Y-100310102D01*
X141162141Y-100380813D01*
X141162141Y-100427953D01*
X141138570Y-100498664D01*
X140997149Y-100640085D01*
X140926438Y-100663655D01*
X140879298Y-100663655D01*
X144037995Y-89036550D02*
X143637301Y-88965839D01*
X143755152Y-89319392D02*
X143260177Y-88824418D01*
X143448739Y-88635856D01*
X143519450Y-88612286D01*
X143566590Y-88612286D01*
X143637301Y-88635856D01*
X143708011Y-88706567D01*
X143731582Y-88777277D01*
X143731582Y-88824418D01*
X143708011Y-88895128D01*
X143519450Y-89083690D01*
X143778722Y-88400154D02*
X143778722Y-88353013D01*
X143802292Y-88282302D01*
X143920143Y-88164451D01*
X143990854Y-88140881D01*
X144037995Y-88140881D01*
X144108705Y-88164451D01*
X144155846Y-88211592D01*
X144202986Y-88305873D01*
X144202986Y-88871558D01*
X144509399Y-88565145D01*
X144438688Y-87645906D02*
X144344408Y-87740187D01*
X144320837Y-87810898D01*
X144320837Y-87858038D01*
X144344408Y-87975890D01*
X144415118Y-88093741D01*
X144603680Y-88282302D01*
X144674391Y-88305873D01*
X144721531Y-88305873D01*
X144792242Y-88282302D01*
X144886523Y-88188022D01*
X144910093Y-88117311D01*
X144910093Y-88070170D01*
X144886523Y-87999460D01*
X144768672Y-87881609D01*
X144697961Y-87858038D01*
X144650820Y-87858038D01*
X144580110Y-87881609D01*
X144485829Y-87975890D01*
X144462259Y-88046600D01*
X144462259Y-88093741D01*
X144485829Y-88164451D01*
D13*
X134229366Y-78801458D02*
X134229366Y-78932691D01*
X134435590Y-78932691D02*
X134041889Y-78932691D01*
X134041889Y-78745215D01*
X134229366Y-78464000D02*
X134248114Y-78407757D01*
X134266861Y-78389009D01*
X134304357Y-78370261D01*
X134360600Y-78370261D01*
X134398095Y-78389009D01*
X134416843Y-78407757D01*
X134435590Y-78445252D01*
X134435590Y-78595233D01*
X134041889Y-78595233D01*
X134041889Y-78464000D01*
X134060637Y-78426504D01*
X134079385Y-78407757D01*
X134116880Y-78389009D01*
X134154375Y-78389009D01*
X134191871Y-78407757D01*
X134210618Y-78426504D01*
X134229366Y-78464000D01*
X134229366Y-78595233D01*
X134435590Y-77995308D02*
X134435590Y-78220280D01*
X134435590Y-78107794D02*
X134041889Y-78107794D01*
X134098132Y-78145289D01*
X134135628Y-78182785D01*
X134154375Y-78220280D01*
D12*
X121396436Y-91501996D02*
X121325725Y-91902690D01*
X121679278Y-91784839D02*
X121184304Y-92279814D01*
X120995742Y-92091252D01*
X120972172Y-92020541D01*
X120972172Y-91973401D01*
X120995742Y-91902690D01*
X121066453Y-91831980D01*
X121137163Y-91808409D01*
X121184304Y-91808409D01*
X121255014Y-91831980D01*
X121443576Y-92020541D01*
X120736469Y-91831980D02*
X120430056Y-91525567D01*
X120783610Y-91501996D01*
X120712899Y-91431286D01*
X120689329Y-91360575D01*
X120689329Y-91313435D01*
X120712899Y-91242724D01*
X120830750Y-91124873D01*
X120901461Y-91101303D01*
X120948601Y-91101303D01*
X121019312Y-91124873D01*
X121160733Y-91266294D01*
X121184304Y-91337005D01*
X121184304Y-91384145D01*
X120453627Y-90559187D02*
X120736469Y-90842030D01*
X120595048Y-90700609D02*
X120100073Y-91195583D01*
X120217924Y-91172013D01*
X120312205Y-91172013D01*
X120382916Y-91195583D01*
X129519651Y-145754504D02*
X129186318Y-145278314D01*
X128948223Y-145754504D02*
X128948223Y-144754504D01*
X129329175Y-144754504D01*
X129424413Y-144802124D01*
X129472032Y-144849743D01*
X129519651Y-144944981D01*
X129519651Y-145087838D01*
X129472032Y-145183076D01*
X129424413Y-145230695D01*
X129329175Y-145278314D01*
X128948223Y-145278314D01*
X129948223Y-145230695D02*
X130281556Y-145230695D01*
X130424413Y-145754504D02*
X129948223Y-145754504D01*
X129948223Y-144754504D01*
X130424413Y-144754504D01*
X131186318Y-145230695D02*
X130852985Y-145230695D01*
X130852985Y-145754504D02*
X130852985Y-144754504D01*
X131329175Y-144754504D01*
X131852985Y-144754504D02*
X131852985Y-144992600D01*
X131614889Y-144897362D02*
X131852985Y-144992600D01*
X132091080Y-144897362D01*
X131710127Y-145183076D02*
X131852985Y-144992600D01*
X131995842Y-145183076D01*
X132614889Y-144754504D02*
X132614889Y-144992600D01*
X132376794Y-144897362D02*
X132614889Y-144992600D01*
X132852985Y-144897362D01*
X132472032Y-145183076D02*
X132614889Y-144992600D01*
X132757746Y-145183076D01*
X172212755Y-46512998D02*
X172927041Y-46512998D01*
X173069898Y-46560617D01*
X173165136Y-46655855D01*
X173212755Y-46798712D01*
X173212755Y-46893950D01*
X172212755Y-45608236D02*
X172212755Y-45798712D01*
X172260375Y-45893950D01*
X172307994Y-45941569D01*
X172450851Y-46036808D01*
X172641327Y-46084427D01*
X173022279Y-46084427D01*
X173117517Y-46036808D01*
X173165136Y-45989188D01*
X173212755Y-45893950D01*
X173212755Y-45703474D01*
X173165136Y-45608236D01*
X173117517Y-45560617D01*
X173022279Y-45512998D01*
X172784184Y-45512998D01*
X172688946Y-45560617D01*
X172641327Y-45608236D01*
X172593708Y-45703474D01*
X172593708Y-45893950D01*
X172641327Y-45989188D01*
X172688946Y-46036808D01*
X172784184Y-46084427D01*
X135684113Y-47434624D02*
X135650779Y-47467957D01*
X135550779Y-47501290D01*
X135484113Y-47501290D01*
X135384113Y-47467957D01*
X135317446Y-47401290D01*
X135284113Y-47334624D01*
X135250779Y-47201290D01*
X135250779Y-47101290D01*
X135284113Y-46967957D01*
X135317446Y-46901290D01*
X135384113Y-46834624D01*
X135484113Y-46801290D01*
X135550779Y-46801290D01*
X135650779Y-46834624D01*
X135684113Y-46867957D01*
X135950779Y-46867957D02*
X135984113Y-46834624D01*
X136050779Y-46801290D01*
X136217446Y-46801290D01*
X136284113Y-46834624D01*
X136317446Y-46867957D01*
X136350779Y-46934624D01*
X136350779Y-47001290D01*
X136317446Y-47101290D01*
X135917446Y-47501290D01*
X136350779Y-47501290D01*
X136617446Y-46867957D02*
X136650779Y-46834624D01*
X136717446Y-46801290D01*
X136884113Y-46801290D01*
X136950779Y-46834624D01*
X136984113Y-46867957D01*
X137017446Y-46934624D01*
X137017446Y-47001290D01*
X136984113Y-47101290D01*
X136584113Y-47501290D01*
X137017446Y-47501290D01*
X142519651Y-145754504D02*
X142186318Y-145278314D01*
X141948223Y-145754504D02*
X141948223Y-144754504D01*
X142329175Y-144754504D01*
X142424413Y-144802124D01*
X142472032Y-144849743D01*
X142519651Y-144944981D01*
X142519651Y-145087838D01*
X142472032Y-145183076D01*
X142424413Y-145230695D01*
X142329175Y-145278314D01*
X141948223Y-145278314D01*
X142948223Y-145230695D02*
X143281556Y-145230695D01*
X143424413Y-145754504D02*
X142948223Y-145754504D01*
X142948223Y-144754504D01*
X143424413Y-144754504D01*
X144186318Y-145230695D02*
X143852985Y-145230695D01*
X143852985Y-145754504D02*
X143852985Y-144754504D01*
X144329175Y-144754504D01*
X144852985Y-144754504D02*
X144852985Y-144992600D01*
X144614889Y-144897362D02*
X144852985Y-144992600D01*
X145091080Y-144897362D01*
X144710127Y-145183076D02*
X144852985Y-144992600D01*
X144995842Y-145183076D01*
X145614889Y-144754504D02*
X145614889Y-144992600D01*
X145376794Y-144897362D02*
X145614889Y-144992600D01*
X145852985Y-144897362D01*
X145472032Y-145183076D02*
X145614889Y-144992600D01*
X145757746Y-145183076D01*
X143547875Y-154862124D02*
X143514541Y-154895457D01*
X143414541Y-154928790D01*
X143347875Y-154928790D01*
X143247875Y-154895457D01*
X143181208Y-154828790D01*
X143147875Y-154762124D01*
X143114541Y-154628790D01*
X143114541Y-154528790D01*
X143147875Y-154395457D01*
X143181208Y-154328790D01*
X143247875Y-154262124D01*
X143347875Y-154228790D01*
X143414541Y-154228790D01*
X143514541Y-154262124D01*
X143547875Y-154295457D01*
X144214541Y-154928790D02*
X143814541Y-154928790D01*
X144014541Y-154928790D02*
X144014541Y-154228790D01*
X143947875Y-154328790D01*
X143881208Y-154395457D01*
X143814541Y-154428790D01*
X144814541Y-154462124D02*
X144814541Y-154928790D01*
X144647875Y-154195457D02*
X144481208Y-154695457D01*
X144914541Y-154695457D01*
X126382985Y-153262124D02*
X126349651Y-153295457D01*
X126249651Y-153328790D01*
X126182985Y-153328790D01*
X126082985Y-153295457D01*
X126016318Y-153228790D01*
X125982985Y-153162124D01*
X125949651Y-153028790D01*
X125949651Y-152928790D01*
X125982985Y-152795457D01*
X126016318Y-152728790D01*
X126082985Y-152662124D01*
X126182985Y-152628790D01*
X126249651Y-152628790D01*
X126349651Y-152662124D01*
X126382985Y-152695457D01*
X127049651Y-153328790D02*
X126649651Y-153328790D01*
X126849651Y-153328790D02*
X126849651Y-152628790D01*
X126782985Y-152728790D01*
X126716318Y-152795457D01*
X126649651Y-152828790D01*
X127282985Y-152628790D02*
X127716318Y-152628790D01*
X127482985Y-152895457D01*
X127582985Y-152895457D01*
X127649651Y-152928790D01*
X127682985Y-152962124D01*
X127716318Y-153028790D01*
X127716318Y-153195457D01*
X127682985Y-153262124D01*
X127649651Y-153295457D01*
X127582985Y-153328790D01*
X127382985Y-153328790D01*
X127316318Y-153295457D01*
X127282985Y-153262124D01*
X143378332Y-99513168D02*
X143307621Y-99913862D01*
X143661174Y-99796011D02*
X143166200Y-100290986D01*
X142977638Y-100102424D01*
X142954068Y-100031713D01*
X142954068Y-99984573D01*
X142977638Y-99913862D01*
X143048349Y-99843152D01*
X143119059Y-99819581D01*
X143166200Y-99819581D01*
X143236910Y-99843152D01*
X143425472Y-100031713D01*
X142741936Y-99772441D02*
X142694795Y-99772441D01*
X142624084Y-99748871D01*
X142506233Y-99631020D01*
X142482663Y-99560309D01*
X142482663Y-99513168D01*
X142506233Y-99442458D01*
X142553374Y-99395317D01*
X142647655Y-99348177D01*
X143213340Y-99348177D01*
X142906927Y-99041764D01*
X142435523Y-98570359D02*
X142718365Y-98853202D01*
X142576944Y-98711781D02*
X142081969Y-99206755D01*
X142199820Y-99183185D01*
X142294101Y-99183185D01*
X142364812Y-99206755D01*
X166312755Y-143248065D02*
X167027041Y-143248065D01*
X167169898Y-143295684D01*
X167265136Y-143390922D01*
X167312755Y-143533779D01*
X167312755Y-143629017D01*
X166312755Y-142295684D02*
X166312755Y-142771875D01*
X166788946Y-142819494D01*
X166741327Y-142771875D01*
X166693708Y-142676636D01*
X166693708Y-142438541D01*
X166741327Y-142343303D01*
X166788946Y-142295684D01*
X166884184Y-142248065D01*
X167122279Y-142248065D01*
X167217517Y-142295684D01*
X167265136Y-142343303D01*
X167312755Y-142438541D01*
X167312755Y-142676636D01*
X167265136Y-142771875D01*
X167217517Y-142819494D01*
X145098656Y-90097211D02*
X144697962Y-90026500D01*
X144815813Y-90380053D02*
X144320838Y-89885079D01*
X144509400Y-89696517D01*
X144580111Y-89672947D01*
X144627251Y-89672947D01*
X144697962Y-89696517D01*
X144768672Y-89767228D01*
X144792243Y-89837938D01*
X144792243Y-89885079D01*
X144768672Y-89955789D01*
X144580111Y-90144351D01*
X144839383Y-89460815D02*
X144839383Y-89413674D01*
X144862953Y-89342963D01*
X144980804Y-89225112D01*
X145051515Y-89201542D01*
X145098656Y-89201542D01*
X145169366Y-89225112D01*
X145216507Y-89272253D01*
X145263647Y-89366534D01*
X145263647Y-89932219D01*
X145570060Y-89625806D01*
X145522920Y-88682997D02*
X145287217Y-88918699D01*
X145499349Y-89177972D01*
X145499349Y-89130831D01*
X145522920Y-89060121D01*
X145640771Y-88942270D01*
X145711481Y-88918699D01*
X145758622Y-88918699D01*
X145829333Y-88942270D01*
X145947184Y-89060121D01*
X145970754Y-89130831D01*
X145970754Y-89177972D01*
X145947184Y-89248683D01*
X145829333Y-89366534D01*
X145758622Y-89390104D01*
X145711481Y-89390104D01*
X144092155Y-94191147D02*
X144092155Y-94238287D01*
X144045015Y-94332568D01*
X143997875Y-94379709D01*
X143903594Y-94426849D01*
X143809313Y-94426849D01*
X143738602Y-94403279D01*
X143620751Y-94332568D01*
X143550040Y-94261858D01*
X143479330Y-94144007D01*
X143455759Y-94073296D01*
X143455759Y-93979015D01*
X143502900Y-93884734D01*
X143550040Y-93837594D01*
X143644321Y-93790453D01*
X143691462Y-93790453D01*
X144139296Y-93672602D02*
X144068585Y-93696172D01*
X144021445Y-93696172D01*
X143950734Y-93672602D01*
X143927164Y-93649032D01*
X143903594Y-93578321D01*
X143903594Y-93531181D01*
X143927164Y-93460470D01*
X144021445Y-93366189D01*
X144092155Y-93342619D01*
X144139296Y-93342619D01*
X144210007Y-93366189D01*
X144233577Y-93389759D01*
X144257147Y-93460470D01*
X144257147Y-93507610D01*
X144233577Y-93578321D01*
X144139296Y-93672602D01*
X144115726Y-93743313D01*
X144115726Y-93790453D01*
X144139296Y-93861164D01*
X144233577Y-93955445D01*
X144304287Y-93979015D01*
X144351428Y-93979015D01*
X144422139Y-93955445D01*
X144516419Y-93861164D01*
X144539990Y-93790453D01*
X144539990Y-93743313D01*
X144516419Y-93672602D01*
X144422139Y-93578321D01*
X144351428Y-93554751D01*
X144304287Y-93554751D01*
X144233577Y-93578321D01*
X147219976Y-92218531D02*
X146819282Y-92147820D01*
X146937133Y-92501373D02*
X146442158Y-92006399D01*
X146630720Y-91817837D01*
X146701431Y-91794267D01*
X146748571Y-91794267D01*
X146819282Y-91817837D01*
X146889992Y-91888548D01*
X146913563Y-91959258D01*
X146913563Y-92006399D01*
X146889992Y-92077109D01*
X146701431Y-92265671D01*
X146960703Y-91582135D02*
X146960703Y-91534994D01*
X146984273Y-91464283D01*
X147102124Y-91346432D01*
X147172835Y-91322862D01*
X147219976Y-91322862D01*
X147290686Y-91346432D01*
X147337827Y-91393573D01*
X147384967Y-91487854D01*
X147384967Y-92053539D01*
X147691380Y-91747126D01*
X147361397Y-91087160D02*
X147667810Y-90780747D01*
X147691380Y-91134300D01*
X147762091Y-91063590D01*
X147832801Y-91040019D01*
X147879942Y-91040019D01*
X147950653Y-91063590D01*
X148068504Y-91181441D01*
X148092074Y-91252151D01*
X148092074Y-91299292D01*
X148068504Y-91370003D01*
X147927082Y-91511424D01*
X147856372Y-91534994D01*
X147809231Y-91534994D01*
X142519651Y-44488879D02*
X142186318Y-44012689D01*
X141948223Y-44488879D02*
X141948223Y-43488879D01*
X142329175Y-43488879D01*
X142424413Y-43536499D01*
X142472032Y-43584118D01*
X142519651Y-43679356D01*
X142519651Y-43822213D01*
X142472032Y-43917451D01*
X142424413Y-43965070D01*
X142329175Y-44012689D01*
X141948223Y-44012689D01*
X142948223Y-43965070D02*
X143281556Y-43965070D01*
X143424413Y-44488879D02*
X142948223Y-44488879D01*
X142948223Y-43488879D01*
X143424413Y-43488879D01*
X144186318Y-43965070D02*
X143852985Y-43965070D01*
X143852985Y-44488879D02*
X143852985Y-43488879D01*
X144329175Y-43488879D01*
X144852985Y-43488879D02*
X144852985Y-43726975D01*
X144614889Y-43631737D02*
X144852985Y-43726975D01*
X145091080Y-43631737D01*
X144710127Y-43917451D02*
X144852985Y-43726975D01*
X144995842Y-43917451D01*
X145614889Y-43488879D02*
X145614889Y-43726975D01*
X145376794Y-43631737D02*
X145614889Y-43726975D01*
X145852985Y-43631737D01*
X145472032Y-43917451D02*
X145614889Y-43726975D01*
X145757746Y-43917451D01*
X129829511Y-69480754D02*
X129829511Y-70195040D01*
X129781892Y-70337897D01*
X129686654Y-70433135D01*
X129543797Y-70480754D01*
X129448559Y-70480754D01*
X130258083Y-69575993D02*
X130305702Y-69528374D01*
X130400940Y-69480754D01*
X130639035Y-69480754D01*
X130734273Y-69528374D01*
X130781892Y-69575993D01*
X130829511Y-69671231D01*
X130829511Y-69766469D01*
X130781892Y-69909326D01*
X130210464Y-70480754D01*
X130829511Y-70480754D01*
X138315363Y-149010249D02*
X138282029Y-149043582D01*
X138182029Y-149076915D01*
X138115363Y-149076915D01*
X138015363Y-149043582D01*
X137948696Y-148976915D01*
X137915363Y-148910249D01*
X137882029Y-148776915D01*
X137882029Y-148676915D01*
X137915363Y-148543582D01*
X137948696Y-148476915D01*
X138015363Y-148410249D01*
X138115363Y-148376915D01*
X138182029Y-148376915D01*
X138282029Y-148410249D01*
X138315363Y-148443582D01*
X138982029Y-149076915D02*
X138582029Y-149076915D01*
X138782029Y-149076915D02*
X138782029Y-148376915D01*
X138715363Y-148476915D01*
X138648696Y-148543582D01*
X138582029Y-148576915D01*
X139382029Y-148676915D02*
X139315363Y-148643582D01*
X139282029Y-148610249D01*
X139248696Y-148543582D01*
X139248696Y-148510249D01*
X139282029Y-148443582D01*
X139315363Y-148410249D01*
X139382029Y-148376915D01*
X139515363Y-148376915D01*
X139582029Y-148410249D01*
X139615363Y-148443582D01*
X139648696Y-148510249D01*
X139648696Y-148543582D01*
X139615363Y-148610249D01*
X139582029Y-148643582D01*
X139515363Y-148676915D01*
X139382029Y-148676915D01*
X139315363Y-148710249D01*
X139282029Y-148743582D01*
X139248696Y-148810249D01*
X139248696Y-148943582D01*
X139282029Y-149010249D01*
X139315363Y-149043582D01*
X139382029Y-149076915D01*
X139515363Y-149076915D01*
X139582029Y-149043582D01*
X139615363Y-149010249D01*
X139648696Y-148943582D01*
X139648696Y-148810249D01*
X139615363Y-148743582D01*
X139582029Y-148710249D01*
X139515363Y-148676915D01*
X147082875Y-41539375D02*
X147049541Y-41572708D01*
X146949541Y-41606041D01*
X146882875Y-41606041D01*
X146782875Y-41572708D01*
X146716208Y-41506041D01*
X146682875Y-41439375D01*
X146649541Y-41306041D01*
X146649541Y-41206041D01*
X146682875Y-41072708D01*
X146716208Y-41006041D01*
X146782875Y-40939375D01*
X146882875Y-40906041D01*
X146949541Y-40906041D01*
X147049541Y-40939375D01*
X147082875Y-40972708D01*
X147749541Y-41606041D02*
X147349541Y-41606041D01*
X147549541Y-41606041D02*
X147549541Y-40906041D01*
X147482875Y-41006041D01*
X147416208Y-41072708D01*
X147349541Y-41106041D01*
X148082875Y-41606041D02*
X148216208Y-41606041D01*
X148282875Y-41572708D01*
X148316208Y-41539375D01*
X148382875Y-41439375D01*
X148416208Y-41306041D01*
X148416208Y-41039375D01*
X148382875Y-40972708D01*
X148349541Y-40939375D01*
X148282875Y-40906041D01*
X148149541Y-40906041D01*
X148082875Y-40939375D01*
X148049541Y-40972708D01*
X148016208Y-41039375D01*
X148016208Y-41206041D01*
X148049541Y-41272708D01*
X148082875Y-41306041D01*
X148149541Y-41339375D01*
X148282875Y-41339375D01*
X148349541Y-41306041D01*
X148382875Y-41272708D01*
X148416208Y-41206041D01*
X161247875Y-154444375D02*
X161214541Y-154477708D01*
X161114541Y-154511041D01*
X161047875Y-154511041D01*
X160947875Y-154477708D01*
X160881208Y-154411041D01*
X160847875Y-154344375D01*
X160814541Y-154211041D01*
X160814541Y-154111041D01*
X160847875Y-153977708D01*
X160881208Y-153911041D01*
X160947875Y-153844375D01*
X161047875Y-153811041D01*
X161114541Y-153811041D01*
X161214541Y-153844375D01*
X161247875Y-153877708D01*
X161914541Y-154511041D02*
X161514541Y-154511041D01*
X161714541Y-154511041D02*
X161714541Y-153811041D01*
X161647875Y-153911041D01*
X161581208Y-153977708D01*
X161514541Y-154011041D01*
X162547875Y-153811041D02*
X162214541Y-153811041D01*
X162181208Y-154144375D01*
X162214541Y-154111041D01*
X162281208Y-154077708D01*
X162447875Y-154077708D01*
X162514541Y-154111041D01*
X162547875Y-154144375D01*
X162581208Y-154211041D01*
X162581208Y-154377708D01*
X162547875Y-154444375D01*
X162514541Y-154477708D01*
X162447875Y-154511041D01*
X162281208Y-154511041D01*
X162214541Y-154477708D01*
X162181208Y-154444375D01*
X141984866Y-96793779D02*
X142032007Y-96793779D01*
X142126288Y-96840919D01*
X142173428Y-96888060D01*
X142220569Y-96982341D01*
X142220569Y-97076622D01*
X142196998Y-97147332D01*
X142126288Y-97265183D01*
X142055577Y-97335894D01*
X141937726Y-97406605D01*
X141867015Y-97430175D01*
X141772734Y-97430175D01*
X141678453Y-97383035D01*
X141631313Y-97335894D01*
X141584172Y-97241613D01*
X141584172Y-97194473D01*
X141560602Y-96275234D02*
X141843445Y-96558077D01*
X141702024Y-96416655D02*
X141207049Y-96911630D01*
X141324900Y-96888060D01*
X141419181Y-96888060D01*
X141489892Y-96911630D01*
X140759214Y-96463796D02*
X140712074Y-96416655D01*
X140688504Y-96345945D01*
X140688504Y-96298804D01*
X140712074Y-96228093D01*
X140782785Y-96110242D01*
X140900636Y-95992391D01*
X141018487Y-95921680D01*
X141089198Y-95898110D01*
X141136338Y-95898110D01*
X141207049Y-95921680D01*
X141254189Y-95968821D01*
X141277759Y-96039532D01*
X141277759Y-96086672D01*
X141254189Y-96157383D01*
X141183479Y-96275234D01*
X141065627Y-96393085D01*
X140947776Y-96463796D01*
X140877066Y-96487366D01*
X140829925Y-96487366D01*
X140759214Y-96463796D01*
X133550821Y-82303375D02*
X133517488Y-82336708D01*
X133417488Y-82370041D01*
X133350821Y-82370041D01*
X133250821Y-82336708D01*
X133184154Y-82270041D01*
X133150821Y-82203375D01*
X133117488Y-82070041D01*
X133117488Y-81970041D01*
X133150821Y-81836708D01*
X133184154Y-81770041D01*
X133250821Y-81703375D01*
X133350821Y-81670041D01*
X133417488Y-81670041D01*
X133517488Y-81703375D01*
X133550821Y-81736708D01*
X134217488Y-82370041D02*
X133817488Y-82370041D01*
X134017488Y-82370041D02*
X134017488Y-81670041D01*
X133950821Y-81770041D01*
X133884154Y-81836708D01*
X133817488Y-81870041D01*
X142908199Y-100759010D02*
X142908199Y-100806151D01*
X142861059Y-100900432D01*
X142813918Y-100947572D01*
X142719637Y-100994713D01*
X142625356Y-100994713D01*
X142554646Y-100971142D01*
X142436795Y-100900432D01*
X142366084Y-100829721D01*
X142295373Y-100711870D01*
X142271803Y-100641159D01*
X142271803Y-100546878D01*
X142318943Y-100452597D01*
X142366084Y-100405457D01*
X142460365Y-100358316D01*
X142507505Y-100358316D01*
X143426744Y-100334746D02*
X143143901Y-100617589D01*
X143285323Y-100476168D02*
X142790348Y-99981193D01*
X142813918Y-100099044D01*
X142813918Y-100193325D01*
X142790348Y-100264035D01*
X143898149Y-99863342D02*
X143615306Y-100146184D01*
X143756727Y-100004763D02*
X143261753Y-99509788D01*
X143285323Y-99627639D01*
X143285323Y-99721920D01*
X143261753Y-99792631D01*
X159302985Y-43732124D02*
X159269651Y-43765457D01*
X159169651Y-43798790D01*
X159102985Y-43798790D01*
X159002985Y-43765457D01*
X158936318Y-43698790D01*
X158902985Y-43632124D01*
X158869651Y-43498790D01*
X158869651Y-43398790D01*
X158902985Y-43265457D01*
X158936318Y-43198790D01*
X159002985Y-43132124D01*
X159102985Y-43098790D01*
X159169651Y-43098790D01*
X159269651Y-43132124D01*
X159302985Y-43165457D01*
X159569651Y-43165457D02*
X159602985Y-43132124D01*
X159669651Y-43098790D01*
X159836318Y-43098790D01*
X159902985Y-43132124D01*
X159936318Y-43165457D01*
X159969651Y-43232124D01*
X159969651Y-43298790D01*
X159936318Y-43398790D01*
X159536318Y-43798790D01*
X159969651Y-43798790D01*
X160402985Y-43098790D02*
X160469651Y-43098790D01*
X160536318Y-43132124D01*
X160569651Y-43165457D01*
X160602985Y-43232124D01*
X160636318Y-43365457D01*
X160636318Y-43532124D01*
X160602985Y-43665457D01*
X160569651Y-43732124D01*
X160536318Y-43765457D01*
X160469651Y-43798790D01*
X160402985Y-43798790D01*
X160336318Y-43765457D01*
X160302985Y-43732124D01*
X160269651Y-43665457D01*
X160236318Y-43532124D01*
X160236318Y-43365457D01*
X160269651Y-43232124D01*
X160302985Y-43165457D01*
X160336318Y-43132124D01*
X160402985Y-43098790D01*
X119210375Y-42031875D02*
X119177041Y-42065208D01*
X119077041Y-42098541D01*
X119010375Y-42098541D01*
X118910375Y-42065208D01*
X118843708Y-41998541D01*
X118810375Y-41931875D01*
X118777041Y-41798541D01*
X118777041Y-41698541D01*
X118810375Y-41565208D01*
X118843708Y-41498541D01*
X118910375Y-41431875D01*
X119010375Y-41398541D01*
X119077041Y-41398541D01*
X119177041Y-41431875D01*
X119210375Y-41465208D01*
X119477041Y-41465208D02*
X119510375Y-41431875D01*
X119577041Y-41398541D01*
X119743708Y-41398541D01*
X119810375Y-41431875D01*
X119843708Y-41465208D01*
X119877041Y-41531875D01*
X119877041Y-41598541D01*
X119843708Y-41698541D01*
X119443708Y-42098541D01*
X119877041Y-42098541D01*
X120477041Y-41631875D02*
X120477041Y-42098541D01*
X120310375Y-41365208D02*
X120143708Y-41865208D01*
X120577041Y-41865208D01*
X163019651Y-145754504D02*
X162686318Y-145278314D01*
X162448223Y-145754504D02*
X162448223Y-144754504D01*
X162829175Y-144754504D01*
X162924413Y-144802124D01*
X162972032Y-144849743D01*
X163019651Y-144944981D01*
X163019651Y-145087838D01*
X162972032Y-145183076D01*
X162924413Y-145230695D01*
X162829175Y-145278314D01*
X162448223Y-145278314D01*
X163448223Y-145230695D02*
X163781556Y-145230695D01*
X163924413Y-145754504D02*
X163448223Y-145754504D01*
X163448223Y-144754504D01*
X163924413Y-144754504D01*
X164686318Y-145230695D02*
X164352985Y-145230695D01*
X164352985Y-145754504D02*
X164352985Y-144754504D01*
X164829175Y-144754504D01*
X165352985Y-144754504D02*
X165352985Y-144992600D01*
X165114889Y-144897362D02*
X165352985Y-144992600D01*
X165591080Y-144897362D01*
X165210127Y-145183076D02*
X165352985Y-144992600D01*
X165495842Y-145183076D01*
X166114889Y-144754504D02*
X166114889Y-144992600D01*
X165876794Y-144897362D02*
X166114889Y-144992600D01*
X166352985Y-144897362D01*
X165972032Y-145183076D02*
X166114889Y-144992600D01*
X166257746Y-145183076D01*
X134334702Y-101602995D02*
X133934008Y-101532285D01*
X134051859Y-101885838D02*
X133556884Y-101390863D01*
X133745446Y-101202302D01*
X133816157Y-101178731D01*
X133863297Y-101178731D01*
X133934008Y-101202302D01*
X134004719Y-101273012D01*
X134028289Y-101343723D01*
X134028289Y-101390863D01*
X134004719Y-101461574D01*
X133816157Y-101650136D01*
X134075429Y-100966599D02*
X134075429Y-100919459D01*
X134099000Y-100848748D01*
X134216851Y-100730897D01*
X134287561Y-100707327D01*
X134334702Y-100707327D01*
X134405413Y-100730897D01*
X134452553Y-100778038D01*
X134499693Y-100872318D01*
X134499693Y-101438004D01*
X134806106Y-101131591D01*
X131404154Y-104960040D02*
X131070821Y-105193374D01*
X131404154Y-105360040D02*
X130704154Y-105360040D01*
X130704154Y-105093374D01*
X130737488Y-105026707D01*
X130770821Y-104993374D01*
X130837488Y-104960040D01*
X130937488Y-104960040D01*
X131004154Y-104993374D01*
X131037488Y-105026707D01*
X131070821Y-105093374D01*
X131070821Y-105360040D01*
X130704154Y-104726707D02*
X130704154Y-104293374D01*
X130970821Y-104526707D01*
X130970821Y-104426707D01*
X131004154Y-104360040D01*
X131037488Y-104326707D01*
X131104154Y-104293374D01*
X131270821Y-104293374D01*
X131337488Y-104326707D01*
X131370821Y-104360040D01*
X131404154Y-104426707D01*
X131404154Y-104626707D01*
X131370821Y-104693374D01*
X131337488Y-104726707D01*
X131874733Y-102061061D02*
X131498798Y-102216717D01*
X131788157Y-102451579D02*
X131104750Y-102300072D01*
X131162467Y-102039726D01*
X131209439Y-101981854D01*
X131249197Y-101956526D01*
X131321498Y-101938412D01*
X131419128Y-101960056D01*
X131477000Y-102007028D01*
X131502328Y-102046786D01*
X131520442Y-102119087D01*
X131462725Y-102379433D01*
X131328404Y-101291232D02*
X131256257Y-101616664D01*
X131574475Y-101721354D01*
X131549146Y-101681596D01*
X131531032Y-101609295D01*
X131567105Y-101446579D01*
X131614078Y-101388707D01*
X131653836Y-101363379D01*
X131726137Y-101345265D01*
X131888853Y-101381338D01*
X131946725Y-101428311D01*
X131972053Y-101468069D01*
X131990167Y-101540370D01*
X131954094Y-101703086D01*
X131907121Y-101760957D01*
X131867363Y-101786286D01*
X124718936Y-92452835D02*
X124485602Y-92119502D01*
X124318936Y-92452835D02*
X124318936Y-91752835D01*
X124585602Y-91752835D01*
X124652269Y-91786169D01*
X124685602Y-91819502D01*
X124718936Y-91886169D01*
X124718936Y-91986169D01*
X124685602Y-92052835D01*
X124652269Y-92086169D01*
X124585602Y-92119502D01*
X124318936Y-92119502D01*
X125385602Y-92452835D02*
X124985602Y-92452835D01*
X125185602Y-92452835D02*
X125185602Y-91752835D01*
X125118936Y-91852835D01*
X125052269Y-91919502D01*
X124985602Y-91952835D01*
X125985602Y-91986169D02*
X125985602Y-92452835D01*
X125818936Y-91719502D02*
X125652269Y-92219502D01*
X126085602Y-92219502D01*
X140912583Y-85798001D02*
X140511889Y-85727290D01*
X140629740Y-86080843D02*
X140134765Y-85585869D01*
X140323327Y-85397307D01*
X140394038Y-85373737D01*
X140441178Y-85373737D01*
X140511889Y-85397307D01*
X140582599Y-85468018D01*
X140606170Y-85538728D01*
X140606170Y-85585869D01*
X140582599Y-85656579D01*
X140394038Y-85845141D01*
X140653310Y-85161605D02*
X140653310Y-85114464D01*
X140676880Y-85043753D01*
X140794731Y-84925902D01*
X140865442Y-84902332D01*
X140912583Y-84902332D01*
X140983293Y-84925902D01*
X141030434Y-84973043D01*
X141077574Y-85067324D01*
X141077574Y-85633009D01*
X141383987Y-85326596D01*
X141619689Y-85090894D02*
X141713970Y-84996613D01*
X141737541Y-84925902D01*
X141737541Y-84878762D01*
X141713970Y-84760911D01*
X141643260Y-84643060D01*
X141454698Y-84454498D01*
X141383987Y-84430928D01*
X141336847Y-84430928D01*
X141266136Y-84454498D01*
X141171855Y-84548779D01*
X141148285Y-84619489D01*
X141148285Y-84666630D01*
X141171855Y-84737341D01*
X141289706Y-84855192D01*
X141360417Y-84878762D01*
X141407557Y-84878762D01*
X141478268Y-84855192D01*
X141572549Y-84760911D01*
X141596119Y-84690200D01*
X141596119Y-84643060D01*
X141572549Y-84572349D01*
X125119943Y-101732063D02*
X124719249Y-101661353D01*
X124837100Y-102014906D02*
X124342125Y-101519931D01*
X124530687Y-101331370D01*
X124601398Y-101307799D01*
X124648538Y-101307799D01*
X124719249Y-101331370D01*
X124789960Y-101402080D01*
X124813530Y-101472791D01*
X124813530Y-101519931D01*
X124789960Y-101590642D01*
X124601398Y-101779204D01*
X125119943Y-101166378D02*
X125049232Y-101189948D01*
X125002092Y-101189948D01*
X124931381Y-101166378D01*
X124907811Y-101142808D01*
X124884241Y-101072097D01*
X124884241Y-101024957D01*
X124907811Y-100954246D01*
X125002092Y-100859965D01*
X125072802Y-100836395D01*
X125119943Y-100836395D01*
X125190654Y-100859965D01*
X125214224Y-100883535D01*
X125237794Y-100954246D01*
X125237794Y-101001386D01*
X125214224Y-101072097D01*
X125119943Y-101166378D01*
X125096373Y-101237089D01*
X125096373Y-101284229D01*
X125119943Y-101354940D01*
X125214224Y-101449221D01*
X125284934Y-101472791D01*
X125332075Y-101472791D01*
X125402786Y-101449221D01*
X125497066Y-101354940D01*
X125520637Y-101284229D01*
X125520637Y-101237089D01*
X125497066Y-101166378D01*
X125402786Y-101072097D01*
X125332075Y-101048527D01*
X125284934Y-101048527D01*
X125214224Y-101072097D01*
X154515613Y-144796755D02*
X155087041Y-144796755D01*
X154801327Y-145796755D02*
X154801327Y-144796755D01*
X155325136Y-144796755D02*
X155944184Y-144796755D01*
X155610851Y-145177708D01*
X155753708Y-145177708D01*
X155848946Y-145225327D01*
X155896565Y-145272946D01*
X155944184Y-145368184D01*
X155944184Y-145606279D01*
X155896565Y-145701517D01*
X155848946Y-145749136D01*
X155753708Y-145796755D01*
X155467994Y-145796755D01*
X155372755Y-145749136D01*
X155325136Y-145701517D01*
X156848946Y-144796755D02*
X156372755Y-144796755D01*
X156325136Y-145272946D01*
X156372755Y-145225327D01*
X156467994Y-145177708D01*
X156706089Y-145177708D01*
X156801327Y-145225327D01*
X156848946Y-145272946D01*
X156896565Y-145368184D01*
X156896565Y-145606279D01*
X156848946Y-145701517D01*
X156801327Y-145749136D01*
X156706089Y-145796755D01*
X156467994Y-145796755D01*
X156372755Y-145749136D01*
X156325136Y-145701517D01*
X128850821Y-88813375D02*
X128817488Y-88846708D01*
X128717488Y-88880041D01*
X128650821Y-88880041D01*
X128550821Y-88846708D01*
X128484154Y-88780041D01*
X128450821Y-88713375D01*
X128417488Y-88580041D01*
X128417488Y-88480041D01*
X128450821Y-88346708D01*
X128484154Y-88280041D01*
X128550821Y-88213375D01*
X128650821Y-88180041D01*
X128717488Y-88180041D01*
X128817488Y-88213375D01*
X128850821Y-88246708D01*
X129450821Y-88413375D02*
X129450821Y-88880041D01*
X129284154Y-88146708D02*
X129117488Y-88646708D01*
X129550821Y-88646708D01*
X107410375Y-42031875D02*
X107377041Y-42065208D01*
X107277041Y-42098541D01*
X107210375Y-42098541D01*
X107110375Y-42065208D01*
X107043708Y-41998541D01*
X107010375Y-41931875D01*
X106977041Y-41798541D01*
X106977041Y-41698541D01*
X107010375Y-41565208D01*
X107043708Y-41498541D01*
X107110375Y-41431875D01*
X107210375Y-41398541D01*
X107277041Y-41398541D01*
X107377041Y-41431875D01*
X107410375Y-41465208D01*
X107677041Y-41465208D02*
X107710375Y-41431875D01*
X107777041Y-41398541D01*
X107943708Y-41398541D01*
X108010375Y-41431875D01*
X108043708Y-41465208D01*
X108077041Y-41531875D01*
X108077041Y-41598541D01*
X108043708Y-41698541D01*
X107643708Y-42098541D01*
X108077041Y-42098541D01*
X108710375Y-41398541D02*
X108377041Y-41398541D01*
X108343708Y-41731875D01*
X108377041Y-41698541D01*
X108443708Y-41665208D01*
X108610375Y-41665208D01*
X108677041Y-41698541D01*
X108710375Y-41731875D01*
X108743708Y-41798541D01*
X108743708Y-41965208D01*
X108710375Y-42031875D01*
X108677041Y-42065208D01*
X108610375Y-42098541D01*
X108443708Y-42098541D01*
X108377041Y-42065208D01*
X108343708Y-42031875D01*
X168822875Y-43519375D02*
X168789541Y-43552708D01*
X168689541Y-43586041D01*
X168622875Y-43586041D01*
X168522875Y-43552708D01*
X168456208Y-43486041D01*
X168422875Y-43419375D01*
X168389541Y-43286041D01*
X168389541Y-43186041D01*
X168422875Y-43052708D01*
X168456208Y-42986041D01*
X168522875Y-42919375D01*
X168622875Y-42886041D01*
X168689541Y-42886041D01*
X168789541Y-42919375D01*
X168822875Y-42952708D01*
X169089541Y-42952708D02*
X169122875Y-42919375D01*
X169189541Y-42886041D01*
X169356208Y-42886041D01*
X169422875Y-42919375D01*
X169456208Y-42952708D01*
X169489541Y-43019375D01*
X169489541Y-43086041D01*
X169456208Y-43186041D01*
X169056208Y-43586041D01*
X169489541Y-43586041D01*
X170156208Y-43586041D02*
X169756208Y-43586041D01*
X169956208Y-43586041D02*
X169956208Y-42886041D01*
X169889541Y-42986041D01*
X169822875Y-43052708D01*
X169756208Y-43086041D01*
X105197875Y-153174375D02*
X105164541Y-153207708D01*
X105064541Y-153241041D01*
X104997875Y-153241041D01*
X104897875Y-153207708D01*
X104831208Y-153141041D01*
X104797875Y-153074375D01*
X104764541Y-152941041D01*
X104764541Y-152841041D01*
X104797875Y-152707708D01*
X104831208Y-152641041D01*
X104897875Y-152574375D01*
X104997875Y-152541041D01*
X105064541Y-152541041D01*
X105164541Y-152574375D01*
X105197875Y-152607708D01*
X105864541Y-153241041D02*
X105464541Y-153241041D01*
X105664541Y-153241041D02*
X105664541Y-152541041D01*
X105597875Y-152641041D01*
X105531208Y-152707708D01*
X105464541Y-152741041D01*
X106097875Y-152541041D02*
X106564541Y-152541041D01*
X106264541Y-153241041D01*
X129290821Y-84923375D02*
X129257488Y-84956708D01*
X129157488Y-84990041D01*
X129090821Y-84990041D01*
X128990821Y-84956708D01*
X128924154Y-84890041D01*
X128890821Y-84823375D01*
X128857488Y-84690041D01*
X128857488Y-84590041D01*
X128890821Y-84456708D01*
X128924154Y-84390041D01*
X128990821Y-84323375D01*
X129090821Y-84290041D01*
X129157488Y-84290041D01*
X129257488Y-84323375D01*
X129290821Y-84356708D01*
X129557488Y-84356708D02*
X129590821Y-84323375D01*
X129657488Y-84290041D01*
X129824154Y-84290041D01*
X129890821Y-84323375D01*
X129924154Y-84356708D01*
X129957488Y-84423375D01*
X129957488Y-84490041D01*
X129924154Y-84590041D01*
X129524154Y-84990041D01*
X129957488Y-84990041D01*
X121768936Y-91530960D02*
X121535602Y-91197627D01*
X121368936Y-91530960D02*
X121368936Y-90830960D01*
X121635602Y-90830960D01*
X121702269Y-90864294D01*
X121735602Y-90897627D01*
X121768936Y-90964294D01*
X121768936Y-91064294D01*
X121735602Y-91130960D01*
X121702269Y-91164294D01*
X121635602Y-91197627D01*
X121368936Y-91197627D01*
X122435602Y-91530960D02*
X122035602Y-91530960D01*
X122235602Y-91530960D02*
X122235602Y-90830960D01*
X122168936Y-90930960D01*
X122102269Y-90997627D01*
X122035602Y-91030960D01*
X123068936Y-90830960D02*
X122735602Y-90830960D01*
X122702269Y-91164294D01*
X122735602Y-91130960D01*
X122802269Y-91097627D01*
X122968936Y-91097627D01*
X123035602Y-91130960D01*
X123068936Y-91164294D01*
X123102269Y-91230960D01*
X123102269Y-91397627D01*
X123068936Y-91464294D01*
X123035602Y-91497627D01*
X122968936Y-91530960D01*
X122802269Y-91530960D01*
X122735602Y-91497627D01*
X122702269Y-91464294D01*
X107312755Y-52657351D02*
X108027041Y-52657351D01*
X108169898Y-52704970D01*
X108265136Y-52800208D01*
X108312755Y-52943065D01*
X108312755Y-53038303D01*
X107312755Y-52276398D02*
X107312755Y-51609732D01*
X108312755Y-52038303D01*
X109019651Y-44488879D02*
X108686318Y-44012689D01*
X108448223Y-44488879D02*
X108448223Y-43488879D01*
X108829175Y-43488879D01*
X108924413Y-43536499D01*
X108972032Y-43584118D01*
X109019651Y-43679356D01*
X109019651Y-43822213D01*
X108972032Y-43917451D01*
X108924413Y-43965070D01*
X108829175Y-44012689D01*
X108448223Y-44012689D01*
X109448223Y-43965070D02*
X109781556Y-43965070D01*
X109924413Y-44488879D02*
X109448223Y-44488879D01*
X109448223Y-43488879D01*
X109924413Y-43488879D01*
X110686318Y-43965070D02*
X110352985Y-43965070D01*
X110352985Y-44488879D02*
X110352985Y-43488879D01*
X110829175Y-43488879D01*
X111352985Y-43488879D02*
X111352985Y-43726975D01*
X111114889Y-43631737D02*
X111352985Y-43726975D01*
X111591080Y-43631737D01*
X111210127Y-43917451D02*
X111352985Y-43726975D01*
X111495842Y-43917451D01*
X112114889Y-43488879D02*
X112114889Y-43726975D01*
X111876794Y-43631737D02*
X112114889Y-43726975D01*
X112352985Y-43631737D01*
X111972032Y-43917451D02*
X112114889Y-43726975D01*
X112257746Y-43917451D01*
X133082301Y-87951225D02*
X133654721Y-88523645D01*
X133755736Y-88557317D01*
X133823080Y-88557317D01*
X133924095Y-88523645D01*
X134058782Y-88388958D01*
X134092454Y-88287943D01*
X134092454Y-88220599D01*
X134058782Y-88119584D01*
X133486362Y-87547164D01*
X134900576Y-87547164D02*
X134496515Y-87951225D01*
X134698545Y-87749195D02*
X133991439Y-87042088D01*
X134025110Y-87210447D01*
X134025110Y-87345134D01*
X133991439Y-87446149D01*
X136857477Y-105920544D02*
X136524144Y-106153877D01*
X136857477Y-106320544D02*
X136157477Y-106320544D01*
X136157477Y-106053877D01*
X136190811Y-105987210D01*
X136224144Y-105953877D01*
X136290811Y-105920544D01*
X136390811Y-105920544D01*
X136457477Y-105953877D01*
X136490811Y-105987210D01*
X136524144Y-106053877D01*
X136524144Y-106320544D01*
X136857477Y-105253877D02*
X136857477Y-105653877D01*
X136857477Y-105453877D02*
X136157477Y-105453877D01*
X136257477Y-105520544D01*
X136324144Y-105587210D01*
X136357477Y-105653877D01*
X136457477Y-104853877D02*
X136424144Y-104920544D01*
X136390811Y-104953877D01*
X136324144Y-104987210D01*
X136290811Y-104987210D01*
X136224144Y-104953877D01*
X136190811Y-104920544D01*
X136157477Y-104853877D01*
X136157477Y-104720544D01*
X136190811Y-104653877D01*
X136224144Y-104620544D01*
X136290811Y-104587210D01*
X136324144Y-104587210D01*
X136390811Y-104620544D01*
X136424144Y-104653877D01*
X136457477Y-104720544D01*
X136457477Y-104853877D01*
X136490811Y-104920544D01*
X136524144Y-104953877D01*
X136590811Y-104987210D01*
X136724144Y-104987210D01*
X136790811Y-104953877D01*
X136824144Y-104920544D01*
X136857477Y-104853877D01*
X136857477Y-104720544D01*
X136824144Y-104653877D01*
X136790811Y-104620544D01*
X136724144Y-104587210D01*
X136590811Y-104587210D01*
X136524144Y-104620544D01*
X136490811Y-104653877D01*
X136457477Y-104720544D01*
X122762920Y-99846446D02*
X122362226Y-99775735D01*
X122480077Y-100129288D02*
X121985102Y-99634314D01*
X122173664Y-99445752D01*
X122244375Y-99422182D01*
X122291515Y-99422182D01*
X122362226Y-99445752D01*
X122432936Y-99516463D01*
X122456507Y-99587173D01*
X122456507Y-99634314D01*
X122432936Y-99705024D01*
X122244375Y-99893586D01*
X123234324Y-99375041D02*
X122951481Y-99657884D01*
X123092903Y-99516463D02*
X122597928Y-99021488D01*
X122621498Y-99139339D01*
X122621498Y-99233620D01*
X122597928Y-99304331D01*
X123045762Y-98573653D02*
X123092903Y-98526513D01*
X123163613Y-98502943D01*
X123210754Y-98502943D01*
X123281465Y-98526513D01*
X123399316Y-98597224D01*
X123517167Y-98715075D01*
X123587878Y-98832926D01*
X123611448Y-98903637D01*
X123611448Y-98950777D01*
X123587878Y-99021488D01*
X123540737Y-99068628D01*
X123470026Y-99092198D01*
X123422886Y-99092198D01*
X123352175Y-99068628D01*
X123234324Y-98997918D01*
X123116473Y-98880066D01*
X123045762Y-98762215D01*
X123022192Y-98691505D01*
X123022192Y-98644364D01*
X123045762Y-98573653D01*
X119556436Y-95402835D02*
X119323102Y-95069502D01*
X119156436Y-95402835D02*
X119156436Y-94702835D01*
X119423102Y-94702835D01*
X119489769Y-94736169D01*
X119523102Y-94769502D01*
X119556436Y-94836169D01*
X119556436Y-94936169D01*
X119523102Y-95002835D01*
X119489769Y-95036169D01*
X119423102Y-95069502D01*
X119156436Y-95069502D01*
X120223102Y-95402835D02*
X119823102Y-95402835D01*
X120023102Y-95402835D02*
X120023102Y-94702835D01*
X119956436Y-94802835D01*
X119889769Y-94869502D01*
X119823102Y-94902835D01*
X120489769Y-94769502D02*
X120523102Y-94736169D01*
X120589769Y-94702835D01*
X120756436Y-94702835D01*
X120823102Y-94736169D01*
X120856436Y-94769502D01*
X120889769Y-94836169D01*
X120889769Y-94902835D01*
X120856436Y-95002835D01*
X120456436Y-95402835D01*
X120889769Y-95402835D01*
X145737686Y-96812210D02*
X145504352Y-96478877D01*
X145337686Y-96812210D02*
X145337686Y-96112210D01*
X145604352Y-96112210D01*
X145671019Y-96145544D01*
X145704352Y-96178877D01*
X145737686Y-96245544D01*
X145737686Y-96345544D01*
X145704352Y-96412210D01*
X145671019Y-96445544D01*
X145604352Y-96478877D01*
X145337686Y-96478877D01*
X146004352Y-96178877D02*
X146037686Y-96145544D01*
X146104352Y-96112210D01*
X146271019Y-96112210D01*
X146337686Y-96145544D01*
X146371019Y-96178877D01*
X146404352Y-96245544D01*
X146404352Y-96312210D01*
X146371019Y-96412210D01*
X145971019Y-96812210D01*
X146404352Y-96812210D01*
X146671019Y-96178877D02*
X146704352Y-96145544D01*
X146771019Y-96112210D01*
X146937686Y-96112210D01*
X147004352Y-96145544D01*
X147037686Y-96178877D01*
X147071019Y-96245544D01*
X147071019Y-96312210D01*
X147037686Y-96412210D01*
X146637686Y-96812210D01*
X147071019Y-96812210D01*
X139182082Y-102513720D02*
X139111371Y-102914414D01*
X139464924Y-102796563D02*
X138969950Y-103291538D01*
X138781388Y-103102976D01*
X138757818Y-103032265D01*
X138757818Y-102985125D01*
X138781388Y-102914414D01*
X138852099Y-102843704D01*
X138922809Y-102820133D01*
X138969950Y-102820133D01*
X139040660Y-102843704D01*
X139229222Y-103032265D01*
X138545686Y-102772993D02*
X138498545Y-102772993D01*
X138427834Y-102749423D01*
X138309983Y-102631572D01*
X138286413Y-102560861D01*
X138286413Y-102513720D01*
X138309983Y-102443010D01*
X138357124Y-102395869D01*
X138451405Y-102348729D01*
X139017090Y-102348729D01*
X138710677Y-102042316D01*
X137909289Y-102230878D02*
X137862149Y-102183737D01*
X137838579Y-102113027D01*
X137838579Y-102065886D01*
X137862149Y-101995175D01*
X137932860Y-101877324D01*
X138050711Y-101759473D01*
X138168562Y-101688762D01*
X138239273Y-101665192D01*
X138286413Y-101665192D01*
X138357124Y-101688762D01*
X138404264Y-101735903D01*
X138427834Y-101806614D01*
X138427834Y-101853754D01*
X138404264Y-101924465D01*
X138333554Y-102042316D01*
X138215702Y-102160167D01*
X138097851Y-102230878D01*
X138027141Y-102254448D01*
X137980000Y-102254448D01*
X137909289Y-102230878D01*
X124059283Y-100671403D02*
X123658589Y-100600693D01*
X123776440Y-100954246D02*
X123281465Y-100459271D01*
X123470027Y-100270710D01*
X123540738Y-100247139D01*
X123587878Y-100247139D01*
X123658589Y-100270710D01*
X123729300Y-100341420D01*
X123752870Y-100412131D01*
X123752870Y-100459271D01*
X123729300Y-100529982D01*
X123540738Y-100718544D01*
X124294985Y-100435701D02*
X124389266Y-100341420D01*
X124412836Y-100270710D01*
X124412836Y-100223569D01*
X124389266Y-100105718D01*
X124318555Y-99987867D01*
X124129994Y-99799305D01*
X124059283Y-99775735D01*
X124012142Y-99775735D01*
X123941432Y-99799305D01*
X123847151Y-99893586D01*
X123823581Y-99964297D01*
X123823581Y-100011437D01*
X123847151Y-100082148D01*
X123965002Y-100199999D01*
X124035713Y-100223569D01*
X124082853Y-100223569D01*
X124153564Y-100199999D01*
X124247845Y-100105718D01*
X124271415Y-100035007D01*
X124271415Y-99987867D01*
X124247845Y-99917156D01*
X120026384Y-42719504D02*
X120597812Y-42719504D01*
X120312098Y-43719504D02*
X120312098Y-42719504D01*
X120835907Y-42719504D02*
X121454955Y-42719504D01*
X121121622Y-43100457D01*
X121264479Y-43100457D01*
X121359717Y-43148076D01*
X121407336Y-43195695D01*
X121454955Y-43290933D01*
X121454955Y-43529028D01*
X121407336Y-43624266D01*
X121359717Y-43671885D01*
X121264479Y-43719504D01*
X120978765Y-43719504D01*
X120883526Y-43671885D01*
X120835907Y-43624266D01*
X121788288Y-42719504D02*
X122454955Y-42719504D01*
X122026384Y-43719504D01*
X135941273Y-87263505D02*
X135988413Y-87263505D01*
X136082694Y-87310645D01*
X136129835Y-87357786D01*
X136176975Y-87452066D01*
X136176975Y-87546347D01*
X136153405Y-87617058D01*
X136082694Y-87734909D01*
X136011984Y-87805620D01*
X135894133Y-87876330D01*
X135823422Y-87899901D01*
X135729141Y-87899901D01*
X135634860Y-87852760D01*
X135587720Y-87805620D01*
X135540579Y-87711339D01*
X135540579Y-87664198D01*
X135328447Y-87546347D02*
X134998464Y-87216364D01*
X135705571Y-86933521D01*
X125610904Y-86799767D02*
X125540193Y-87200461D01*
X125893746Y-87082610D02*
X125398772Y-87577585D01*
X125210210Y-87389023D01*
X125186640Y-87318312D01*
X125186640Y-87271172D01*
X125210210Y-87200461D01*
X125280921Y-87129751D01*
X125351631Y-87106180D01*
X125398772Y-87106180D01*
X125469482Y-87129751D01*
X125658044Y-87318312D01*
X124950937Y-87129751D02*
X124644524Y-86823338D01*
X124998078Y-86799767D01*
X124927367Y-86729057D01*
X124903797Y-86658346D01*
X124903797Y-86611206D01*
X124927367Y-86540495D01*
X125045218Y-86422644D01*
X125115929Y-86399074D01*
X125163069Y-86399074D01*
X125233780Y-86422644D01*
X125375201Y-86564065D01*
X125398772Y-86634776D01*
X125398772Y-86681916D01*
X124479533Y-86658346D02*
X124173120Y-86351933D01*
X124526673Y-86328363D01*
X124455963Y-86257652D01*
X124432392Y-86186942D01*
X124432392Y-86139801D01*
X124455963Y-86069090D01*
X124573814Y-85951239D01*
X124644524Y-85927669D01*
X124691665Y-85927669D01*
X124762376Y-85951239D01*
X124903797Y-86092661D01*
X124927367Y-86163371D01*
X124927367Y-86210512D01*
X119760009Y-145924688D02*
X120331437Y-145924688D01*
X120045723Y-146924688D02*
X120045723Y-145924688D01*
X121188580Y-146924688D02*
X120617151Y-146924688D01*
X120902866Y-146924688D02*
X120902866Y-145924688D01*
X120807628Y-146067546D01*
X120712390Y-146162784D01*
X120617151Y-146210403D01*
X130272875Y-42031875D02*
X130239541Y-42065208D01*
X130139541Y-42098541D01*
X130072875Y-42098541D01*
X129972875Y-42065208D01*
X129906208Y-41998541D01*
X129872875Y-41931875D01*
X129839541Y-41798541D01*
X129839541Y-41698541D01*
X129872875Y-41565208D01*
X129906208Y-41498541D01*
X129972875Y-41431875D01*
X130072875Y-41398541D01*
X130139541Y-41398541D01*
X130239541Y-41431875D01*
X130272875Y-41465208D01*
X130539541Y-41465208D02*
X130572875Y-41431875D01*
X130639541Y-41398541D01*
X130806208Y-41398541D01*
X130872875Y-41431875D01*
X130906208Y-41465208D01*
X130939541Y-41531875D01*
X130939541Y-41598541D01*
X130906208Y-41698541D01*
X130506208Y-42098541D01*
X130939541Y-42098541D01*
X131172875Y-41398541D02*
X131606208Y-41398541D01*
X131372875Y-41665208D01*
X131472875Y-41665208D01*
X131539541Y-41698541D01*
X131572875Y-41731875D01*
X131606208Y-41798541D01*
X131606208Y-41965208D01*
X131572875Y-42031875D01*
X131539541Y-42065208D01*
X131472875Y-42098541D01*
X131272875Y-42098541D01*
X131206208Y-42065208D01*
X131172875Y-42031875D01*
D13*
X130639366Y-79791458D02*
X130639366Y-79922691D01*
X130845590Y-79922691D02*
X130451889Y-79922691D01*
X130451889Y-79735215D01*
X130639366Y-79454000D02*
X130658114Y-79397757D01*
X130676861Y-79379009D01*
X130714357Y-79360261D01*
X130770600Y-79360261D01*
X130808095Y-79379009D01*
X130826843Y-79397757D01*
X130845590Y-79435252D01*
X130845590Y-79585233D01*
X130451889Y-79585233D01*
X130451889Y-79454000D01*
X130470637Y-79416504D01*
X130489385Y-79397757D01*
X130526880Y-79379009D01*
X130564375Y-79379009D01*
X130601871Y-79397757D01*
X130620618Y-79416504D01*
X130639366Y-79454000D01*
X130639366Y-79585233D01*
X130489385Y-79210280D02*
X130470637Y-79191532D01*
X130451889Y-79154037D01*
X130451889Y-79060299D01*
X130470637Y-79022803D01*
X130489385Y-79004056D01*
X130526880Y-78985308D01*
X130564375Y-78985308D01*
X130620618Y-79004056D01*
X130845590Y-79229028D01*
X130845590Y-78985308D01*
D12*
X110039541Y-152161755D02*
X109706208Y-151685565D01*
X109468113Y-152161755D02*
X109468113Y-151161755D01*
X109849065Y-151161755D01*
X109944303Y-151209375D01*
X109991922Y-151256994D01*
X110039541Y-151352232D01*
X110039541Y-151495089D01*
X109991922Y-151590327D01*
X109944303Y-151637946D01*
X109849065Y-151685565D01*
X109468113Y-151685565D01*
X110468113Y-151637946D02*
X110801446Y-151637946D01*
X110944303Y-152161755D02*
X110468113Y-152161755D01*
X110468113Y-151161755D01*
X110944303Y-151161755D01*
X111706208Y-151637946D02*
X111372875Y-151637946D01*
X111372875Y-152161755D02*
X111372875Y-151161755D01*
X111849065Y-151161755D01*
X112372875Y-151161755D02*
X112372875Y-151399851D01*
X112134779Y-151304613D02*
X112372875Y-151399851D01*
X112610970Y-151304613D01*
X112230017Y-151590327D02*
X112372875Y-151399851D01*
X112515732Y-151590327D01*
X113134779Y-151161755D02*
X113134779Y-151399851D01*
X112896684Y-151304613D02*
X113134779Y-151399851D01*
X113372875Y-151304613D01*
X112991922Y-151590327D02*
X113134779Y-151399851D01*
X113277636Y-151590327D01*
X113947398Y-74209255D02*
X113947398Y-74923541D01*
X113899779Y-75066398D01*
X113804541Y-75161636D01*
X113661684Y-75209255D01*
X113566446Y-75209255D01*
X114947398Y-75209255D02*
X114375970Y-75209255D01*
X114661684Y-75209255D02*
X114661684Y-74209255D01*
X114566446Y-74352113D01*
X114471208Y-74447351D01*
X114375970Y-74494970D01*
X129362583Y-105974704D02*
X128961889Y-105903994D01*
X129079740Y-106257547D02*
X128584765Y-105762572D01*
X128773327Y-105574011D01*
X128844038Y-105550440D01*
X128891178Y-105550440D01*
X128961889Y-105574011D01*
X129032600Y-105644721D01*
X129056170Y-105715432D01*
X129056170Y-105762572D01*
X129032600Y-105833283D01*
X128844038Y-106021845D01*
X129456864Y-105220457D02*
X129786847Y-105550440D01*
X129150451Y-105149747D02*
X129386153Y-105621151D01*
X129692566Y-105314738D01*
X127241263Y-103853383D02*
X126840569Y-103782673D01*
X126958420Y-104136226D02*
X126463445Y-103641251D01*
X126652007Y-103452690D01*
X126722718Y-103429119D01*
X126769858Y-103429119D01*
X126840569Y-103452690D01*
X126911280Y-103523400D01*
X126934850Y-103594111D01*
X126934850Y-103641251D01*
X126911280Y-103711962D01*
X126722718Y-103900524D01*
X127170552Y-102934145D02*
X127076271Y-103028426D01*
X127052701Y-103099136D01*
X127052701Y-103146277D01*
X127076271Y-103264128D01*
X127146982Y-103381979D01*
X127335544Y-103570541D01*
X127406254Y-103594111D01*
X127453395Y-103594111D01*
X127524106Y-103570541D01*
X127618386Y-103476260D01*
X127641957Y-103405549D01*
X127641957Y-103358409D01*
X127618386Y-103287698D01*
X127500535Y-103169847D01*
X127429825Y-103146277D01*
X127382684Y-103146277D01*
X127311974Y-103169847D01*
X127217693Y-103264128D01*
X127194122Y-103334838D01*
X127194122Y-103381979D01*
X127217693Y-103452690D01*
X139939352Y-83091169D02*
X139606019Y-83324502D01*
X139939352Y-83491169D02*
X139239352Y-83491169D01*
X139239352Y-83224502D01*
X139272686Y-83157835D01*
X139306019Y-83124502D01*
X139372686Y-83091169D01*
X139472686Y-83091169D01*
X139539352Y-83124502D01*
X139572686Y-83157835D01*
X139606019Y-83224502D01*
X139606019Y-83491169D01*
X139239352Y-82857835D02*
X139239352Y-82424502D01*
X139506019Y-82657835D01*
X139506019Y-82557835D01*
X139539352Y-82491169D01*
X139572686Y-82457835D01*
X139639352Y-82424502D01*
X139806019Y-82424502D01*
X139872686Y-82457835D01*
X139906019Y-82491169D01*
X139939352Y-82557835D01*
X139939352Y-82757835D01*
X139906019Y-82824502D01*
X139872686Y-82857835D01*
X139239352Y-81991169D02*
X139239352Y-81924502D01*
X139272686Y-81857835D01*
X139306019Y-81824502D01*
X139372686Y-81791169D01*
X139506019Y-81757835D01*
X139672686Y-81757835D01*
X139806019Y-81791169D01*
X139872686Y-81824502D01*
X139906019Y-81857835D01*
X139939352Y-81924502D01*
X139939352Y-81991169D01*
X139906019Y-82057835D01*
X139872686Y-82091169D01*
X139806019Y-82124502D01*
X139672686Y-82157835D01*
X139506019Y-82157835D01*
X139372686Y-82124502D01*
X139306019Y-82091169D01*
X139272686Y-82057835D01*
X139239352Y-81991169D01*
X129519651Y-44488879D02*
X129186318Y-44012689D01*
X128948223Y-44488879D02*
X128948223Y-43488879D01*
X129329175Y-43488879D01*
X129424413Y-43536499D01*
X129472032Y-43584118D01*
X129519651Y-43679356D01*
X129519651Y-43822213D01*
X129472032Y-43917451D01*
X129424413Y-43965070D01*
X129329175Y-44012689D01*
X128948223Y-44012689D01*
X129948223Y-43965070D02*
X130281556Y-43965070D01*
X130424413Y-44488879D02*
X129948223Y-44488879D01*
X129948223Y-43488879D01*
X130424413Y-43488879D01*
X131186318Y-43965070D02*
X130852985Y-43965070D01*
X130852985Y-44488879D02*
X130852985Y-43488879D01*
X131329175Y-43488879D01*
X131852985Y-43488879D02*
X131852985Y-43726975D01*
X131614889Y-43631737D02*
X131852985Y-43726975D01*
X132091080Y-43631737D01*
X131710127Y-43917451D02*
X131852985Y-43726975D01*
X131995842Y-43917451D01*
X132614889Y-43488879D02*
X132614889Y-43726975D01*
X132376794Y-43631737D02*
X132614889Y-43726975D01*
X132852985Y-43631737D01*
X132472032Y-43917451D02*
X132614889Y-43726975D01*
X132757746Y-43917451D01*
X155329437Y-42719504D02*
X155900865Y-42719504D01*
X155615151Y-43719504D02*
X155615151Y-42719504D01*
X156138960Y-42719504D02*
X156758008Y-42719504D01*
X156424675Y-43100457D01*
X156567532Y-43100457D01*
X156662770Y-43148076D01*
X156710389Y-43195695D01*
X156758008Y-43290933D01*
X156758008Y-43529028D01*
X156710389Y-43624266D01*
X156662770Y-43671885D01*
X156567532Y-43719504D01*
X156281818Y-43719504D01*
X156186579Y-43671885D01*
X156138960Y-43624266D01*
X157091341Y-42719504D02*
X157710389Y-42719504D01*
X157377056Y-43100457D01*
X157519913Y-43100457D01*
X157615151Y-43148076D01*
X157662770Y-43195695D01*
X157710389Y-43290933D01*
X157710389Y-43529028D01*
X157662770Y-43624266D01*
X157615151Y-43671885D01*
X157519913Y-43719504D01*
X157234199Y-43719504D01*
X157138960Y-43671885D01*
X157091341Y-43624266D01*
X138031227Y-104626794D02*
X137697894Y-104860127D01*
X138031227Y-105026794D02*
X137331227Y-105026794D01*
X137331227Y-104760127D01*
X137364561Y-104693460D01*
X137397894Y-104660127D01*
X137464561Y-104626794D01*
X137564561Y-104626794D01*
X137631227Y-104660127D01*
X137664561Y-104693460D01*
X137697894Y-104760127D01*
X137697894Y-105026794D01*
X138031227Y-103960127D02*
X138031227Y-104360127D01*
X138031227Y-104160127D02*
X137331227Y-104160127D01*
X137431227Y-104226794D01*
X137497894Y-104293460D01*
X137531227Y-104360127D01*
X138031227Y-103626794D02*
X138031227Y-103493460D01*
X137997894Y-103426794D01*
X137964561Y-103393460D01*
X137864561Y-103326794D01*
X137731227Y-103293460D01*
X137464561Y-103293460D01*
X137397894Y-103326794D01*
X137364561Y-103360127D01*
X137331227Y-103426794D01*
X137331227Y-103560127D01*
X137364561Y-103626794D01*
X137397894Y-103660127D01*
X137464561Y-103693460D01*
X137631227Y-103693460D01*
X137697894Y-103660127D01*
X137731227Y-103626794D01*
X137764561Y-103560127D01*
X137764561Y-103426794D01*
X137731227Y-103360127D01*
X137697894Y-103326794D01*
X137631227Y-103293460D01*
X125514000Y-95176896D02*
X125113306Y-95106185D01*
X125231157Y-95459738D02*
X124736182Y-94964764D01*
X124924744Y-94776202D01*
X124995455Y-94752632D01*
X125042595Y-94752632D01*
X125113306Y-94776202D01*
X125184016Y-94846913D01*
X125207587Y-94917623D01*
X125207587Y-94964764D01*
X125184016Y-95035474D01*
X124995455Y-95224036D01*
X125985404Y-94705491D02*
X125702561Y-94988334D01*
X125843983Y-94846913D02*
X125349008Y-94351938D01*
X125372578Y-94469789D01*
X125372578Y-94564070D01*
X125349008Y-94634781D01*
X125655421Y-94045525D02*
X125961834Y-93739112D01*
X125985404Y-94092665D01*
X126056115Y-94021955D01*
X126126825Y-93998384D01*
X126173966Y-93998384D01*
X126244677Y-94021955D01*
X126362528Y-94139806D01*
X126386098Y-94210516D01*
X126386098Y-94257657D01*
X126362528Y-94328368D01*
X126221106Y-94469789D01*
X126150396Y-94493359D01*
X126103255Y-94493359D01*
X137244184Y-124359255D02*
X137244184Y-125073541D01*
X137196565Y-125216398D01*
X137101327Y-125311636D01*
X136958470Y-125359255D01*
X136863232Y-125359255D01*
X137625136Y-124359255D02*
X138244184Y-124359255D01*
X137910851Y-124740208D01*
X138053708Y-124740208D01*
X138148946Y-124787827D01*
X138196565Y-124835446D01*
X138244184Y-124930684D01*
X138244184Y-125168779D01*
X138196565Y-125264017D01*
X138148946Y-125311636D01*
X138053708Y-125359255D01*
X137767994Y-125359255D01*
X137672755Y-125311636D01*
X137625136Y-125264017D01*
X163019651Y-44488879D02*
X162686318Y-44012689D01*
X162448223Y-44488879D02*
X162448223Y-43488879D01*
X162829175Y-43488879D01*
X162924413Y-43536499D01*
X162972032Y-43584118D01*
X163019651Y-43679356D01*
X163019651Y-43822213D01*
X162972032Y-43917451D01*
X162924413Y-43965070D01*
X162829175Y-44012689D01*
X162448223Y-44012689D01*
X163448223Y-43965070D02*
X163781556Y-43965070D01*
X163924413Y-44488879D02*
X163448223Y-44488879D01*
X163448223Y-43488879D01*
X163924413Y-43488879D01*
X164686318Y-43965070D02*
X164352985Y-43965070D01*
X164352985Y-44488879D02*
X164352985Y-43488879D01*
X164829175Y-43488879D01*
X165352985Y-43488879D02*
X165352985Y-43726975D01*
X165114889Y-43631737D02*
X165352985Y-43726975D01*
X165591080Y-43631737D01*
X165210127Y-43917451D02*
X165352985Y-43726975D01*
X165495842Y-43917451D01*
X166114889Y-43488879D02*
X166114889Y-43726975D01*
X165876794Y-43631737D02*
X166114889Y-43726975D01*
X166352985Y-43631737D01*
X165972032Y-43917451D02*
X166114889Y-43726975D01*
X166257746Y-43917451D01*
X131960821Y-85073373D02*
X131927488Y-85106706D01*
X131827488Y-85140039D01*
X131760821Y-85140039D01*
X131660821Y-85106706D01*
X131594154Y-85040039D01*
X131560821Y-84973373D01*
X131527488Y-84840039D01*
X131527488Y-84740039D01*
X131560821Y-84606706D01*
X131594154Y-84540039D01*
X131660821Y-84473373D01*
X131760821Y-84440039D01*
X131827488Y-84440039D01*
X131927488Y-84473373D01*
X131960821Y-84506706D01*
X132294154Y-85140039D02*
X132427488Y-85140039D01*
X132494154Y-85106706D01*
X132527488Y-85073373D01*
X132594154Y-84973373D01*
X132627488Y-84840039D01*
X132627488Y-84573373D01*
X132594154Y-84506706D01*
X132560821Y-84473373D01*
X132494154Y-84440039D01*
X132360821Y-84440039D01*
X132294154Y-84473373D01*
X132260821Y-84506706D01*
X132227488Y-84573373D01*
X132227488Y-84740039D01*
X132260821Y-84806706D01*
X132294154Y-84840039D01*
X132360821Y-84873373D01*
X132494154Y-84873373D01*
X132560821Y-84840039D01*
X132594154Y-84806706D01*
X132627488Y-84740039D01*
X146159316Y-91157871D02*
X145758622Y-91087160D01*
X145876473Y-91440713D02*
X145381498Y-90945739D01*
X145570060Y-90757177D01*
X145640771Y-90733607D01*
X145687911Y-90733607D01*
X145758622Y-90757177D01*
X145829332Y-90827888D01*
X145852903Y-90898598D01*
X145852903Y-90945739D01*
X145829332Y-91016449D01*
X145640771Y-91205011D01*
X145900043Y-90521475D02*
X145900043Y-90474334D01*
X145923613Y-90403623D01*
X146041464Y-90285772D01*
X146112175Y-90262202D01*
X146159316Y-90262202D01*
X146230026Y-90285772D01*
X146277167Y-90332913D01*
X146324307Y-90427194D01*
X146324307Y-90992879D01*
X146630720Y-90686466D01*
X146725001Y-89932219D02*
X147054984Y-90262202D01*
X146418588Y-89861508D02*
X146654290Y-90332913D01*
X146960703Y-90026500D01*
X111072985Y-265692124D02*
X111039651Y-265725457D01*
X110939651Y-265758790D01*
X110872985Y-265758790D01*
X110772985Y-265725457D01*
X110706318Y-265658790D01*
X110672985Y-265592124D01*
X110639651Y-265458790D01*
X110639651Y-265358790D01*
X110672985Y-265225457D01*
X110706318Y-265158790D01*
X110772985Y-265092124D01*
X110872985Y-265058790D01*
X110939651Y-265058790D01*
X111039651Y-265092124D01*
X111072985Y-265125457D01*
X111739651Y-265758790D02*
X111339651Y-265758790D01*
X111539651Y-265758790D02*
X111539651Y-265058790D01*
X111472985Y-265158790D01*
X111406318Y-265225457D01*
X111339651Y-265258790D01*
X112339651Y-265058790D02*
X112206318Y-265058790D01*
X112139651Y-265092124D01*
X112106318Y-265125457D01*
X112039651Y-265225457D01*
X112006318Y-265358790D01*
X112006318Y-265625457D01*
X112039651Y-265692124D01*
X112072985Y-265725457D01*
X112139651Y-265758790D01*
X112272985Y-265758790D01*
X112339651Y-265725457D01*
X112372985Y-265692124D01*
X112406318Y-265625457D01*
X112406318Y-265458790D01*
X112372985Y-265392124D01*
X112339651Y-265358790D01*
X112272985Y-265325457D01*
X112139651Y-265325457D01*
X112072985Y-265358790D01*
X112039651Y-265392124D01*
X112006318Y-265458790D01*
X126784197Y-84783060D02*
X126713486Y-85183754D01*
X127067039Y-85065903D02*
X126572065Y-85560878D01*
X126383503Y-85372316D01*
X126359933Y-85301605D01*
X126359933Y-85254465D01*
X126383503Y-85183754D01*
X126454214Y-85113044D01*
X126524924Y-85089473D01*
X126572065Y-85089473D01*
X126642775Y-85113044D01*
X126831337Y-85301605D01*
X126124230Y-85113044D02*
X125817817Y-84806631D01*
X126171371Y-84783060D01*
X126100660Y-84712350D01*
X126077090Y-84641639D01*
X126077090Y-84594499D01*
X126100660Y-84523788D01*
X126218511Y-84405937D01*
X126289222Y-84382367D01*
X126336362Y-84382367D01*
X126407073Y-84405937D01*
X126548494Y-84547358D01*
X126572065Y-84618069D01*
X126572065Y-84665209D01*
X125558545Y-84217375D02*
X125888528Y-83887392D01*
X125487834Y-84523788D02*
X125959239Y-84288086D01*
X125652826Y-83981673D01*
X141973244Y-86858662D02*
X141572550Y-86787951D01*
X141690401Y-87141504D02*
X141195426Y-86646530D01*
X141383988Y-86457968D01*
X141454699Y-86434398D01*
X141501839Y-86434398D01*
X141572550Y-86457968D01*
X141643260Y-86528679D01*
X141666831Y-86599389D01*
X141666831Y-86646530D01*
X141643260Y-86717240D01*
X141454699Y-86905802D01*
X141713971Y-86222266D02*
X141713971Y-86175125D01*
X141737541Y-86104414D01*
X141855392Y-85986563D01*
X141926103Y-85962993D01*
X141973244Y-85962993D01*
X142043954Y-85986563D01*
X142091095Y-86033704D01*
X142138235Y-86127985D01*
X142138235Y-86693670D01*
X142444648Y-86387257D01*
X142444648Y-85821572D02*
X142373937Y-85845142D01*
X142326797Y-85845142D01*
X142256086Y-85821572D01*
X142232516Y-85798002D01*
X142208946Y-85727291D01*
X142208946Y-85680150D01*
X142232516Y-85609440D01*
X142326797Y-85515159D01*
X142397508Y-85491589D01*
X142444648Y-85491589D01*
X142515359Y-85515159D01*
X142538929Y-85538729D01*
X142562499Y-85609440D01*
X142562499Y-85656580D01*
X142538929Y-85727291D01*
X142444648Y-85821572D01*
X142421078Y-85892282D01*
X142421078Y-85939423D01*
X142444648Y-86010134D01*
X142538929Y-86104414D01*
X142609640Y-86127985D01*
X142656780Y-86127985D01*
X142727491Y-86104414D01*
X142821772Y-86010134D01*
X142845342Y-85939423D01*
X142845342Y-85892282D01*
X142821772Y-85821572D01*
X142727491Y-85727291D01*
X142656780Y-85703721D01*
X142609640Y-85703721D01*
X142538929Y-85727291D01*
X135382477Y-105873374D02*
X135049144Y-106106707D01*
X135382477Y-106273374D02*
X134682477Y-106273374D01*
X134682477Y-106006707D01*
X134715811Y-105940040D01*
X134749144Y-105906707D01*
X134815811Y-105873374D01*
X134915811Y-105873374D01*
X134982477Y-105906707D01*
X135015811Y-105940040D01*
X135049144Y-106006707D01*
X135049144Y-106273374D01*
X135382477Y-105206707D02*
X135382477Y-105606707D01*
X135382477Y-105406707D02*
X134682477Y-105406707D01*
X134782477Y-105473374D01*
X134849144Y-105540040D01*
X134882477Y-105606707D01*
X134682477Y-104973374D02*
X134682477Y-104506707D01*
X135382477Y-104806707D01*
X133209129Y-86250621D02*
X133209129Y-86297761D01*
X133161989Y-86392042D01*
X133114849Y-86439183D01*
X133020568Y-86486323D01*
X132926287Y-86486323D01*
X132855576Y-86462753D01*
X132737725Y-86392042D01*
X132667014Y-86321332D01*
X132596304Y-86203481D01*
X132572733Y-86132770D01*
X132572733Y-86038489D01*
X132619874Y-85944208D01*
X132667014Y-85897068D01*
X132761295Y-85849927D01*
X132808436Y-85849927D01*
X133185559Y-85378523D02*
X133091278Y-85472804D01*
X133067708Y-85543514D01*
X133067708Y-85590655D01*
X133091278Y-85708506D01*
X133161989Y-85826357D01*
X133350551Y-86014919D01*
X133421261Y-86038489D01*
X133468402Y-86038489D01*
X133539113Y-86014919D01*
X133633393Y-85920638D01*
X133656964Y-85849927D01*
X133656964Y-85802787D01*
X133633393Y-85732076D01*
X133515542Y-85614225D01*
X133444832Y-85590655D01*
X133397691Y-85590655D01*
X133326981Y-85614225D01*
X133232700Y-85708506D01*
X133209129Y-85779216D01*
X133209129Y-85826357D01*
X133232700Y-85897068D01*
X142977335Y-87975890D02*
X142576641Y-87905179D01*
X142694492Y-88258732D02*
X142199517Y-87763758D01*
X142388079Y-87575196D01*
X142458790Y-87551626D01*
X142505930Y-87551626D01*
X142576641Y-87575196D01*
X142647351Y-87645907D01*
X142670922Y-87716617D01*
X142670922Y-87763758D01*
X142647351Y-87834468D01*
X142458790Y-88023030D01*
X142718062Y-87339494D02*
X142718062Y-87292353D01*
X142741632Y-87221642D01*
X142859483Y-87103791D01*
X142930194Y-87080221D01*
X142977335Y-87080221D01*
X143048045Y-87103791D01*
X143095186Y-87150932D01*
X143142326Y-87245213D01*
X143142326Y-87810898D01*
X143448739Y-87504485D01*
X143118756Y-86844519D02*
X143448739Y-86514536D01*
X143731582Y-87221642D01*
X120847061Y-97430960D02*
X120613727Y-97097627D01*
X120447061Y-97430960D02*
X120447061Y-96730960D01*
X120713727Y-96730960D01*
X120780394Y-96764294D01*
X120813727Y-96797627D01*
X120847061Y-96864294D01*
X120847061Y-96964294D01*
X120813727Y-97030960D01*
X120780394Y-97064294D01*
X120713727Y-97097627D01*
X120447061Y-97097627D01*
X121513727Y-97430960D02*
X121113727Y-97430960D01*
X121313727Y-97430960D02*
X121313727Y-96730960D01*
X121247061Y-96830960D01*
X121180394Y-96897627D01*
X121113727Y-96930960D01*
X122180394Y-97430960D02*
X121780394Y-97430960D01*
X121980394Y-97430960D02*
X121980394Y-96730960D01*
X121913727Y-96830960D01*
X121847061Y-96897627D01*
X121780394Y-96930960D01*
X124394569Y-87994746D02*
X124323858Y-88395440D01*
X124677411Y-88277589D02*
X124182437Y-88772564D01*
X123993875Y-88584002D01*
X123970305Y-88513291D01*
X123970305Y-88466151D01*
X123993875Y-88395440D01*
X124064586Y-88324730D01*
X124135296Y-88301159D01*
X124182437Y-88301159D01*
X124253147Y-88324730D01*
X124441709Y-88513291D01*
X123734602Y-88324730D02*
X123428189Y-88018317D01*
X123781743Y-87994746D01*
X123711032Y-87924036D01*
X123687462Y-87853325D01*
X123687462Y-87806185D01*
X123711032Y-87735474D01*
X123828883Y-87617623D01*
X123899594Y-87594053D01*
X123946734Y-87594053D01*
X124017445Y-87617623D01*
X124158866Y-87759044D01*
X124182437Y-87829755D01*
X124182437Y-87876895D01*
X123286768Y-87782614D02*
X123239628Y-87782614D01*
X123168917Y-87759044D01*
X123051066Y-87641193D01*
X123027496Y-87570482D01*
X123027496Y-87523342D01*
X123051066Y-87452631D01*
X123098206Y-87405491D01*
X123192487Y-87358350D01*
X123758173Y-87358350D01*
X123451760Y-87051937D01*
X142406208Y-126631875D02*
X142372875Y-126665208D01*
X142272875Y-126698541D01*
X142206208Y-126698541D01*
X142106208Y-126665208D01*
X142039541Y-126598541D01*
X142006208Y-126531875D01*
X141972875Y-126398541D01*
X141972875Y-126298541D01*
X142006208Y-126165208D01*
X142039541Y-126098541D01*
X142106208Y-126031875D01*
X142206208Y-125998541D01*
X142272875Y-125998541D01*
X142372875Y-126031875D01*
X142406208Y-126065208D01*
X143039541Y-125998541D02*
X142706208Y-125998541D01*
X142672875Y-126331875D01*
X142706208Y-126298541D01*
X142772875Y-126265208D01*
X142939541Y-126265208D01*
X143006208Y-126298541D01*
X143039541Y-126331875D01*
X143072875Y-126398541D01*
X143072875Y-126565208D01*
X143039541Y-126631875D01*
X143006208Y-126665208D01*
X142939541Y-126698541D01*
X142772875Y-126698541D01*
X142706208Y-126665208D01*
X142672875Y-126631875D01*
X127998322Y-101059625D02*
X127625872Y-101223445D01*
X127920286Y-101451939D02*
X127233736Y-101315376D01*
X127285760Y-101053833D01*
X127331459Y-100994951D01*
X127370655Y-100968761D01*
X127442544Y-100949074D01*
X127540622Y-100968583D01*
X127599505Y-101014282D01*
X127625695Y-101053478D01*
X127645381Y-101125366D01*
X127593357Y-101386909D01*
X127357293Y-100694212D02*
X127448335Y-100236512D01*
X128076358Y-100667311D01*
D14*
X104112860Y-152270308D02*
X104112860Y-154909308D01*
X104112860Y-154909308D02*
X101261860Y-154909308D01*
X96112860Y-141809308D02*
X96112860Y-154909308D01*
X104112860Y-144703308D02*
X104112860Y-141909308D01*
X104112860Y-144703308D02*
X104112860Y-141809308D01*
X104112860Y-141809308D02*
X101261860Y-141809308D01*
X97911860Y-141809308D02*
X96112860Y-141809308D01*
X97911860Y-154909308D02*
X96112860Y-154909308D01*
D15*
X168246875Y-154299375D02*
X170278875Y-154299375D01*
X170278875Y-153359375D02*
X168246875Y-153359375D01*
X168246875Y-154299375D02*
X168246875Y-153359375D01*
X170278875Y-154299375D02*
X170278875Y-153359375D01*
X140673766Y-97413533D02*
X139236925Y-98850374D01*
X139901606Y-99515055D02*
X141338447Y-98078214D01*
X140673766Y-97413533D02*
X141338447Y-98078214D01*
X139236925Y-98850374D02*
X139901606Y-99515055D01*
X143013633Y-88453423D02*
X144091264Y-87375792D01*
X143341731Y-86626259D02*
X142264100Y-87703890D01*
X143013633Y-88453423D02*
X142264100Y-87703890D01*
X144091264Y-87375792D02*
X143341731Y-86626259D01*
X122665929Y-90673739D02*
X121588298Y-89596108D01*
X120838765Y-90345641D02*
X121916396Y-91423272D01*
X122665929Y-90673739D02*
X121916396Y-91423272D01*
X121588298Y-89596108D02*
X120838765Y-90345641D01*
D14*
X170568360Y-43543308D02*
X170568360Y-40904308D01*
X170568360Y-40904308D02*
X173419360Y-40904308D01*
X178568360Y-54004308D02*
X178568360Y-40904308D01*
X170568360Y-51110308D02*
X170568360Y-53904308D01*
X170568360Y-51110308D02*
X170568360Y-54004308D01*
X170568360Y-54004308D02*
X173419360Y-54004308D01*
X176769360Y-54004308D02*
X178568360Y-54004308D01*
X176769360Y-40904308D02*
X178568360Y-40904308D01*
D15*
X135118113Y-46384624D02*
X137150113Y-46384624D01*
X137150113Y-45444624D02*
X135118113Y-45444624D01*
X135118113Y-46384624D02*
X135118113Y-45444624D01*
X137150113Y-46384624D02*
X137150113Y-45444624D01*
X146216985Y-154612124D02*
X148248985Y-154612124D01*
X148248985Y-153672124D02*
X146216985Y-153672124D01*
X146216985Y-154612124D02*
X146216985Y-153672124D01*
X148248985Y-154612124D02*
X148248985Y-153672124D01*
X127848985Y-153812124D02*
X125816985Y-153812124D01*
X125816985Y-154752124D02*
X127848985Y-154752124D01*
X127848985Y-153812124D02*
X127848985Y-154752124D01*
X125816985Y-153812124D02*
X125816985Y-154752124D01*
X142877229Y-98300245D02*
X143954860Y-99377876D01*
X144704393Y-98628343D02*
X143626762Y-97550712D01*
X142877229Y-98300245D02*
X143626762Y-97550712D01*
X143954860Y-99377876D02*
X144704393Y-98628343D01*
D14*
X170561860Y-144448308D02*
X170561860Y-141809308D01*
X170561860Y-141809308D02*
X173412860Y-141809308D01*
X178561860Y-154909308D02*
X178561860Y-141809308D01*
X170561860Y-152015308D02*
X170561860Y-154809308D01*
X170561860Y-152015308D02*
X170561860Y-154909308D01*
X170561860Y-154909308D02*
X173412860Y-154909308D01*
X176762860Y-154909308D02*
X178561860Y-154909308D01*
X176762860Y-141809308D02*
X178561860Y-141809308D01*
D15*
X144074294Y-89514084D02*
X145151925Y-88436453D01*
X144402392Y-87686920D02*
X143324761Y-88764551D01*
X144074294Y-89514084D02*
X143324761Y-88764551D01*
X145151925Y-88436453D02*
X144402392Y-87686920D01*
X142138955Y-92068614D02*
X140702114Y-93505455D01*
X141366795Y-94170136D02*
X142803636Y-92733295D01*
X142138955Y-92068614D02*
X142803636Y-92733295D01*
X140702114Y-93505455D02*
X141366795Y-94170136D01*
X146195614Y-91635404D02*
X147273245Y-90557773D01*
X146523712Y-89808240D02*
X145446081Y-90885871D01*
X146195614Y-91635404D02*
X145446081Y-90885871D01*
X147273245Y-90557773D02*
X146523712Y-89808240D01*
D14*
X134227488Y-64748374D02*
X128017488Y-64748374D01*
X128456488Y-72548374D02*
X125817488Y-72548374D01*
X125817488Y-72548374D02*
X125817488Y-69697374D01*
X133523488Y-72548374D02*
X136417488Y-72548374D01*
X136417488Y-72548374D02*
X136417488Y-69697374D01*
D15*
X139781363Y-149560249D02*
X137749363Y-149560249D01*
X137749363Y-150500249D02*
X139781363Y-150500249D01*
X139781363Y-149560249D02*
X139781363Y-150500249D01*
X137749363Y-149560249D02*
X137749363Y-150500249D01*
X146544985Y-42759124D02*
X148576985Y-42759124D01*
X148576985Y-41819124D02*
X146544985Y-41819124D01*
X146544985Y-42759124D02*
X146544985Y-41819124D01*
X148576985Y-42759124D02*
X148576985Y-41819124D01*
X157266985Y-154492124D02*
X159298985Y-154492124D01*
X159298985Y-153552124D02*
X157266985Y-153552124D01*
X157266985Y-154492124D02*
X157266985Y-153552124D01*
X159298985Y-154492124D02*
X159298985Y-153552124D01*
X143583636Y-95995455D02*
X142146795Y-94558614D01*
X141482114Y-95223295D02*
X142918955Y-96660136D01*
X143583636Y-95995455D02*
X142918955Y-96660136D01*
X142146795Y-94558614D02*
X141482114Y-95223295D01*
X132651488Y-81253374D02*
X134683488Y-81253374D01*
X134683488Y-80313374D02*
X132651488Y-80313374D01*
X132651488Y-81253374D02*
X132651488Y-80313374D01*
X134683488Y-81253374D02*
X134683488Y-80313374D01*
X141765515Y-100416771D02*
X143202356Y-98979930D01*
X142537675Y-98315249D02*
X141100834Y-99752090D01*
X141765515Y-100416771D02*
X141100834Y-99752090D01*
X143202356Y-98979930D02*
X142537675Y-98315249D01*
X158736985Y-42682124D02*
X160768985Y-42682124D01*
X160768985Y-41742124D02*
X158736985Y-41742124D01*
X158736985Y-42682124D02*
X158736985Y-41742124D01*
X160768985Y-42682124D02*
X160768985Y-41742124D01*
X117618485Y-41819124D02*
X115586485Y-41819124D01*
X115586485Y-42759124D02*
X117618485Y-42759124D01*
X117618485Y-41819124D02*
X117618485Y-42759124D01*
X115586485Y-41819124D02*
X115586485Y-42759124D01*
X135311924Y-101337595D02*
X134234293Y-102415226D01*
X134983826Y-103164759D02*
X136061457Y-102087128D01*
X135311924Y-101337595D02*
X136061457Y-102087128D01*
X134234293Y-102415226D02*
X134983826Y-103164759D01*
X131907488Y-104081374D02*
X131907488Y-105605374D01*
X132967488Y-105605374D02*
X132967488Y-104081374D01*
X131907488Y-104081374D02*
X132967488Y-104081374D01*
X131907488Y-105605374D02*
X132967488Y-105605374D01*
X130404978Y-100054723D02*
X130075124Y-101542599D01*
X131109998Y-101772025D02*
X131439852Y-100284149D01*
X130404978Y-100054723D02*
X131439852Y-100284149D01*
X130075124Y-101542599D02*
X131109998Y-101772025D01*
X125930936Y-92956169D02*
X124406936Y-92956169D01*
X124406936Y-94016169D02*
X125930936Y-94016169D01*
X125930936Y-92956169D02*
X125930936Y-94016169D01*
X124406936Y-92956169D02*
X124406936Y-94016169D01*
X139888221Y-85214874D02*
X140965852Y-84137243D01*
X140216319Y-83387710D02*
X139138688Y-84465341D01*
X139888221Y-85214874D02*
X139138688Y-84465341D01*
X140965852Y-84137243D02*
X140216319Y-83387710D01*
X126097165Y-101466663D02*
X125019534Y-102544294D01*
X125769067Y-103293827D02*
X126846698Y-102216196D01*
X126097165Y-101466663D02*
X126846698Y-102216196D01*
X125019534Y-102544294D02*
X125769067Y-103293827D01*
D14*
X151834699Y-149175124D02*
X151834699Y-150213124D01*
X158438699Y-149175124D02*
X158438699Y-150213124D01*
X153282699Y-152742124D02*
X156990699Y-152742124D01*
X153282699Y-146646124D02*
X156990699Y-146646124D01*
X156660699Y-149694124D02*
G75*
G03*
X156660699Y-149694124I-1524000J0D01*
G01*
D15*
X127951488Y-87763374D02*
X129983488Y-87763374D01*
X129983488Y-86823374D02*
X127951488Y-86823374D01*
X127951488Y-87763374D02*
X127951488Y-86823374D01*
X129983488Y-87763374D02*
X129983488Y-86823374D01*
X106663875Y-41757124D02*
X104631875Y-41757124D01*
X104631875Y-42697124D02*
X106663875Y-42697124D01*
X106663875Y-41757124D02*
X106663875Y-42697124D01*
X104631875Y-41757124D02*
X104631875Y-42697124D01*
X168256875Y-42469375D02*
X170288875Y-42469375D01*
X170288875Y-41529375D02*
X168256875Y-41529375D01*
X168256875Y-42469375D02*
X168256875Y-41529375D01*
X170288875Y-42469375D02*
X170288875Y-41529375D01*
X106663875Y-153724375D02*
X104631875Y-153724375D01*
X104631875Y-154664375D02*
X106663875Y-154664375D01*
X106663875Y-153724375D02*
X106663875Y-154664375D01*
X104631875Y-153724375D02*
X104631875Y-154664375D01*
X128391488Y-83873374D02*
X130423488Y-83873374D01*
X130423488Y-82933374D02*
X128391488Y-82933374D01*
X128391488Y-83873374D02*
X128391488Y-82933374D01*
X130423488Y-83873374D02*
X130423488Y-82933374D01*
X122980936Y-92034294D02*
X121456936Y-92034294D01*
X121456936Y-93094294D02*
X122980936Y-93094294D01*
X122980936Y-92034294D02*
X122980936Y-93094294D01*
X121456936Y-92034294D02*
X121456936Y-93094294D01*
D14*
X104119360Y-51365308D02*
X104119360Y-54004308D01*
X104119360Y-54004308D02*
X101268360Y-54004308D01*
X96119360Y-40904308D02*
X96119360Y-54004308D01*
X104119360Y-43798308D02*
X104119360Y-41004308D01*
X104119360Y-43798308D02*
X104119360Y-40904308D01*
X104119360Y-40904308D02*
X101268360Y-40904308D01*
X97918360Y-40904308D02*
X96119360Y-40904308D01*
X97918360Y-54004308D02*
X96119360Y-54004308D01*
D16*
X128614055Y-96705713D02*
G75*
G03*
X128614055Y-96705713I-100000J0D01*
G01*
D17*
X139297433Y-94761169D02*
X139092373Y-94966230D01*
X134347686Y-89811422D02*
X134142625Y-90016482D01*
X134347686Y-99710916D02*
X134552747Y-99505856D01*
X129397939Y-94761169D02*
X129602999Y-94556108D01*
X139297433Y-94761169D02*
X139092373Y-94556108D01*
X134347686Y-89811422D02*
X134552747Y-90016482D01*
X134347686Y-99710916D02*
X134142625Y-99505856D01*
X129397939Y-94761169D02*
X129602999Y-94966230D01*
D15*
X137360811Y-104708544D02*
X137360811Y-106232544D01*
X138420811Y-106232544D02*
X138420811Y-104708544D01*
X137360811Y-104708544D02*
X138420811Y-104708544D01*
X137360811Y-106232544D02*
X138420811Y-106232544D01*
X123975844Y-99345343D02*
X122898213Y-100422974D01*
X123647746Y-101172507D02*
X124725377Y-100094876D01*
X123975844Y-99345343D02*
X124725377Y-100094876D01*
X122898213Y-100422974D02*
X123647746Y-101172507D01*
X120768436Y-95906169D02*
X119244436Y-95906169D01*
X119244436Y-96966169D02*
X120768436Y-96966169D01*
X120768436Y-95906169D02*
X120768436Y-96966169D01*
X119244436Y-95906169D02*
X119244436Y-96966169D01*
X145425686Y-95675544D02*
X146949686Y-95675544D01*
X146949686Y-94615544D02*
X145425686Y-94615544D01*
X145425686Y-95675544D02*
X145425686Y-94615544D01*
X146949686Y-95675544D02*
X146949686Y-94615544D01*
X138680979Y-101300797D02*
X139758610Y-102378428D01*
X140508143Y-101628895D02*
X139430512Y-100551264D01*
X138680979Y-101300797D02*
X139430512Y-100551264D01*
X139758610Y-102378428D02*
X140508143Y-101628895D01*
X125036505Y-100406003D02*
X123958874Y-101483634D01*
X124708407Y-102233167D02*
X125786038Y-101155536D01*
X125036505Y-100406003D02*
X125786038Y-101155536D01*
X123958874Y-101483634D02*
X124708407Y-102233167D01*
D14*
X116531646Y-45955124D02*
X116531646Y-46993124D01*
X123135646Y-45955124D02*
X123135646Y-46993124D01*
X117979646Y-49522124D02*
X121687646Y-49522124D01*
X117979646Y-43426124D02*
X121687646Y-43426124D01*
X121357646Y-46474124D02*
G75*
G03*
X121357646Y-46474124I-1524000J0D01*
G01*
D15*
X135529266Y-86073680D02*
X136966107Y-87510521D01*
X137630788Y-86845840D02*
X136193947Y-85408999D01*
X135529266Y-86073680D02*
X136193947Y-85408999D01*
X136966107Y-87510521D02*
X137630788Y-86845840D01*
X124912872Y-87709225D02*
X123835241Y-86631594D01*
X123085708Y-87381127D02*
X124163339Y-88458758D01*
X124912872Y-87709225D02*
X124163339Y-88458758D01*
X123835241Y-86631594D02*
X123085708Y-87381127D01*
D14*
X116265271Y-149160308D02*
X116265271Y-150198308D01*
X122869271Y-149160308D02*
X122869271Y-150198308D01*
X117713271Y-152727308D02*
X121421271Y-152727308D01*
X117713271Y-146631308D02*
X121421271Y-146631308D01*
X121091271Y-149679308D02*
G75*
G03*
X121091271Y-149679308I-1524000J0D01*
G01*
D15*
X129145985Y-41819124D02*
X127113985Y-41819124D01*
X127113985Y-42759124D02*
X129145985Y-42759124D01*
X129145985Y-41819124D02*
X129145985Y-42759124D01*
X127113985Y-41819124D02*
X127113985Y-42759124D01*
D14*
X122923988Y-68790874D02*
X108785988Y-68790874D01*
X123354988Y-76640874D02*
X123354988Y-74140874D01*
X123354988Y-74140874D02*
X124604988Y-74140874D01*
X124604988Y-74140874D02*
X124604988Y-72341874D01*
X121685988Y-76650874D02*
X123344988Y-76650874D01*
X123344988Y-76650874D02*
X123354988Y-76640874D01*
X123354988Y-76640874D02*
X123354988Y-76650874D01*
X119185988Y-76650874D02*
X120023988Y-76650874D01*
X116685988Y-76650874D02*
X117523988Y-76650874D01*
X114185988Y-76650874D02*
X115023988Y-76650874D01*
X111685988Y-76650874D02*
X112523988Y-76650874D01*
X108354988Y-76650874D02*
X110023988Y-76650874D01*
X107104988Y-74140874D02*
X107104988Y-72341874D01*
X108354988Y-76650874D02*
X108354988Y-74140874D01*
X108354988Y-74140874D02*
X107104988Y-74140874D01*
X107104988Y-74140874D02*
X107104988Y-74130874D01*
D18*
X122474988Y-77590874D02*
G75*
G03*
X122474988Y-77590874I-200000J0D01*
G01*
D15*
X130339805Y-105709304D02*
X129262174Y-106786935D01*
X130011707Y-107536468D02*
X131089338Y-106458837D01*
X130339805Y-105709304D02*
X131089338Y-106458837D01*
X129262174Y-106786935D02*
X130011707Y-107536468D01*
X128218485Y-103587983D02*
X127140854Y-104665614D01*
X127890387Y-105415147D02*
X128968018Y-104337516D01*
X128218485Y-103587983D02*
X128968018Y-104337516D01*
X127140854Y-104665614D02*
X127890387Y-105415147D01*
X138802686Y-83403169D02*
X138802686Y-81879169D01*
X137742686Y-81879169D02*
X137742686Y-83403169D01*
X138802686Y-83403169D02*
X137742686Y-83403169D01*
X138802686Y-81879169D02*
X137742686Y-81879169D01*
D14*
X151834699Y-45955124D02*
X151834699Y-46993124D01*
X158438699Y-45955124D02*
X158438699Y-46993124D01*
X153282699Y-49522124D02*
X156990699Y-49522124D01*
X153282699Y-43426124D02*
X156990699Y-43426124D01*
X156660699Y-46474124D02*
G75*
G03*
X156660699Y-46474124I-1524000J0D01*
G01*
D15*
X138534561Y-103414794D02*
X138534561Y-104938794D01*
X139594561Y-104938794D02*
X139594561Y-103414794D01*
X138534561Y-103414794D02*
X139594561Y-103414794D01*
X138534561Y-104938794D02*
X139594561Y-104938794D01*
X126726924Y-94675793D02*
X125649293Y-95753424D01*
X126398826Y-96502957D02*
X127476457Y-95425326D01*
X126726924Y-94675793D02*
X127476457Y-95425326D01*
X125649293Y-95753424D02*
X126398826Y-96502957D01*
D14*
X131318488Y-123993374D02*
X145456488Y-123993374D01*
X130887488Y-116143374D02*
X130887488Y-118643374D01*
X130887488Y-118643374D02*
X129637488Y-118643374D01*
X129637488Y-118643374D02*
X129637488Y-120442374D01*
X132556488Y-116133374D02*
X130897488Y-116133374D01*
X130897488Y-116133374D02*
X130887488Y-116143374D01*
X130887488Y-116143374D02*
X130887488Y-116133374D01*
X135056488Y-116133374D02*
X134218488Y-116133374D01*
X137556488Y-116133374D02*
X136718488Y-116133374D01*
X140056488Y-116133374D02*
X139218488Y-116133374D01*
X142556488Y-116133374D02*
X141718488Y-116133374D01*
X145887488Y-116133374D02*
X144218488Y-116133374D01*
X147137488Y-118643374D02*
X147137488Y-120442374D01*
X145887488Y-116133374D02*
X145887488Y-118643374D01*
X145887488Y-118643374D02*
X147137488Y-118643374D01*
X147137488Y-118643374D02*
X147137488Y-118653374D01*
D18*
X132167488Y-115193374D02*
G75*
G03*
X132167488Y-115193374I-200000J0D01*
G01*
D15*
X133093488Y-85623374D02*
X131061488Y-85623374D01*
X131061488Y-86563374D02*
X133093488Y-86563374D01*
X133093488Y-85623374D02*
X133093488Y-86563374D01*
X131061488Y-85623374D02*
X131061488Y-86563374D01*
X145134954Y-90574744D02*
X146212585Y-89497113D01*
X145463052Y-88747580D02*
X144385421Y-89825211D01*
X145134954Y-90574744D02*
X144385421Y-89825211D01*
X146212585Y-89497113D02*
X145463052Y-88747580D01*
X110506985Y-154742124D02*
X112538985Y-154742124D01*
X112538985Y-153802124D02*
X110506985Y-153802124D01*
X110506985Y-154742124D02*
X110506985Y-153802124D01*
X112538985Y-154742124D02*
X112538985Y-153802124D01*
X126201070Y-85807423D02*
X125123439Y-84729792D01*
X124373906Y-85479325D02*
X125451537Y-86556956D01*
X126201070Y-85807423D02*
X125451537Y-86556956D01*
X125123439Y-84729792D02*
X124373906Y-85479325D01*
X140948882Y-86275535D02*
X142026513Y-85197904D01*
X141276980Y-84448371D02*
X140199349Y-85526002D01*
X140948882Y-86275535D02*
X140199349Y-85526002D01*
X142026513Y-85197904D02*
X141276980Y-84448371D01*
X135885811Y-104661374D02*
X135885811Y-106185374D01*
X136945811Y-106185374D02*
X136945811Y-104661374D01*
X135885811Y-104661374D02*
X136945811Y-104661374D01*
X135885811Y-106185374D02*
X136945811Y-106185374D01*
X134398955Y-85838614D02*
X132962114Y-87275455D01*
X133626795Y-87940136D02*
X135063636Y-86503295D01*
X134398955Y-85838614D02*
X135063636Y-86503295D01*
X132962114Y-87275455D02*
X133626795Y-87940136D01*
X141952973Y-87392763D02*
X143030604Y-86315132D01*
X142281071Y-85565599D02*
X141203440Y-86643230D01*
X141952973Y-87392763D02*
X141203440Y-86643230D01*
X143030604Y-86315132D02*
X142281071Y-85565599D01*
X122059061Y-97934294D02*
X120535061Y-97934294D01*
X120535061Y-98994294D02*
X122059061Y-98994294D01*
X122059061Y-97934294D02*
X122059061Y-98994294D01*
X120535061Y-97934294D02*
X120535061Y-98994294D01*
X123811442Y-89019109D02*
X122733811Y-87941478D01*
X121984278Y-88691011D02*
X123061909Y-89768642D01*
X123811442Y-89019109D02*
X123061909Y-89768642D01*
X122733811Y-87941478D02*
X121984278Y-88691011D01*
X143628875Y-124319375D02*
X141596875Y-124319375D01*
X141596875Y-125259375D02*
X143628875Y-125259375D01*
X143628875Y-124319375D02*
X143628875Y-125259375D01*
X141596875Y-124319375D02*
X141596875Y-125259375D01*
X128663404Y-100296038D02*
X128366086Y-101790755D01*
X129405718Y-101997550D02*
X129703036Y-100502833D01*
X128663404Y-100296038D02*
X129703036Y-100502833D01*
X128366086Y-101790755D02*
X129405718Y-101997550D01*
%LPC*%
D19*
X105336860Y-145859308D03*
X105336860Y-148359308D03*
X105336860Y-150859308D03*
D20*
X99586860Y-153959308D03*
X99586860Y-142759308D03*
D21*
X168712875Y-153829375D03*
X169812875Y-153829375D03*
D22*
X140676595Y-98075385D03*
X139898777Y-98853203D03*
D23*
X142859484Y-87858039D03*
X143495880Y-87221643D03*
D24*
X133187488Y-77978374D03*
X133187488Y-79448374D03*
D25*
X122070545Y-90827888D03*
X121434149Y-90191492D03*
D26*
X130852985Y-148502124D03*
D19*
X169344360Y-49954308D03*
X169344360Y-47454308D03*
X169344360Y-44954308D03*
D20*
X175094360Y-41854308D03*
X175094360Y-53054308D03*
D21*
X135584113Y-45914624D03*
X136684113Y-45914624D03*
D26*
X143852985Y-148502124D03*
D21*
X146682985Y-154142124D03*
X147782985Y-154142124D03*
X127382985Y-154282124D03*
X126282985Y-154282124D03*
D27*
X143472613Y-98146096D03*
X144109009Y-98782492D03*
D19*
X169337860Y-150859308D03*
X169337860Y-148359308D03*
X169337860Y-145859308D03*
D20*
X175087860Y-142759308D03*
X175087860Y-153959308D03*
D23*
X143920145Y-88918700D03*
X144556541Y-88282304D03*
D22*
X142141784Y-92730466D03*
X141363966Y-93508284D03*
D23*
X146041465Y-91040020D03*
X146677861Y-90403624D03*
D26*
X143852985Y-47236499D03*
D28*
X132367488Y-73528374D03*
X129867488Y-73528374D03*
D29*
X126767488Y-66528374D03*
X135467488Y-66528374D03*
D21*
X139315363Y-150030249D03*
X138215363Y-150030249D03*
X147010985Y-42289124D03*
X148110985Y-42289124D03*
X157732985Y-154022124D03*
X158832985Y-154022124D03*
D30*
X142921784Y-95998284D03*
X142143966Y-95220466D03*
D21*
X133117488Y-80783374D03*
X134217488Y-80783374D03*
D31*
X141762686Y-99754919D03*
X142540504Y-98977101D03*
D21*
X159202985Y-42212124D03*
X160302985Y-42212124D03*
X117152485Y-42289124D03*
X116052485Y-42289124D03*
D26*
X164352985Y-148502124D03*
D32*
X135466073Y-101932979D03*
X134829677Y-102569375D03*
D33*
X132437488Y-104393374D03*
X132437488Y-105293374D03*
D34*
X130854886Y-100474041D03*
X130660090Y-101352707D03*
D35*
X125618936Y-93486169D03*
X124718936Y-93486169D03*
D23*
X139734072Y-84619490D03*
X140370468Y-83983094D03*
D32*
X126251314Y-102062047D03*
X125614918Y-102698443D03*
D36*
X158971699Y-147694124D03*
X158971699Y-151694124D03*
X151301699Y-151694124D03*
X151301699Y-147694124D03*
D21*
X128417488Y-87293374D03*
X129517488Y-87293374D03*
X106197875Y-42227124D03*
X105097875Y-42227124D03*
X168722875Y-41999375D03*
X169822875Y-41999375D03*
X106197875Y-154194375D03*
X105097875Y-154194375D03*
X128857488Y-83403374D03*
X129957488Y-83403374D03*
D35*
X122668936Y-92564294D03*
X121768936Y-92564294D03*
D19*
X105343360Y-44954308D03*
X105343360Y-47454308D03*
X105343360Y-49954308D03*
D20*
X99593360Y-53054308D03*
X99593360Y-41854308D03*
D26*
X110352985Y-47236499D03*
D37*
X135358849Y-99661419D03*
X135712402Y-99307866D03*
X136065955Y-98954312D03*
X136419509Y-98600759D03*
X136773062Y-98247205D03*
X137126616Y-97893652D03*
X137480169Y-97540099D03*
X137833722Y-97186545D03*
X138187276Y-96832992D03*
X138540829Y-96479438D03*
X138894383Y-96125885D03*
X139247936Y-95772332D03*
X133336523Y-89860919D03*
X132982970Y-90214472D03*
X132629417Y-90568026D03*
X132275863Y-90921579D03*
X131922310Y-91275133D03*
X131568756Y-91628686D03*
X131215203Y-91982239D03*
X130861650Y-92335793D03*
X130508096Y-92689346D03*
X130154543Y-93042900D03*
X129800989Y-93396453D03*
X129447436Y-93750006D03*
D38*
X129447436Y-95772332D03*
X129800989Y-96125885D03*
X130154543Y-96479438D03*
X130508096Y-96832992D03*
X130861650Y-97186545D03*
X131215203Y-97540099D03*
X131568756Y-97893652D03*
X131922310Y-98247205D03*
X132275863Y-98600759D03*
X132629417Y-98954312D03*
X132982970Y-99307866D03*
X133336523Y-99661419D03*
X139247936Y-93750006D03*
X138894383Y-93396453D03*
X138540829Y-93042900D03*
X138187276Y-92689346D03*
X137833722Y-92335793D03*
X137480169Y-91982239D03*
X137126616Y-91628686D03*
X136773062Y-91275133D03*
X136419509Y-90921579D03*
X136065955Y-90568026D03*
X135712402Y-90214472D03*
X135358849Y-89860919D03*
D33*
X137890811Y-105020544D03*
X137890811Y-105920544D03*
D32*
X124129993Y-99940727D03*
X123493597Y-100577123D03*
D35*
X120456436Y-96436169D03*
X119556436Y-96436169D03*
X145737686Y-95145544D03*
X146637686Y-95145544D03*
D27*
X139276363Y-101146648D03*
X139912759Y-101783044D03*
D32*
X125190654Y-101001387D03*
X124554258Y-101637783D03*
D36*
X123668646Y-44474124D03*
X123668646Y-48474124D03*
X115998646Y-48474124D03*
X115998646Y-44474124D03*
D39*
X136191118Y-86070851D03*
X136968936Y-86848669D03*
D25*
X124317488Y-87863374D03*
X123681092Y-87226978D03*
D36*
X123402271Y-147679308D03*
X123402271Y-151679308D03*
X115732271Y-151679308D03*
X115732271Y-147679308D03*
D21*
X128679985Y-42289124D03*
X127579985Y-42289124D03*
D24*
X129597488Y-78968374D03*
X129597488Y-80438374D03*
D26*
X110352985Y-148359308D03*
D40*
X120854988Y-77760874D03*
X118354988Y-77760874D03*
X115854988Y-77760874D03*
X113354988Y-77760874D03*
X110854988Y-77760874D03*
D41*
X107754988Y-70260874D03*
X123954988Y-70260874D03*
D32*
X130493954Y-106304688D03*
X129857558Y-106941084D03*
X128372634Y-104183367D03*
X127736238Y-104819763D03*
D33*
X138272686Y-83091169D03*
X138272686Y-82191169D03*
D26*
X130852985Y-47236499D03*
D36*
X158971699Y-44474124D03*
X158971699Y-48474124D03*
X151301699Y-48474124D03*
X151301699Y-44474124D03*
D33*
X139064561Y-103726794D03*
X139064561Y-104626794D03*
D32*
X126881073Y-95271177D03*
X126244677Y-95907573D03*
D40*
X133387488Y-115023374D03*
X135887488Y-115023374D03*
X138387488Y-115023374D03*
X140887488Y-115023374D03*
X143387488Y-115023374D03*
D41*
X146487488Y-122523374D03*
X130287488Y-122523374D03*
D26*
X164352985Y-47236499D03*
D21*
X132627488Y-86093374D03*
X131527488Y-86093374D03*
D23*
X144980805Y-89979360D03*
X145617201Y-89342964D03*
D21*
X110972985Y-154272124D03*
X112072985Y-154272124D03*
D25*
X125605686Y-85961572D03*
X124969290Y-85325176D03*
D23*
X140794733Y-85680151D03*
X141431129Y-85043755D03*
D33*
X136415811Y-104973374D03*
X136415811Y-105873374D03*
D22*
X134401784Y-86500466D03*
X133623966Y-87278284D03*
D23*
X141798824Y-86797379D03*
X142435220Y-86160983D03*
D35*
X121747061Y-98464294D03*
X120847061Y-98464294D03*
D25*
X123216058Y-89173258D03*
X122579662Y-88536862D03*
D21*
X143162875Y-124789375D03*
X142062875Y-124789375D03*
D42*
X129122352Y-100705441D03*
X128946770Y-101588147D03*
M02*
