G04 #@! TF.GenerationSoftware,KiCad,Pcbnew,(6.0.10)*
G04 #@! TF.CreationDate,2023-07-31T20:15:45+01:00*
G04 #@! TF.ProjectId,magnetonetouchpad,6d61676e-6574-46f6-9e65-746f75636870,rev?*
G04 #@! TF.SameCoordinates,Original*
G04 #@! TF.FileFunction,Copper,L1,Top*
G04 #@! TF.FilePolarity,Positive*
%FSLAX46Y46*%
G04 Gerber Fmt 4.6, Leading zero omitted, Abs format (unit mm)*
G04 Created by KiCad (PCBNEW (6.0.10)) date 2023-07-31 20:15:45*
%MOMM*%
%LPD*%
G01*
G04 APERTURE LIST*
G04 Aperture macros list*
%AMRotRect*
0 Rectangle, with rotation*
0 The origin of the aperture is its center*
0 $1 length*
0 $2 width*
0 $3 Rotation angle, in degrees counterclockwise*
0 Add horizontal line*
21,1,$1,$2,0,0,$3*%
G04 Aperture macros list end*
G04 #@! TA.AperFunction,SMDPad,CuDef*
%ADD10R,0.600000X0.500000*%
G04 #@! TD*
G04 #@! TA.AperFunction,SMDPad,CuDef*
%ADD11RotRect,0.600000X0.500000X45.000000*%
G04 #@! TD*
G04 #@! TA.AperFunction,SMDPad,CuDef*
%ADD12RotRect,0.400000X0.600000X225.000000*%
G04 #@! TD*
G04 #@! TA.AperFunction,SMDPad,CuDef*
%ADD13R,0.970000X1.000000*%
G04 #@! TD*
G04 #@! TA.AperFunction,SMDPad,CuDef*
%ADD14RotRect,0.400000X0.600000X315.000000*%
G04 #@! TD*
G04 #@! TA.AperFunction,SMDPad,CuDef*
%ADD15R,4.500000X1.200000*%
G04 #@! TD*
G04 #@! TA.AperFunction,SMDPad,CuDef*
%ADD16R,3.000000X1.600000*%
G04 #@! TD*
G04 #@! TA.AperFunction,SMDPad,CuDef*
%ADD17RotRect,0.400000X0.600000X135.000000*%
G04 #@! TD*
G04 #@! TA.AperFunction,SMDPad,CuDef*
%ADD18R,1.300000X4.800000*%
G04 #@! TD*
G04 #@! TA.AperFunction,SMDPad,CuDef*
%ADD19R,1.800000X3.900000*%
G04 #@! TD*
G04 #@! TA.AperFunction,SMDPad,CuDef*
%ADD20RotRect,0.600000X0.500000X315.000000*%
G04 #@! TD*
G04 #@! TA.AperFunction,SMDPad,CuDef*
%ADD21RotRect,0.600000X0.500000X225.000000*%
G04 #@! TD*
G04 #@! TA.AperFunction,SMDPad,CuDef*
%ADD22RotRect,0.400000X0.600000X45.000000*%
G04 #@! TD*
G04 #@! TA.AperFunction,SMDPad,CuDef*
%ADD23R,0.600000X0.400000*%
G04 #@! TD*
G04 #@! TA.AperFunction,SMDPad,CuDef*
%ADD24RotRect,0.400000X0.600000X77.500000*%
G04 #@! TD*
G04 #@! TA.AperFunction,SMDPad,CuDef*
%ADD25R,0.400000X0.600000*%
G04 #@! TD*
G04 #@! TA.AperFunction,SMDPad,CuDef*
%ADD26R,3.500000X2.500000*%
G04 #@! TD*
G04 #@! TA.AperFunction,SMDPad,CuDef*
%ADD27RotRect,1.560000X0.280000X45.000000*%
G04 #@! TD*
G04 #@! TA.AperFunction,SMDPad,CuDef*
%ADD28RotRect,0.280000X1.560000X45.000000*%
G04 #@! TD*
G04 #@! TA.AperFunction,SMDPad,CuDef*
%ADD29RotRect,0.600000X0.500000X135.000000*%
G04 #@! TD*
G04 #@! TA.AperFunction,SMDPad,CuDef*
%ADD30R,1.200000X4.500000*%
G04 #@! TD*
G04 #@! TA.AperFunction,SMDPad,CuDef*
%ADD31R,1.600000X3.700000*%
G04 #@! TD*
G04 #@! TA.AperFunction,SMDPad,CuDef*
%ADD32RotRect,0.400000X0.600000X78.750000*%
G04 #@! TD*
G04 #@! TA.AperFunction,ViaPad*
%ADD33C,0.750000*%
G04 #@! TD*
G04 #@! TA.AperFunction,ViaPad*
%ADD34C,0.736600*%
G04 #@! TD*
G04 #@! TA.AperFunction,ViaPad*
%ADD35C,0.500000*%
G04 #@! TD*
G04 #@! TA.AperFunction,Conductor*
%ADD36C,0.500000*%
G04 #@! TD*
G04 #@! TA.AperFunction,Conductor*
%ADD37C,0.250000*%
G04 #@! TD*
G04 #@! TA.AperFunction,Conductor*
%ADD38C,0.300000*%
G04 #@! TD*
G04 #@! TA.AperFunction,Conductor*
%ADD39C,0.200000*%
G04 #@! TD*
G04 #@! TA.AperFunction,Conductor*
%ADD40C,0.127000*%
G04 #@! TD*
G04 APERTURE END LIST*
D10*
X169812875Y-153829375D03*
X168712875Y-153829375D03*
D11*
X139898777Y-98853203D03*
X140676595Y-98075385D03*
D12*
X143495880Y-87221643D03*
X142859484Y-87858039D03*
D13*
X133187488Y-77978374D03*
X133187488Y-79448374D03*
D14*
X121434149Y-90191492D03*
X122070545Y-90827888D03*
D15*
X169344360Y-49954308D03*
X169344360Y-47454308D03*
X169344360Y-44954308D03*
D16*
X175094360Y-41854308D03*
X175094360Y-53054308D03*
D10*
X136684113Y-45914624D03*
X135584113Y-45914624D03*
X147782985Y-154142124D03*
X146682985Y-154142124D03*
X126282985Y-154282124D03*
X127382985Y-154282124D03*
D17*
X144109009Y-98782492D03*
X143472613Y-98146096D03*
D15*
X169337860Y-150859308D03*
X169337860Y-148359308D03*
X169337860Y-145859308D03*
D16*
X175087860Y-142759308D03*
X175087860Y-153959308D03*
D12*
X144556541Y-88282304D03*
X143920145Y-88918700D03*
D11*
X141363966Y-93508284D03*
X142141784Y-92730466D03*
D12*
X146677861Y-90403624D03*
X146041465Y-91040020D03*
D18*
X132367488Y-73528374D03*
X129867488Y-73528374D03*
D19*
X126767488Y-66528374D03*
X135467488Y-66528374D03*
D10*
X138215363Y-150030249D03*
X139315363Y-150030249D03*
X148110985Y-42289124D03*
X147010985Y-42289124D03*
X158832985Y-154022124D03*
X157732985Y-154022124D03*
D20*
X142143966Y-95220466D03*
X142921784Y-95998284D03*
D10*
X134217488Y-80783374D03*
X133117488Y-80783374D03*
D21*
X142540504Y-98977101D03*
X141762686Y-99754919D03*
D10*
X160302985Y-42212124D03*
X159202985Y-42212124D03*
X116052485Y-42289124D03*
X117152485Y-42289124D03*
D22*
X134829677Y-102569375D03*
X135466073Y-101932979D03*
D23*
X132437488Y-105293374D03*
X132437488Y-104393374D03*
D24*
X130660090Y-101352707D03*
X130854886Y-100474041D03*
D25*
X124718936Y-93486169D03*
X125618936Y-93486169D03*
D12*
X140370468Y-83983094D03*
X139734072Y-84619490D03*
D22*
X125614918Y-102698443D03*
X126251314Y-102062047D03*
D26*
X151301699Y-147694124D03*
X151301699Y-151694124D03*
X158971699Y-151694124D03*
X158971699Y-147694124D03*
D10*
X129517488Y-87293374D03*
X128417488Y-87293374D03*
X105097875Y-42227124D03*
X106197875Y-42227124D03*
X169822875Y-41999375D03*
X168722875Y-41999375D03*
X105097875Y-154194375D03*
X106197875Y-154194375D03*
X129957488Y-83403374D03*
X128857488Y-83403374D03*
D25*
X121768936Y-92564294D03*
X122668936Y-92564294D03*
D15*
X105343360Y-44954308D03*
X105343360Y-47454308D03*
X105343360Y-49954308D03*
D16*
X99593360Y-53054308D03*
X99593360Y-41854308D03*
D27*
X129447436Y-95772332D03*
X129800989Y-96125885D03*
X130154543Y-96479438D03*
X130508096Y-96832992D03*
X130861650Y-97186545D03*
X131215203Y-97540099D03*
X131568756Y-97893652D03*
X131922310Y-98247205D03*
X132275863Y-98600759D03*
X132629417Y-98954312D03*
X132982970Y-99307866D03*
X133336523Y-99661419D03*
D28*
X135358849Y-99661419D03*
X135712402Y-99307866D03*
X136065955Y-98954312D03*
X136419509Y-98600759D03*
X136773062Y-98247205D03*
X137126616Y-97893652D03*
X137480169Y-97540099D03*
X137833722Y-97186545D03*
X138187276Y-96832992D03*
X138540829Y-96479438D03*
X138894383Y-96125885D03*
X139247936Y-95772332D03*
D27*
X139247936Y-93750006D03*
X138894383Y-93396453D03*
X138540829Y-93042900D03*
X138187276Y-92689346D03*
X137833722Y-92335793D03*
X137480169Y-91982239D03*
X137126616Y-91628686D03*
X136773062Y-91275133D03*
X136419509Y-90921579D03*
X136065955Y-90568026D03*
X135712402Y-90214472D03*
X135358849Y-89860919D03*
D28*
X133336523Y-89860919D03*
X132982970Y-90214472D03*
X132629417Y-90568026D03*
X132275863Y-90921579D03*
X131922310Y-91275133D03*
X131568756Y-91628686D03*
X131215203Y-91982239D03*
X130861650Y-92335793D03*
X130508096Y-92689346D03*
X130154543Y-93042900D03*
X129800989Y-93396453D03*
X129447436Y-93750006D03*
D23*
X137890811Y-105920544D03*
X137890811Y-105020544D03*
D22*
X123493597Y-100577123D03*
X124129993Y-99940727D03*
D25*
X119556436Y-96436169D03*
X120456436Y-96436169D03*
X146637686Y-95145544D03*
X145737686Y-95145544D03*
D17*
X139912759Y-101783044D03*
X139276363Y-101146648D03*
D22*
X124554258Y-101637783D03*
X125190654Y-101001387D03*
D26*
X115998646Y-44474124D03*
X115998646Y-48474124D03*
X123668646Y-48474124D03*
X123668646Y-44474124D03*
D29*
X136968936Y-86848669D03*
X136191118Y-86070851D03*
D14*
X123681092Y-87226978D03*
X124317488Y-87863374D03*
D26*
X115732271Y-147679308D03*
X115732271Y-151679308D03*
X123402271Y-151679308D03*
X123402271Y-147679308D03*
D10*
X127579985Y-42289124D03*
X128679985Y-42289124D03*
D13*
X129597488Y-78968374D03*
X129597488Y-80438374D03*
D30*
X120854988Y-77760874D03*
X118354988Y-77760874D03*
X115854988Y-77760874D03*
X113354988Y-77760874D03*
X110854988Y-77760874D03*
D31*
X107754988Y-70260874D03*
X123954988Y-70260874D03*
D22*
X129857558Y-106941084D03*
X130493954Y-106304688D03*
X127736238Y-104819763D03*
X128372634Y-104183367D03*
D23*
X138272686Y-82191169D03*
X138272686Y-83091169D03*
D26*
X151301699Y-44474124D03*
X151301699Y-48474124D03*
X158971699Y-48474124D03*
X158971699Y-44474124D03*
D23*
X139064561Y-104626794D03*
X139064561Y-103726794D03*
D22*
X126244677Y-95907573D03*
X126881073Y-95271177D03*
D30*
X133387488Y-115023374D03*
X135887488Y-115023374D03*
X138387488Y-115023374D03*
X140887488Y-115023374D03*
X143387488Y-115023374D03*
D31*
X146487488Y-122523374D03*
X130287488Y-122523374D03*
D10*
X131527488Y-86093374D03*
X132627488Y-86093374D03*
D12*
X145617201Y-89342964D03*
X144980805Y-89979360D03*
D10*
X112072985Y-154272124D03*
X110972985Y-154272124D03*
D14*
X124969290Y-85325176D03*
X125605686Y-85961572D03*
D12*
X141431129Y-85043755D03*
X140794733Y-85680151D03*
D23*
X136415811Y-105873374D03*
X136415811Y-104973374D03*
D11*
X133623966Y-87278284D03*
X134401784Y-86500466D03*
D12*
X142435220Y-86160983D03*
X141798824Y-86797379D03*
D25*
X120847061Y-98464294D03*
X121747061Y-98464294D03*
D14*
X122579662Y-88536862D03*
X123216058Y-89173258D03*
D10*
X142062875Y-124789375D03*
X143162875Y-124789375D03*
D32*
X128946770Y-101588147D03*
X129122352Y-100705441D03*
D15*
X105336860Y-145859308D03*
X105336860Y-148359308D03*
X105336860Y-150859308D03*
D16*
X99586860Y-153959308D03*
X99586860Y-142759308D03*
D33*
X127037488Y-84433374D03*
X132817488Y-96135874D03*
X142131436Y-96620544D03*
X127367488Y-87703374D03*
D34*
X139722686Y-100141169D03*
X136282875Y-84969375D03*
D35*
X144182875Y-124974169D03*
D33*
X144159561Y-93554624D03*
D34*
X135362875Y-84269375D03*
X141612686Y-101881169D03*
D33*
X136187488Y-79093374D03*
X132967488Y-84673374D03*
D34*
X112667488Y-84713374D03*
D33*
X125743992Y-74480492D03*
D34*
X139369486Y-97937302D03*
X131947619Y-89124361D03*
X138505984Y-110127870D03*
X137372686Y-85921169D03*
D35*
X98987686Y-88323669D03*
X98987686Y-123723669D03*
X98987686Y-111923669D03*
X98987686Y-135523669D03*
X98987686Y-117823669D03*
X98987686Y-100123669D03*
X98987686Y-64723669D03*
X98987686Y-106023669D03*
X98987686Y-136998669D03*
X98987686Y-70623669D03*
X98987686Y-76523669D03*
X98987686Y-58823669D03*
X98987686Y-129623669D03*
X98987686Y-82423669D03*
X98987686Y-94223669D03*
X138259561Y-60851794D03*
X141762686Y-66383044D03*
X143237686Y-73573669D03*
X144159561Y-78551794D03*
X133554988Y-83161169D03*
X136600186Y-83161169D03*
X109128311Y-84083044D03*
X119637686Y-91089294D03*
X132718491Y-88234991D03*
X139607686Y-89091169D03*
X139675186Y-94961169D03*
X129135186Y-94961169D03*
X124822875Y-96067419D03*
X130607488Y-102313374D03*
X138934561Y-106206794D03*
X137297488Y-110953374D03*
X137426863Y-118445249D03*
X125537686Y-122248669D03*
X125531312Y-128117198D03*
X131417488Y-134013374D03*
X104887686Y-100123669D03*
X104887686Y-88323669D03*
X104887686Y-58823669D03*
X104887686Y-136998669D03*
X104887686Y-64723669D03*
X104887686Y-129623669D03*
X104887686Y-70623669D03*
X104887686Y-76473572D03*
X104887686Y-135523669D03*
X104887686Y-111923669D03*
X104887686Y-117823669D03*
X104887686Y-106023669D03*
X104887686Y-123723669D03*
X104887686Y-82423669D03*
X104887686Y-94223669D03*
X110787686Y-64723669D03*
X110787686Y-111923669D03*
X110787686Y-74010874D03*
X110787686Y-82423669D03*
X110787686Y-136998669D03*
X110787686Y-58823669D03*
X110787686Y-70623669D03*
X110787686Y-94223669D03*
X110787686Y-117823669D03*
X110787686Y-129623669D03*
X110787686Y-100123669D03*
X110787686Y-106023669D03*
X110787686Y-88323669D03*
X110787686Y-123723669D03*
X110787686Y-135523669D03*
X116687686Y-100123669D03*
X116687686Y-123723669D03*
X116687686Y-106023669D03*
X116687686Y-117823669D03*
X116687686Y-135523669D03*
X116687686Y-64723669D03*
X116687686Y-129623669D03*
X116687686Y-111923669D03*
X116687686Y-72848374D03*
X116687686Y-94223669D03*
X116687686Y-70623669D03*
X116687686Y-58823669D03*
X116687686Y-86376169D03*
X116687686Y-82423669D03*
X116687686Y-136998669D03*
X122587686Y-111923669D03*
X122587686Y-58823669D03*
X122587686Y-94223669D03*
X122587686Y-117823669D03*
X122587686Y-86479919D03*
X122587686Y-129623669D03*
X122587686Y-64723669D03*
X122587686Y-123723669D03*
X122587686Y-74243572D03*
X122587686Y-106023669D03*
X122587686Y-96251794D03*
X122587686Y-70623669D03*
X122587686Y-82423669D03*
X122587686Y-136998669D03*
X122587686Y-135523669D03*
X128487686Y-129623669D03*
X128487686Y-116348669D03*
X128487686Y-58823669D03*
X128487686Y-89983044D03*
X128487686Y-108973669D03*
X128487686Y-84636169D03*
X128487686Y-69225625D03*
X128487686Y-99201794D03*
X128487686Y-102520544D03*
X128487686Y-82423669D03*
X128487686Y-76523669D03*
X128487686Y-136998669D03*
X128487686Y-123723669D03*
X128487686Y-64723669D03*
X128487686Y-135523669D03*
X133532875Y-103439375D03*
X134387686Y-112108044D03*
X134387686Y-69225625D03*
X134387686Y-76523669D03*
X134387686Y-129808044D03*
X134387686Y-100123669D03*
X134387686Y-123908044D03*
X134387686Y-136814294D03*
X134387686Y-107498669D03*
X134387686Y-58823669D03*
X134387686Y-135708044D03*
X134387686Y-106023669D03*
X134387686Y-82423669D03*
X134387686Y-63874564D03*
X134387686Y-118008044D03*
X140287686Y-78551794D03*
X140287686Y-129623669D03*
X140891436Y-99519919D03*
X140287686Y-117823669D03*
X140656436Y-101967419D03*
X140287686Y-92748669D03*
X140260186Y-111650069D03*
X140287686Y-106023669D03*
X140287686Y-76523669D03*
X140287686Y-64723669D03*
X140287686Y-136998669D03*
X140287686Y-135523669D03*
X140287686Y-82423669D03*
X140287686Y-58823669D03*
X140287686Y-123723669D03*
X140287686Y-107498669D03*
X140287686Y-70623669D03*
X140287686Y-88323669D03*
X146187686Y-93486169D03*
X146187686Y-82423669D03*
X146187686Y-58823669D03*
X146187686Y-88323669D03*
X146187686Y-70623669D03*
X146187686Y-117823669D03*
X146187686Y-76523669D03*
X146187686Y-100123669D03*
X146187686Y-106023669D03*
X146187686Y-136998669D03*
X146187686Y-135523669D03*
X146187686Y-64723669D03*
X146187686Y-129623669D03*
X146187686Y-119920249D03*
X146187686Y-111923669D03*
X152087686Y-94223669D03*
X152087686Y-123723669D03*
X152087686Y-82423669D03*
X152087686Y-64723669D03*
X152087686Y-136998669D03*
X152087686Y-106023669D03*
X152087686Y-100123669D03*
X152087686Y-135523669D03*
X152087686Y-58823669D03*
X152087686Y-117823669D03*
X152087686Y-108673374D03*
X152087686Y-76523669D03*
X152087686Y-70623669D03*
X152087686Y-88323669D03*
X152087686Y-129623669D03*
X157987686Y-123723669D03*
X157987686Y-76523669D03*
X157987686Y-82423669D03*
X157987686Y-64723669D03*
X157987686Y-117823669D03*
X157987686Y-70623669D03*
X155775186Y-86111169D03*
X157987686Y-111923669D03*
X157987686Y-100123669D03*
X157987686Y-106023669D03*
X157987686Y-88323669D03*
X157987686Y-129623669D03*
X157987686Y-135523669D03*
X157987686Y-58823669D03*
X157987686Y-94223669D03*
X157987686Y-136998669D03*
X163887686Y-135523669D03*
X163887686Y-106023669D03*
X163887686Y-117823669D03*
X163887686Y-123723669D03*
X163887686Y-76523669D03*
X163887686Y-136998669D03*
X163887686Y-58823669D03*
X163887686Y-100123669D03*
X163887686Y-82423669D03*
X163887686Y-129623669D03*
X163887686Y-88323669D03*
X163887686Y-94223669D03*
X163887686Y-64723669D03*
X163887686Y-70623669D03*
X163887686Y-111923669D03*
X169787686Y-123723669D03*
X169787686Y-82423669D03*
X169787686Y-100123669D03*
X169787686Y-117823669D03*
X169787686Y-135523669D03*
X169787686Y-64723669D03*
X169787686Y-111923669D03*
X169787686Y-136998669D03*
X169787686Y-129623669D03*
X169787686Y-106023669D03*
X169787686Y-76523669D03*
X169787686Y-94223669D03*
X169787686Y-58823669D03*
X169787686Y-88323669D03*
X169787686Y-70623669D03*
X175687686Y-129623669D03*
X175687686Y-82423669D03*
X175687686Y-123723669D03*
X175687686Y-58823669D03*
X175687686Y-117823669D03*
X175687686Y-64723669D03*
X175687686Y-135523669D03*
X175687686Y-136998669D03*
X175687686Y-70623669D03*
X175687686Y-111923669D03*
X175687686Y-106023669D03*
X175687686Y-76523669D03*
X175687686Y-88323669D03*
X175687686Y-100123669D03*
X175687686Y-94223669D03*
D33*
X175776863Y-151973374D03*
X107122875Y-152719375D03*
X140561238Y-151973374D03*
X118352985Y-151942124D03*
X153742985Y-151992124D03*
X105155318Y-152474432D03*
X130432985Y-152522124D03*
X108295613Y-150867124D03*
X140240363Y-150030249D03*
X163976863Y-151973374D03*
X128576863Y-151973374D03*
X167622875Y-152819375D03*
X166374738Y-151505249D03*
X109222985Y-152932124D03*
X143612985Y-152142124D03*
X155522985Y-153162124D03*
X101960375Y-154194375D03*
X148442985Y-153462124D03*
X113152985Y-153512124D03*
X172212860Y-148359308D03*
X171742875Y-153659375D03*
X102396613Y-148370874D03*
X125312985Y-153762124D03*
X159952985Y-153552124D03*
X137174738Y-150514624D03*
D35*
X98927488Y-150173374D03*
X173272875Y-149469375D03*
X175593488Y-45914624D03*
X100552863Y-46283374D03*
D33*
X134477863Y-45914624D03*
X119676485Y-43826124D03*
X144002985Y-43622124D03*
X146093488Y-44070874D03*
X98893488Y-44185376D03*
X121213485Y-43057624D03*
X169432875Y-43469375D03*
X166374738Y-44992749D03*
X130435485Y-43826124D03*
X156342985Y-44492124D03*
X155172985Y-43592124D03*
X167832875Y-43559375D03*
X108296613Y-44992749D03*
X110693488Y-44070874D03*
X134293488Y-44070874D03*
X107860375Y-43333374D03*
X172459113Y-48311499D03*
X161282985Y-42442124D03*
X173019858Y-42411499D03*
X126592985Y-42289124D03*
X149372985Y-42392124D03*
X102396613Y-42411499D03*
X102396613Y-47020874D03*
X114296985Y-42289124D03*
X137796613Y-45730249D03*
D36*
X142299524Y-96620544D02*
X142921784Y-95998284D01*
X128023283Y-83393374D02*
X128667488Y-83393374D01*
X134497488Y-80783374D02*
X136187488Y-79093374D01*
X141762686Y-101371169D02*
X141762686Y-99754919D01*
X142131436Y-96620544D02*
X142299524Y-96620544D01*
X128023738Y-73596102D02*
X129867488Y-73528374D01*
X134217488Y-80783374D02*
X134497488Y-80783374D01*
D37*
X134354415Y-91625493D02*
X132982970Y-90214473D01*
D36*
X112667488Y-82123374D02*
X110854988Y-80279624D01*
X139722686Y-100141169D02*
X139722686Y-99029294D01*
D38*
X133285087Y-92643556D02*
X131922310Y-91275133D01*
D36*
X139722686Y-99029294D02*
X139898777Y-98853203D01*
D39*
X140887488Y-116783988D02*
X140887488Y-115023374D01*
D36*
X125743992Y-74480492D02*
X126594760Y-73596102D01*
X144159561Y-93554624D02*
X142141784Y-92730466D01*
D39*
X142062875Y-117959375D02*
X140887488Y-116783988D01*
D36*
X132967488Y-84673374D02*
X132627488Y-86093374D01*
X127037488Y-84433374D02*
X128023283Y-83393374D01*
D39*
X142062875Y-124789375D02*
X142062875Y-117959375D01*
D36*
X112667488Y-84713374D02*
X112667488Y-82123374D01*
X141612686Y-101881169D02*
X141762686Y-101371169D01*
X110854988Y-80279624D02*
X110854988Y-77760874D01*
X143162875Y-124789375D02*
X143998081Y-124789375D01*
X136282875Y-84969375D02*
X136191118Y-86070851D01*
X142062875Y-124789375D02*
X143162875Y-124789375D01*
X143998081Y-124789375D02*
X144182875Y-124974169D01*
X126594760Y-73596102D02*
X128023738Y-73596102D01*
D39*
X134401784Y-86500466D02*
X135362875Y-84269375D01*
D36*
X128417488Y-87293374D02*
X127777488Y-87293374D01*
D38*
X134020650Y-97531260D02*
X132629417Y-98954313D01*
D36*
X127777488Y-87293374D02*
X127367488Y-87703374D01*
D37*
X131527488Y-86093374D02*
X131947619Y-89124361D01*
X132275863Y-90921579D02*
X129517488Y-88163374D01*
D36*
X132417488Y-76213374D02*
X132417488Y-73578374D01*
X129957488Y-83403374D02*
X129517488Y-87293374D01*
D37*
X129517488Y-88163374D02*
X129517488Y-87293374D01*
D36*
X131537488Y-84283374D02*
X133117488Y-80783374D01*
X143387488Y-115023374D02*
X143387488Y-99824085D01*
X129662488Y-78968374D02*
X132417488Y-76213374D01*
X133187488Y-79448374D02*
X133187488Y-77978374D01*
X133187488Y-79448374D02*
X133117488Y-79518374D01*
D37*
X131912875Y-89819375D02*
X132629417Y-90568026D01*
X131947619Y-89124361D02*
X131912875Y-89819375D01*
D36*
X129597488Y-78968374D02*
X129662488Y-78968374D01*
X132417488Y-73578374D02*
X132367488Y-73528374D01*
X143387488Y-99824085D02*
X142540504Y-98977101D01*
D37*
X139345164Y-97962595D02*
X138187276Y-96832992D01*
D36*
X141401534Y-98800324D02*
X140860970Y-98259760D01*
X131527488Y-86093374D02*
X131537488Y-84283374D01*
X132417488Y-76213374D02*
X133187488Y-77978374D01*
X142540504Y-98977101D02*
X142363727Y-98800324D01*
X133117488Y-79518374D02*
X133117488Y-80783374D01*
X139345164Y-97961624D02*
X139369486Y-97937302D01*
X140563805Y-97962595D02*
X140860970Y-98259760D01*
X129597488Y-80438374D02*
X129957488Y-83403374D01*
X142363727Y-98800324D02*
X141401534Y-98800324D01*
X139345164Y-97962595D02*
X139345164Y-97961624D01*
X129597488Y-80438374D02*
X129597488Y-78968374D01*
X139345164Y-97962595D02*
X140563805Y-97962595D01*
D39*
X133336523Y-89860919D02*
X133722875Y-88609375D01*
X133722875Y-88609375D02*
X133623966Y-87278284D01*
D37*
X135358849Y-89860919D02*
X135358849Y-88556307D01*
D39*
X138505984Y-110127870D02*
X138387488Y-115143374D01*
D37*
X135358849Y-88556307D02*
X136968936Y-86848669D01*
X136968936Y-86848669D02*
X137372686Y-85921169D01*
D39*
X139247936Y-93750007D02*
X141363966Y-93508284D01*
X139247936Y-95772332D02*
X142143966Y-95220466D01*
X113273738Y-77842124D02*
X113273738Y-80648374D01*
X117422875Y-84669375D02*
X121434149Y-90191492D01*
X114937488Y-83100862D02*
X117422875Y-84669375D01*
D37*
X113273738Y-77842124D02*
X113354988Y-77760874D01*
D39*
X113273738Y-80648374D02*
X114937488Y-83100862D01*
D37*
X122579662Y-88536862D02*
X118792875Y-84069375D01*
X117502875Y-80879375D02*
X115599721Y-78241141D01*
X118792875Y-84069375D02*
X117502875Y-80879375D01*
D39*
X123681092Y-87226978D02*
X123647488Y-85363374D01*
X119442875Y-81549375D02*
X118354988Y-77760874D01*
X123647488Y-85363374D02*
X119442875Y-81549375D01*
X124969290Y-85325176D02*
X124857488Y-81553374D01*
X124857488Y-81553374D02*
X121017488Y-78435874D01*
X135887488Y-112373374D02*
X135887488Y-115143374D01*
X135217488Y-104643374D02*
X135217488Y-111703374D01*
X135217488Y-111703374D02*
X135887488Y-112373374D01*
X137016493Y-102844369D02*
X135217488Y-104643374D01*
X137016493Y-99197743D02*
X137016493Y-102844369D01*
X135709148Y-114351381D02*
X135709148Y-115534569D01*
X136419509Y-98600759D02*
X137016493Y-99197743D01*
X133392875Y-105279375D02*
X136372875Y-102269375D01*
X133387488Y-115143374D02*
X133392875Y-105279762D01*
X136322875Y-99939375D02*
X135712402Y-99307866D01*
X136372875Y-102269375D02*
X136322875Y-99939375D01*
D40*
X135358849Y-99661419D02*
X135466073Y-99768643D01*
X135466073Y-99768643D02*
X135466073Y-101932979D01*
X133336523Y-99661419D02*
X132437488Y-100560454D01*
X132437488Y-100560454D02*
X132437488Y-104393374D01*
X131244561Y-103879624D02*
X131342488Y-103142124D01*
X131711238Y-101113999D02*
X131711238Y-99270249D01*
X131342488Y-103142124D02*
X131711238Y-101113999D01*
X130973738Y-105170249D02*
X131244561Y-103879624D01*
X131711238Y-99270249D02*
X132275863Y-98600759D01*
X130493954Y-106304688D02*
X130973738Y-105170249D01*
X131257488Y-99003374D02*
X131922310Y-98247205D01*
X130854886Y-100474041D02*
X131257488Y-99003374D01*
X130414561Y-99454624D02*
X130037488Y-100293374D01*
X131568756Y-97893652D02*
X130534561Y-98916794D01*
X129527488Y-102962065D02*
X128372634Y-104183367D01*
X130534561Y-98916794D02*
X130414561Y-99454624D01*
X130037488Y-100293374D02*
X129527488Y-102962065D01*
X130054561Y-98766794D02*
X129924561Y-99446794D01*
X129924561Y-99446794D02*
X129294561Y-100176794D01*
X129294561Y-100176794D02*
X129122352Y-100705441D01*
X131215203Y-97540099D02*
X130054561Y-98766794D01*
X129314363Y-99270249D02*
X129593936Y-98464294D01*
X126251314Y-102062047D02*
X127252686Y-101271169D01*
X129593936Y-98464294D02*
X130861650Y-97186546D01*
X127252686Y-101271169D02*
X128534561Y-100136794D01*
X128534561Y-100136794D02*
X129314363Y-99270249D01*
X130508096Y-96832992D02*
X128856436Y-98464294D01*
X127381436Y-98833044D02*
X125685628Y-100506412D01*
X125685628Y-100506412D02*
X125190654Y-101001387D01*
X127750186Y-98464294D02*
X128856436Y-98464294D01*
X127381436Y-98833044D02*
X127750186Y-98464294D01*
X128474561Y-98016794D02*
X129467757Y-97076423D01*
X125704561Y-98026794D02*
X128474561Y-98016794D01*
X124129993Y-99940727D02*
X125704561Y-98026794D01*
X129467757Y-97076423D02*
X130154543Y-96479438D01*
X128303311Y-97542419D02*
X129800989Y-96125885D01*
X124431436Y-97542419D02*
X123509561Y-98464294D01*
X124431436Y-97542419D02*
X128303311Y-97542419D01*
X123509561Y-98464294D02*
X121747061Y-98464294D01*
X128395614Y-96824154D02*
X122218936Y-96989294D01*
X129447436Y-95772332D02*
X128395614Y-96824154D01*
X122218936Y-96989294D02*
X120456436Y-96436169D01*
X127682875Y-94459375D02*
X128392244Y-93750006D01*
X128392244Y-93750006D02*
X129447436Y-93750006D01*
X127682875Y-94459375D02*
X126881073Y-95271177D01*
X127515012Y-92799468D02*
X126828311Y-93486169D01*
X129800989Y-93396453D02*
X129204004Y-92799468D01*
X129204004Y-92799468D02*
X127515012Y-92799468D01*
X126828311Y-93486169D02*
X125618936Y-93486169D01*
X126828311Y-92379919D02*
X125997488Y-92573374D01*
X130154543Y-93042900D02*
X129409561Y-92379919D01*
X125997488Y-92573374D02*
X122668936Y-92564294D01*
X129409561Y-92379919D02*
X126828311Y-92379919D01*
X136415811Y-104973374D02*
X137522061Y-103442419D01*
X137522061Y-98996204D02*
X136773062Y-98247205D01*
X137522061Y-103442419D02*
X137522061Y-98996204D01*
X138034561Y-98801597D02*
X138075186Y-104364294D01*
X138075186Y-104836169D02*
X137890811Y-105020544D01*
X137126616Y-97893652D02*
X138034561Y-98801597D01*
X138075186Y-104364294D02*
X138075186Y-104836169D01*
X137480169Y-97540099D02*
X138547488Y-98683374D01*
X138547488Y-98683374D02*
X138577488Y-101853374D01*
X138577488Y-101853374D02*
X139064561Y-103726794D01*
D39*
X139264415Y-101146648D02*
X139282540Y-101146648D01*
D40*
X137833722Y-97186545D02*
X138994561Y-98546794D01*
X138994561Y-100876794D02*
X139264415Y-101146648D01*
X138994561Y-98546794D02*
X138994561Y-100876794D01*
X138540830Y-96479439D02*
X139320415Y-97259024D01*
X141762686Y-98095544D02*
X143606436Y-98095544D01*
X139320415Y-97259024D02*
X140886656Y-97259024D01*
X140886656Y-97259024D02*
X141762686Y-98095544D01*
X141762686Y-97542419D02*
X143237686Y-97542419D01*
X141030278Y-96810011D02*
X141762686Y-97542419D01*
X139578509Y-96810011D02*
X141030278Y-96810011D01*
X138894383Y-96125886D02*
X139578509Y-96810011D01*
X143237686Y-97542419D02*
X145634561Y-95145544D01*
X138187276Y-92689347D02*
X138908525Y-91968098D01*
X138908525Y-91968098D02*
X145113387Y-91968098D01*
X145113387Y-91968098D02*
X146041465Y-91040020D01*
X143651444Y-91308721D02*
X144980805Y-89979360D01*
X138860795Y-91308721D02*
X143651444Y-91308721D01*
X137833723Y-92335793D02*
X138860795Y-91308721D01*
X138995146Y-90467264D02*
X142428149Y-90467264D01*
X137480169Y-91982240D02*
X138995146Y-90467264D01*
X142428149Y-90467264D02*
X143920144Y-88918700D01*
X140840811Y-89911169D02*
X142859484Y-87858039D01*
X138812686Y-89983044D02*
X140840811Y-89911169D01*
X137126616Y-91628686D02*
X138812686Y-89983044D01*
X138537686Y-89031169D02*
X140857686Y-86801169D01*
X140857686Y-86801169D02*
X141798824Y-86797379D01*
X136773062Y-91275133D02*
X138447686Y-89600509D01*
X138447686Y-89600509D02*
X138537686Y-89031169D01*
X137743567Y-89597522D02*
X137743567Y-89176794D01*
X139764124Y-87156236D02*
X139764124Y-86707223D01*
X136419509Y-90921580D02*
X137743567Y-89597522D01*
X137743567Y-89176794D02*
X139764124Y-87156236D01*
X139767660Y-86707223D02*
X140794732Y-85680151D01*
X136065956Y-90568026D02*
X137070048Y-89563935D01*
X138866099Y-85487464D02*
X139734072Y-84619490D01*
X137070048Y-88952287D02*
X138866099Y-87156236D01*
X138866099Y-87156236D02*
X138866099Y-85487464D01*
X137070048Y-89563935D02*
X137070048Y-88952287D01*
X135712402Y-90214473D02*
X136396528Y-89530347D01*
X136396528Y-88727781D02*
X138192580Y-86931730D01*
X138192580Y-86931730D02*
X138272686Y-86851624D01*
X136396528Y-89530347D02*
X136396528Y-88727781D01*
X138272686Y-86851624D02*
X138272686Y-83091169D01*
D39*
X122956436Y-91273669D02*
X122070545Y-90827888D01*
X130508097Y-92689347D02*
X129565877Y-91747127D01*
X126275186Y-91273669D02*
X122956436Y-91273669D01*
X129565877Y-91747127D02*
X127024561Y-91716794D01*
X127024561Y-91716794D02*
X126275186Y-91273669D01*
X124683304Y-90580401D02*
X124623200Y-90580401D01*
X126459561Y-90559187D02*
X124704518Y-90559187D01*
X124704518Y-90559187D02*
X124683304Y-90580401D01*
X130861650Y-92335793D02*
X129804525Y-91278669D01*
X124623200Y-90580401D02*
X123216058Y-89173258D01*
X127565811Y-91273669D02*
X126459561Y-90559187D01*
X129804525Y-91278669D02*
X127565811Y-91273669D01*
X125767488Y-89443374D02*
X124317488Y-87993374D01*
X126707488Y-89763374D02*
X125767488Y-89443374D01*
X129947714Y-90714751D02*
X127934561Y-90720544D01*
X127934561Y-90720544D02*
X126707488Y-89763374D01*
X131215203Y-91982240D02*
X129947714Y-90714751D01*
X124317488Y-87993374D02*
X124317488Y-87863374D01*
X131568757Y-91628686D02*
X128816865Y-88876794D01*
X125767488Y-87663374D02*
X125747488Y-87643374D01*
X128816865Y-88876794D02*
X126667259Y-88876794D01*
X125747488Y-87643374D02*
X125605686Y-85961572D01*
X126667259Y-88876794D02*
X125767488Y-87663374D01*
D40*
X119556436Y-96436169D02*
X101200186Y-96436169D01*
X101200186Y-96436169D02*
X98987686Y-94223669D01*
X138272686Y-82191169D02*
X138272686Y-60864919D01*
D39*
X138272686Y-60864919D02*
X138259561Y-60851794D01*
D40*
X141947061Y-82054919D02*
X141762686Y-66383044D01*
X140370468Y-83983094D02*
X141947061Y-82054919D01*
X141431129Y-85043755D02*
X143237686Y-82792419D01*
X143237686Y-82792419D02*
X143237686Y-73573669D01*
X142435220Y-86160983D02*
X144159561Y-83898669D01*
X144159561Y-83898669D02*
X144159561Y-78551794D01*
X124718936Y-93486169D02*
X118531436Y-93486169D01*
X118531436Y-93486169D02*
X109128311Y-84083044D01*
X120928311Y-92564294D02*
X119822061Y-91273669D01*
X119822061Y-91273669D02*
X119637686Y-91089294D01*
X121768936Y-92564294D02*
X120928311Y-92564294D01*
D39*
X124842721Y-96047573D02*
X124822875Y-96067419D01*
D40*
X126364677Y-96047573D02*
X124842721Y-96047573D01*
X130654561Y-101326794D02*
X130607488Y-102313374D01*
X138934561Y-106206794D02*
X139064561Y-104626794D01*
X137297488Y-110953374D02*
X137890811Y-105920544D01*
X137153311Y-117523374D02*
X137153311Y-112845544D01*
X136415811Y-111623374D02*
X136415811Y-105873374D01*
X137153311Y-112845544D02*
X136415811Y-111623374D01*
X137153311Y-117523374D02*
X137426863Y-118445249D01*
X125537686Y-107018315D02*
X125537686Y-122248669D01*
X127736238Y-104819763D02*
X125537686Y-107018315D01*
X125531312Y-128117198D02*
X126917488Y-126557749D01*
X129527488Y-110273374D02*
X129857558Y-106941084D01*
X126917488Y-126557749D02*
X126957488Y-115083374D01*
X126957488Y-115083374D02*
X129527488Y-110273374D01*
X131297488Y-111393374D02*
X132437488Y-106472124D01*
X132079988Y-130245249D02*
X132079988Y-119735874D01*
X132079988Y-119735874D02*
X131342488Y-117707749D01*
X131342488Y-117707749D02*
X131297488Y-111393374D01*
X132437488Y-106472124D02*
X132437488Y-105293374D01*
X131417488Y-134013374D02*
X132079988Y-130245249D01*
X106547061Y-98464294D02*
X104887686Y-100123669D01*
X120847061Y-98464294D02*
X106547061Y-98464294D01*
X111893936Y-101229919D02*
X110787686Y-100123669D01*
X122840801Y-101229919D02*
X111893936Y-101229919D01*
X123493597Y-100577123D02*
X122840801Y-101229919D01*
D39*
X124554258Y-101637783D02*
X116687686Y-106023669D01*
D40*
X125614918Y-102698443D02*
X122587686Y-106023669D01*
X128876770Y-101518147D02*
X128487686Y-102520544D01*
X133532875Y-103439375D02*
X134829677Y-102569375D01*
X140103311Y-101967419D02*
X140656436Y-101967419D01*
X139918936Y-101783044D02*
X140103311Y-101967419D01*
X144109009Y-98782492D02*
X146187686Y-100123669D01*
X146637686Y-95145544D02*
X152087686Y-94223669D01*
X143495880Y-87221643D02*
X144606354Y-86111169D01*
X144606354Y-86111169D02*
X155775186Y-86111169D01*
X145634561Y-87217419D02*
X162781436Y-87217419D01*
X144556541Y-88282304D02*
X145634561Y-87217419D01*
X162781436Y-87217419D02*
X163887686Y-88323669D01*
X145617201Y-89342964D02*
X168768391Y-89342964D01*
X168768391Y-89342964D02*
X169787686Y-88323669D01*
X173607731Y-90403624D02*
X175687686Y-88323669D01*
X146677861Y-90403624D02*
X173607731Y-90403624D01*
D36*
X156382985Y-154022124D02*
X155522985Y-153162124D01*
X108287797Y-150859308D02*
X108295613Y-150867124D01*
X168712875Y-153829375D02*
X167702875Y-152819375D01*
X107122875Y-153269375D02*
X107122875Y-152719375D01*
X139315363Y-150030249D02*
X140240363Y-150030249D01*
X145512985Y-154142124D02*
X146682985Y-154142124D01*
X157732985Y-154022124D02*
X156382985Y-154022124D01*
X130432985Y-152522124D02*
X128722985Y-154282124D01*
X169337860Y-150859308D02*
X167020679Y-150859308D01*
X128722985Y-154282124D02*
X127382985Y-154282124D01*
X106197875Y-154194375D02*
X107122875Y-153269375D01*
X167702875Y-152819375D02*
X167622875Y-152819375D01*
X110972985Y-154272124D02*
X110562985Y-154272124D01*
X143612985Y-152142124D02*
X145512985Y-154142124D01*
X110562985Y-154272124D02*
X109222985Y-152932124D01*
X167020679Y-150859308D02*
X166374738Y-151505249D01*
X105336860Y-150859308D02*
X108287797Y-150859308D01*
X137659113Y-150030249D02*
X138215363Y-150030249D01*
X112392985Y-154272124D02*
X112072985Y-154272124D01*
X125832985Y-154282124D02*
X126282985Y-154282124D01*
X171572875Y-153829375D02*
X169812875Y-153829375D01*
X125312985Y-153762124D02*
X125832985Y-154282124D01*
X101960375Y-154194375D02*
X105097875Y-154194375D01*
X148442985Y-153482124D02*
X147782985Y-154142124D01*
X107269987Y-148370874D02*
X102396613Y-148370874D01*
X137174738Y-150514624D02*
X137659113Y-150030249D01*
X113152985Y-153512124D02*
X112392985Y-154272124D01*
X159952985Y-153552124D02*
X159482985Y-154022124D01*
X171742875Y-153659375D02*
X171572875Y-153829375D01*
X172212860Y-148359308D02*
X169434113Y-148370874D01*
X148442985Y-153462124D02*
X148442985Y-153482124D01*
X159482985Y-154022124D02*
X158832985Y-154022124D01*
D39*
X105336860Y-145859308D02*
X101922942Y-145859308D01*
X98927488Y-148854762D02*
X98927488Y-150173374D01*
X101922942Y-145859308D02*
X98927488Y-148854762D01*
X173272875Y-146449375D02*
X173272875Y-149469375D01*
X169337860Y-145859308D02*
X172682808Y-145859308D01*
X172682808Y-145859308D02*
X173272875Y-146449375D01*
X169344360Y-49954308D02*
X172787942Y-49954308D01*
X175593488Y-47148762D02*
X175593488Y-45914624D01*
X172787942Y-49954308D02*
X175593488Y-47148762D01*
X105343360Y-49954308D02*
X101282808Y-49954308D01*
X100552863Y-49224363D02*
X100552863Y-46283374D01*
X101282808Y-49954308D02*
X100552863Y-49224363D01*
D36*
X168722875Y-41999375D02*
X167832875Y-42889375D01*
X118139485Y-42289124D02*
X119676485Y-43826124D01*
X107860375Y-43333374D02*
X107122875Y-43152124D01*
X108258172Y-44954308D02*
X108296613Y-44992749D01*
X167832875Y-42889375D02*
X167832875Y-43559375D01*
X147010985Y-42289124D02*
X145335985Y-42289124D01*
X166413179Y-44954308D02*
X166374738Y-44992749D01*
X169344360Y-44954308D02*
X166413179Y-44954308D01*
X135584113Y-45914624D02*
X134477863Y-45914624D01*
X155172985Y-43592124D02*
X156772985Y-42212124D01*
X105343360Y-44954308D02*
X108258172Y-44954308D01*
X128898485Y-42289124D02*
X130435485Y-43826124D01*
X156772985Y-42212124D02*
X159202985Y-42212124D01*
X117152485Y-42289124D02*
X118139485Y-42289124D01*
X128679985Y-42289124D02*
X128898485Y-42289124D01*
X145335985Y-42289124D02*
X144002985Y-43622124D01*
X107122875Y-43152124D02*
X106197875Y-42227124D01*
X102396613Y-42411499D02*
X105097875Y-42227124D01*
X161052985Y-42212124D02*
X160302985Y-42212124D01*
X136684113Y-45914624D02*
X137796613Y-45730249D01*
X114296985Y-42289124D02*
X116052485Y-42289124D01*
X102830047Y-47454308D02*
X102396613Y-47020874D01*
X161282985Y-42442124D02*
X161052985Y-42212124D01*
X173019858Y-42411499D02*
X172651108Y-42042749D01*
X169344360Y-47454308D02*
X171601922Y-47454308D01*
X105343360Y-47454308D02*
X102830047Y-47454308D01*
X171601922Y-47454308D02*
X172459113Y-48311499D01*
X126592985Y-42289124D02*
X127579985Y-42289124D01*
X172651108Y-42042749D02*
X169822875Y-41999375D01*
X149269985Y-42289124D02*
X148110985Y-42289124D01*
X149372985Y-42392124D02*
X149269985Y-42289124D01*
G04 #@! TA.AperFunction,Conductor*
G36*
X134499552Y-90919842D02*
G01*
X134544615Y-90948803D01*
X138181266Y-94585454D01*
X138215292Y-94647766D01*
X138210227Y-94718581D01*
X138181266Y-94763644D01*
X134328948Y-98615963D01*
X134266636Y-98649989D01*
X134195821Y-98644924D01*
X134150758Y-98615963D01*
X133671069Y-98136274D01*
X130514107Y-94979311D01*
X130480081Y-94916999D01*
X130485146Y-94846183D01*
X130514107Y-94801121D01*
X134366425Y-90948803D01*
X134428737Y-90914777D01*
X134499552Y-90919842D01*
G37*
G04 #@! TD.AperFunction*
M02*
