M48
; DRILL file {KiCad (6.0.10)} date Mon Jul 31 20:16:08 2023
; FORMAT={-:-/ absolute / metric / decimal}
; #@! TF.CreationDate,2023-07-31T20:16:08+01:00
; #@! TF.GenerationSoftware,Kicad,Pcbnew,(6.0.10)
; #@! TF.FileFunction,Plated,1,4,PTH
FMAT,2
METRIC
; #@! TA.AperFunction,Plated,PTH,ViaDrill
T1C0.300
; #@! TA.AperFunction,Plated,PTH,ViaDrill
T2C0.381
; #@! TA.AperFunction,Plated,PTH,ViaDrill
T3C0.500
%
G90
G05
T1
X98.927Y-150.173
X98.988Y-58.824
X98.988Y-64.724
X98.988Y-70.624
X98.988Y-76.524
X98.988Y-82.424
X98.988Y-88.324
X98.988Y-94.224
X98.988Y-100.124
X98.988Y-106.024
X98.988Y-111.924
X98.988Y-117.824
X98.988Y-123.724
X98.988Y-129.624
X98.988Y-135.524
X98.988Y-136.999
X100.553Y-46.283
X104.888Y-58.824
X104.888Y-64.724
X104.888Y-70.624
X104.888Y-76.474
X104.888Y-82.424
X104.888Y-88.324
X104.888Y-94.224
X104.888Y-100.124
X104.888Y-106.024
X104.888Y-111.924
X104.888Y-117.824
X104.888Y-123.724
X104.888Y-129.624
X104.888Y-135.524
X104.888Y-136.999
X109.128Y-84.083
X110.788Y-58.824
X110.788Y-64.724
X110.788Y-70.624
X110.788Y-74.011
X110.788Y-82.424
X110.788Y-88.324
X110.788Y-94.224
X110.788Y-100.124
X110.788Y-106.024
X110.788Y-111.924
X110.788Y-117.824
X110.788Y-123.724
X110.788Y-129.624
X110.788Y-135.524
X110.788Y-136.999
X116.688Y-58.824
X116.688Y-64.724
X116.688Y-70.624
X116.688Y-72.848
X116.688Y-82.424
X116.688Y-86.376
X116.688Y-94.224
X116.688Y-100.124
X116.688Y-106.024
X116.688Y-111.924
X116.688Y-117.824
X116.688Y-123.724
X116.688Y-129.624
X116.688Y-135.524
X116.688Y-136.999
X119.638Y-91.089
X122.588Y-58.824
X122.588Y-64.724
X122.588Y-70.624
X122.588Y-74.244
X122.588Y-82.424
X122.588Y-86.48
X122.588Y-94.224
X122.588Y-96.252
X122.588Y-106.024
X122.588Y-111.924
X122.588Y-117.824
X122.588Y-123.724
X122.588Y-129.624
X122.588Y-135.524
X122.588Y-136.999
X124.823Y-96.067
X125.531Y-128.117
X125.538Y-122.249
X128.488Y-58.824
X128.488Y-64.724
X128.488Y-69.226
X128.488Y-76.524
X128.488Y-82.424
X128.488Y-84.636
X128.488Y-89.983
X128.488Y-99.202
X128.488Y-102.521
X128.488Y-108.974
X128.488Y-116.349
X128.488Y-123.724
X128.488Y-129.624
X128.488Y-135.524
X128.488Y-136.999
X129.135Y-94.961
X130.607Y-102.313
X131.417Y-134.013
X132.718Y-88.235
X133.533Y-103.439
X133.555Y-83.161
X134.388Y-58.824
X134.388Y-63.875
X134.388Y-69.226
X134.388Y-76.524
X134.388Y-82.424
X134.388Y-100.124
X134.388Y-106.024
X134.388Y-107.499
X134.388Y-112.108
X134.388Y-118.008
X134.388Y-123.908
X134.388Y-129.808
X134.388Y-135.708
X134.388Y-136.814
X136.6Y-83.161
X137.297Y-110.953
X137.427Y-118.445
X138.26Y-60.852
X138.935Y-106.207
X139.608Y-89.091
X139.675Y-94.961
X140.26Y-111.65
X140.288Y-58.824
X140.288Y-64.724
X140.288Y-70.624
X140.288Y-76.524
X140.288Y-78.552
X140.288Y-82.424
X140.288Y-88.324
X140.288Y-92.749
X140.288Y-106.024
X140.288Y-107.499
X140.288Y-117.824
X140.288Y-123.724
X140.288Y-129.624
X140.288Y-135.524
X140.288Y-136.999
X140.656Y-101.967
X140.891Y-99.52
X141.763Y-66.383
X143.238Y-73.574
X144.16Y-78.552
X144.183Y-124.974
X146.188Y-58.824
X146.188Y-64.724
X146.188Y-70.624
X146.188Y-76.524
X146.188Y-82.424
X146.188Y-88.324
X146.188Y-93.486
X146.188Y-100.124
X146.188Y-106.024
X146.188Y-111.924
X146.188Y-117.824
X146.188Y-119.92
X146.188Y-129.624
X146.188Y-135.524
X146.188Y-136.999
X152.088Y-58.824
X152.088Y-64.724
X152.088Y-70.624
X152.088Y-76.524
X152.088Y-82.424
X152.088Y-88.324
X152.088Y-94.224
X152.088Y-100.124
X152.088Y-106.024
X152.088Y-108.673
X152.088Y-117.824
X152.088Y-123.724
X152.088Y-129.624
X152.088Y-135.524
X152.088Y-136.999
X155.775Y-86.111
X157.988Y-58.824
X157.988Y-64.724
X157.988Y-70.624
X157.988Y-76.524
X157.988Y-82.424
X157.988Y-88.324
X157.988Y-94.224
X157.988Y-100.124
X157.988Y-106.024
X157.988Y-111.924
X157.988Y-117.824
X157.988Y-123.724
X157.988Y-129.624
X157.988Y-135.524
X157.988Y-136.999
X163.888Y-58.824
X163.888Y-64.724
X163.888Y-70.624
X163.888Y-76.524
X163.888Y-82.424
X163.888Y-88.324
X163.888Y-94.224
X163.888Y-100.124
X163.888Y-106.024
X163.888Y-111.924
X163.888Y-117.824
X163.888Y-123.724
X163.888Y-129.624
X163.888Y-135.524
X163.888Y-136.999
X169.788Y-58.824
X169.788Y-64.724
X169.788Y-70.624
X169.788Y-76.524
X169.788Y-82.424
X169.788Y-88.324
X169.788Y-94.224
X169.788Y-100.124
X169.788Y-106.024
X169.788Y-111.924
X169.788Y-117.824
X169.788Y-123.724
X169.788Y-129.624
X169.788Y-135.524
X169.788Y-136.999
X173.273Y-149.469
X175.593Y-45.915
X175.688Y-58.824
X175.688Y-64.724
X175.688Y-70.624
X175.688Y-76.524
X175.688Y-82.424
X175.688Y-88.324
X175.688Y-94.224
X175.688Y-100.124
X175.688Y-106.024
X175.688Y-111.924
X175.688Y-117.824
X175.688Y-123.724
X175.688Y-129.624
X175.688Y-135.524
X175.688Y-136.999
T2
X112.667Y-84.713
X131.948Y-89.124
X135.363Y-84.269
X136.283Y-84.969
X137.373Y-85.921
X138.506Y-110.128
X139.369Y-97.937
X139.723Y-100.141
X141.613Y-101.881
T3
X98.893Y-44.185
X101.96Y-154.194
X102.397Y-42.411
X102.397Y-47.021
X102.397Y-148.371
X105.155Y-152.474
X107.123Y-152.719
X107.86Y-43.333
X108.296Y-150.867
X108.297Y-44.993
X109.223Y-152.932
X110.693Y-44.071
X113.153Y-153.512
X114.297Y-42.289
X118.353Y-151.942
X119.676Y-43.826
X121.213Y-43.058
X125.313Y-153.762
X125.744Y-74.48
X126.593Y-42.289
X127.037Y-84.433
X127.367Y-87.703
X128.577Y-151.973
X130.433Y-152.522
X130.435Y-43.826
X132.817Y-96.136
X132.967Y-84.673
X134.293Y-44.071
X134.478Y-45.915
X136.187Y-79.093
X137.175Y-150.515
X137.797Y-45.73
X140.24Y-150.03
X140.561Y-151.973
X142.131Y-96.621
X143.613Y-152.142
X144.003Y-43.622
X144.16Y-93.555
X146.093Y-44.071
X148.443Y-153.462
X149.373Y-42.392
X153.743Y-151.992
X155.173Y-43.592
X155.523Y-153.162
X156.343Y-44.492
X159.953Y-153.552
X161.283Y-42.442
X163.977Y-151.973
X166.375Y-44.993
X166.375Y-151.505
X167.623Y-152.819
X167.833Y-43.559
X169.433Y-43.469
X171.743Y-153.659
X172.213Y-148.359
X172.459Y-48.311
X173.02Y-42.411
X175.777Y-151.973
T0
M30
