G04 #@! TF.GenerationSoftware,KiCad,Pcbnew,(6.0.10)*
G04 #@! TF.CreationDate,2023-07-31T20:15:45+01:00*
G04 #@! TF.ProjectId,magnetonetouchpad,6d61676e-6574-46f6-9e65-746f75636870,rev?*
G04 #@! TF.SameCoordinates,Original*
G04 #@! TF.FileFunction,Paste,Top*
G04 #@! TF.FilePolarity,Positive*
%FSLAX46Y46*%
G04 Gerber Fmt 4.6, Leading zero omitted, Abs format (unit mm)*
G04 Created by KiCad (PCBNEW (6.0.10)) date 2023-07-31 20:15:45*
%MOMM*%
%LPD*%
G01*
G04 APERTURE LIST*
G04 Aperture macros list*
%AMRotRect*
0 Rectangle, with rotation*
0 The origin of the aperture is its center*
0 $1 length*
0 $2 width*
0 $3 Rotation angle, in degrees counterclockwise*
0 Add horizontal line*
21,1,$1,$2,0,0,$3*%
G04 Aperture macros list end*
%ADD10R,0.600000X0.500000*%
%ADD11RotRect,0.600000X0.500000X45.000000*%
%ADD12RotRect,0.400000X0.600000X225.000000*%
%ADD13R,0.970000X1.000000*%
%ADD14RotRect,0.400000X0.600000X315.000000*%
%ADD15R,4.500000X1.200000*%
%ADD16R,3.000000X1.600000*%
%ADD17RotRect,0.400000X0.600000X135.000000*%
%ADD18R,1.300000X4.800000*%
%ADD19R,1.800000X3.900000*%
%ADD20RotRect,0.600000X0.500000X315.000000*%
%ADD21RotRect,0.600000X0.500000X225.000000*%
%ADD22RotRect,0.400000X0.600000X45.000000*%
%ADD23R,0.600000X0.400000*%
%ADD24RotRect,0.400000X0.600000X77.500000*%
%ADD25R,0.400000X0.600000*%
%ADD26R,3.500000X2.500000*%
%ADD27RotRect,1.560000X0.280000X45.000000*%
%ADD28RotRect,0.280000X1.560000X45.000000*%
%ADD29RotRect,0.600000X0.500000X135.000000*%
%ADD30R,1.200000X4.500000*%
%ADD31R,1.600000X3.700000*%
%ADD32RotRect,0.400000X0.600000X78.750000*%
G04 APERTURE END LIST*
D10*
X169812875Y-153829375D03*
X168712875Y-153829375D03*
D11*
X139898777Y-98853203D03*
X140676595Y-98075385D03*
D12*
X143495880Y-87221643D03*
X142859484Y-87858039D03*
D13*
X133187488Y-77978374D03*
X133187488Y-79448374D03*
D14*
X121434149Y-90191492D03*
X122070545Y-90827888D03*
D15*
X169344360Y-49954308D03*
X169344360Y-47454308D03*
X169344360Y-44954308D03*
D16*
X175094360Y-41854308D03*
X175094360Y-53054308D03*
D10*
X136684113Y-45914624D03*
X135584113Y-45914624D03*
X147782985Y-154142124D03*
X146682985Y-154142124D03*
X126282985Y-154282124D03*
X127382985Y-154282124D03*
D17*
X144109009Y-98782492D03*
X143472613Y-98146096D03*
D15*
X169337860Y-150859308D03*
X169337860Y-148359308D03*
X169337860Y-145859308D03*
D16*
X175087860Y-142759308D03*
X175087860Y-153959308D03*
D12*
X144556541Y-88282304D03*
X143920145Y-88918700D03*
D11*
X141363966Y-93508284D03*
X142141784Y-92730466D03*
D12*
X146677861Y-90403624D03*
X146041465Y-91040020D03*
D18*
X132367488Y-73528374D03*
X129867488Y-73528374D03*
D19*
X126767488Y-66528374D03*
X135467488Y-66528374D03*
D10*
X138215363Y-150030249D03*
X139315363Y-150030249D03*
X148110985Y-42289124D03*
X147010985Y-42289124D03*
X158832985Y-154022124D03*
X157732985Y-154022124D03*
D20*
X142143966Y-95220466D03*
X142921784Y-95998284D03*
D10*
X134217488Y-80783374D03*
X133117488Y-80783374D03*
D21*
X142540504Y-98977101D03*
X141762686Y-99754919D03*
D10*
X160302985Y-42212124D03*
X159202985Y-42212124D03*
X116052485Y-42289124D03*
X117152485Y-42289124D03*
D22*
X134829677Y-102569375D03*
X135466073Y-101932979D03*
D23*
X132437488Y-105293374D03*
X132437488Y-104393374D03*
D24*
X130660090Y-101352707D03*
X130854886Y-100474041D03*
D25*
X124718936Y-93486169D03*
X125618936Y-93486169D03*
D12*
X140370468Y-83983094D03*
X139734072Y-84619490D03*
D22*
X125614918Y-102698443D03*
X126251314Y-102062047D03*
D26*
X151301699Y-147694124D03*
X151301699Y-151694124D03*
X158971699Y-151694124D03*
X158971699Y-147694124D03*
D10*
X129517488Y-87293374D03*
X128417488Y-87293374D03*
X105097875Y-42227124D03*
X106197875Y-42227124D03*
X169822875Y-41999375D03*
X168722875Y-41999375D03*
X105097875Y-154194375D03*
X106197875Y-154194375D03*
X129957488Y-83403374D03*
X128857488Y-83403374D03*
D25*
X121768936Y-92564294D03*
X122668936Y-92564294D03*
D15*
X105343360Y-44954308D03*
X105343360Y-47454308D03*
X105343360Y-49954308D03*
D16*
X99593360Y-53054308D03*
X99593360Y-41854308D03*
D27*
X129447436Y-95772332D03*
X129800989Y-96125885D03*
X130154543Y-96479438D03*
X130508096Y-96832992D03*
X130861650Y-97186545D03*
X131215203Y-97540099D03*
X131568756Y-97893652D03*
X131922310Y-98247205D03*
X132275863Y-98600759D03*
X132629417Y-98954312D03*
X132982970Y-99307866D03*
X133336523Y-99661419D03*
D28*
X135358849Y-99661419D03*
X135712402Y-99307866D03*
X136065955Y-98954312D03*
X136419509Y-98600759D03*
X136773062Y-98247205D03*
X137126616Y-97893652D03*
X137480169Y-97540099D03*
X137833722Y-97186545D03*
X138187276Y-96832992D03*
X138540829Y-96479438D03*
X138894383Y-96125885D03*
X139247936Y-95772332D03*
D27*
X139247936Y-93750006D03*
X138894383Y-93396453D03*
X138540829Y-93042900D03*
X138187276Y-92689346D03*
X137833722Y-92335793D03*
X137480169Y-91982239D03*
X137126616Y-91628686D03*
X136773062Y-91275133D03*
X136419509Y-90921579D03*
X136065955Y-90568026D03*
X135712402Y-90214472D03*
X135358849Y-89860919D03*
D28*
X133336523Y-89860919D03*
X132982970Y-90214472D03*
X132629417Y-90568026D03*
X132275863Y-90921579D03*
X131922310Y-91275133D03*
X131568756Y-91628686D03*
X131215203Y-91982239D03*
X130861650Y-92335793D03*
X130508096Y-92689346D03*
X130154543Y-93042900D03*
X129800989Y-93396453D03*
X129447436Y-93750006D03*
D23*
X137890811Y-105920544D03*
X137890811Y-105020544D03*
D22*
X123493597Y-100577123D03*
X124129993Y-99940727D03*
D25*
X119556436Y-96436169D03*
X120456436Y-96436169D03*
X146637686Y-95145544D03*
X145737686Y-95145544D03*
D17*
X139912759Y-101783044D03*
X139276363Y-101146648D03*
D22*
X124554258Y-101637783D03*
X125190654Y-101001387D03*
D26*
X115998646Y-44474124D03*
X115998646Y-48474124D03*
X123668646Y-48474124D03*
X123668646Y-44474124D03*
D29*
X136968936Y-86848669D03*
X136191118Y-86070851D03*
D14*
X123681092Y-87226978D03*
X124317488Y-87863374D03*
D26*
X115732271Y-147679308D03*
X115732271Y-151679308D03*
X123402271Y-151679308D03*
X123402271Y-147679308D03*
D10*
X127579985Y-42289124D03*
X128679985Y-42289124D03*
D13*
X129597488Y-78968374D03*
X129597488Y-80438374D03*
D30*
X120854988Y-77760874D03*
X118354988Y-77760874D03*
X115854988Y-77760874D03*
X113354988Y-77760874D03*
X110854988Y-77760874D03*
D31*
X107754988Y-70260874D03*
X123954988Y-70260874D03*
D22*
X129857558Y-106941084D03*
X130493954Y-106304688D03*
X127736238Y-104819763D03*
X128372634Y-104183367D03*
D23*
X138272686Y-82191169D03*
X138272686Y-83091169D03*
D26*
X151301699Y-44474124D03*
X151301699Y-48474124D03*
X158971699Y-48474124D03*
X158971699Y-44474124D03*
D23*
X139064561Y-104626794D03*
X139064561Y-103726794D03*
D22*
X126244677Y-95907573D03*
X126881073Y-95271177D03*
D30*
X133387488Y-115023374D03*
X135887488Y-115023374D03*
X138387488Y-115023374D03*
X140887488Y-115023374D03*
X143387488Y-115023374D03*
D31*
X146487488Y-122523374D03*
X130287488Y-122523374D03*
D10*
X131527488Y-86093374D03*
X132627488Y-86093374D03*
D12*
X145617201Y-89342964D03*
X144980805Y-89979360D03*
D10*
X112072985Y-154272124D03*
X110972985Y-154272124D03*
D14*
X124969290Y-85325176D03*
X125605686Y-85961572D03*
D12*
X141431129Y-85043755D03*
X140794733Y-85680151D03*
D23*
X136415811Y-105873374D03*
X136415811Y-104973374D03*
D11*
X133623966Y-87278284D03*
X134401784Y-86500466D03*
D12*
X142435220Y-86160983D03*
X141798824Y-86797379D03*
D25*
X120847061Y-98464294D03*
X121747061Y-98464294D03*
D14*
X122579662Y-88536862D03*
X123216058Y-89173258D03*
D10*
X142062875Y-124789375D03*
X143162875Y-124789375D03*
D32*
X128946770Y-101588147D03*
X129122352Y-100705441D03*
D15*
X105336860Y-145859308D03*
X105336860Y-148359308D03*
X105336860Y-150859308D03*
D16*
X99586860Y-153959308D03*
X99586860Y-142759308D03*
M02*
