%TF.GenerationSoftware,KiCad,Pcbnew,(6.0.10)*%
%TF.CreationDate,2023-07-31T20:16:09+01:00*%
%TF.ProjectId,magnetonetouchpad,6d61676e-6574-46f6-9e65-746f75636870,rev?*%
%TF.SameCoordinates,Original*%
%TF.FileFunction,Drillmap*%
%TF.FilePolarity,Positive*%
%FSLAX45Y45*%
G04 Gerber Fmt 4.5, Leading zero omitted, Abs format (unit mm)*
G04 Created by KiCad (PCBNEW (6.0.10)) date 2023-07-31 20:16:09*
%MOMM*%
%LPD*%
G01*
G04 APERTURE LIST*
%ADD10C,0.100000*%
%ADD11C,0.200000*%
%ADD12C,0.220000*%
G04 APERTURE END LIST*
D10*
X9585299Y-4046312D02*
X17884475Y-4046312D01*
X17884475Y-4046312D02*
X17884475Y-15534681D01*
X17884475Y-15534681D02*
X9585299Y-15534681D01*
X9585299Y-15534681D02*
X9585299Y-4046312D01*
D11*
D12*
X10925299Y-4613650D02*
X11145299Y-4833650D01*
X11145299Y-4613650D02*
X10925299Y-4833650D01*
X10925299Y-14725931D02*
X11145299Y-14945931D01*
X11145299Y-14725931D02*
X10925299Y-14945931D01*
X12975298Y-4613650D02*
X13195298Y-4833650D01*
X13195298Y-4613650D02*
X12975298Y-4833650D01*
X12975298Y-14740212D02*
X13195298Y-14960212D01*
X13195298Y-14740212D02*
X12975298Y-14960212D01*
X14275298Y-4613650D02*
X14495298Y-4833650D01*
X14495298Y-4613650D02*
X14275298Y-4833650D01*
X14275298Y-14740212D02*
X14495298Y-14960212D01*
X14495298Y-14740212D02*
X14275298Y-14960212D01*
X16325298Y-4613650D02*
X16545298Y-4833650D01*
X16545298Y-4613650D02*
X16325298Y-4833650D01*
X16325298Y-14740212D02*
X16545298Y-14960212D01*
X16545298Y-14740212D02*
X16325298Y-14960212D01*
D11*
X9837918Y-15850157D02*
X9837918Y-15650157D01*
X9885537Y-15650157D01*
X9914108Y-15659681D01*
X9933156Y-15678728D01*
X9942679Y-15697776D01*
X9952203Y-15735871D01*
X9952203Y-15764443D01*
X9942679Y-15802538D01*
X9933156Y-15821585D01*
X9914108Y-15840633D01*
X9885537Y-15850157D01*
X9837918Y-15850157D01*
X10037918Y-15850157D02*
X10037918Y-15716824D01*
X10037918Y-15754919D02*
X10047441Y-15735871D01*
X10056965Y-15726347D01*
X10076013Y-15716824D01*
X10095060Y-15716824D01*
X10161727Y-15850157D02*
X10161727Y-15716824D01*
X10161727Y-15650157D02*
X10152203Y-15659681D01*
X10161727Y-15669205D01*
X10171251Y-15659681D01*
X10161727Y-15650157D01*
X10161727Y-15669205D01*
X10285537Y-15850157D02*
X10266489Y-15840633D01*
X10256965Y-15821585D01*
X10256965Y-15650157D01*
X10390299Y-15850157D02*
X10371251Y-15840633D01*
X10361727Y-15821585D01*
X10361727Y-15650157D01*
X10618870Y-15850157D02*
X10618870Y-15650157D01*
X10685537Y-15793014D01*
X10752203Y-15650157D01*
X10752203Y-15850157D01*
X10933156Y-15850157D02*
X10933156Y-15745395D01*
X10923632Y-15726347D01*
X10904584Y-15716824D01*
X10866489Y-15716824D01*
X10847441Y-15726347D01*
X10933156Y-15840633D02*
X10914108Y-15850157D01*
X10866489Y-15850157D01*
X10847441Y-15840633D01*
X10837918Y-15821585D01*
X10837918Y-15802538D01*
X10847441Y-15783490D01*
X10866489Y-15773966D01*
X10914108Y-15773966D01*
X10933156Y-15764443D01*
X11028394Y-15716824D02*
X11028394Y-15916824D01*
X11028394Y-15726347D02*
X11047441Y-15716824D01*
X11085537Y-15716824D01*
X11104584Y-15726347D01*
X11114108Y-15735871D01*
X11123632Y-15754919D01*
X11123632Y-15812062D01*
X11114108Y-15831109D01*
X11104584Y-15840633D01*
X11085537Y-15850157D01*
X11047441Y-15850157D01*
X11028394Y-15840633D01*
X11209346Y-15831109D02*
X11218870Y-15840633D01*
X11209346Y-15850157D01*
X11199822Y-15840633D01*
X11209346Y-15831109D01*
X11209346Y-15850157D01*
X11209346Y-15726347D02*
X11218870Y-15735871D01*
X11209346Y-15745395D01*
X11199822Y-15735871D01*
X11209346Y-15726347D01*
X11209346Y-15745395D01*
X9380299Y-16079681D02*
X9580299Y-16279681D01*
X9580299Y-16079681D02*
X9380299Y-16279681D01*
X9828394Y-16089205D02*
X9837918Y-16079681D01*
X9856965Y-16070157D01*
X9904584Y-16070157D01*
X9923632Y-16079681D01*
X9933156Y-16089205D01*
X9942679Y-16108252D01*
X9942679Y-16127300D01*
X9933156Y-16155871D01*
X9818870Y-16270157D01*
X9942679Y-16270157D01*
X10028394Y-16251109D02*
X10037918Y-16260633D01*
X10028394Y-16270157D01*
X10018870Y-16260633D01*
X10028394Y-16251109D01*
X10028394Y-16270157D01*
X10114108Y-16089205D02*
X10123632Y-16079681D01*
X10142679Y-16070157D01*
X10190299Y-16070157D01*
X10209346Y-16079681D01*
X10218870Y-16089205D01*
X10228394Y-16108252D01*
X10228394Y-16127300D01*
X10218870Y-16155871D01*
X10104584Y-16270157D01*
X10228394Y-16270157D01*
X10352203Y-16070157D02*
X10371251Y-16070157D01*
X10390299Y-16079681D01*
X10399822Y-16089205D01*
X10409346Y-16108252D01*
X10418870Y-16146347D01*
X10418870Y-16193966D01*
X10409346Y-16232062D01*
X10399822Y-16251109D01*
X10390299Y-16260633D01*
X10371251Y-16270157D01*
X10352203Y-16270157D01*
X10333156Y-16260633D01*
X10323632Y-16251109D01*
X10314108Y-16232062D01*
X10304584Y-16193966D01*
X10304584Y-16146347D01*
X10314108Y-16108252D01*
X10323632Y-16089205D01*
X10333156Y-16079681D01*
X10352203Y-16070157D01*
X10542679Y-16070157D02*
X10561727Y-16070157D01*
X10580775Y-16079681D01*
X10590299Y-16089205D01*
X10599822Y-16108252D01*
X10609346Y-16146347D01*
X10609346Y-16193966D01*
X10599822Y-16232062D01*
X10590299Y-16251109D01*
X10580775Y-16260633D01*
X10561727Y-16270157D01*
X10542679Y-16270157D01*
X10523632Y-16260633D01*
X10514108Y-16251109D01*
X10504584Y-16232062D01*
X10495060Y-16193966D01*
X10495060Y-16146347D01*
X10504584Y-16108252D01*
X10514108Y-16089205D01*
X10523632Y-16079681D01*
X10542679Y-16070157D01*
X10695060Y-16270157D02*
X10695060Y-16136824D01*
X10695060Y-16155871D02*
X10704584Y-16146347D01*
X10723632Y-16136824D01*
X10752203Y-16136824D01*
X10771251Y-16146347D01*
X10780775Y-16165395D01*
X10780775Y-16270157D01*
X10780775Y-16165395D02*
X10790299Y-16146347D01*
X10809346Y-16136824D01*
X10837918Y-16136824D01*
X10856965Y-16146347D01*
X10866489Y-16165395D01*
X10866489Y-16270157D01*
X10961727Y-16270157D02*
X10961727Y-16136824D01*
X10961727Y-16155871D02*
X10971251Y-16146347D01*
X10990299Y-16136824D01*
X11018870Y-16136824D01*
X11037918Y-16146347D01*
X11047441Y-16165395D01*
X11047441Y-16270157D01*
X11047441Y-16165395D02*
X11056965Y-16146347D01*
X11076013Y-16136824D01*
X11104584Y-16136824D01*
X11123632Y-16146347D01*
X11133156Y-16165395D01*
X11133156Y-16270157D01*
X11523632Y-16060633D02*
X11352203Y-16317776D01*
X11780775Y-16070157D02*
X11799822Y-16070157D01*
X11818870Y-16079681D01*
X11828394Y-16089205D01*
X11837917Y-16108252D01*
X11847441Y-16146347D01*
X11847441Y-16193966D01*
X11837917Y-16232062D01*
X11828394Y-16251109D01*
X11818870Y-16260633D01*
X11799822Y-16270157D01*
X11780775Y-16270157D01*
X11761727Y-16260633D01*
X11752203Y-16251109D01*
X11742679Y-16232062D01*
X11733156Y-16193966D01*
X11733156Y-16146347D01*
X11742679Y-16108252D01*
X11752203Y-16089205D01*
X11761727Y-16079681D01*
X11780775Y-16070157D01*
X11933156Y-16251109D02*
X11942679Y-16260633D01*
X11933156Y-16270157D01*
X11923632Y-16260633D01*
X11933156Y-16251109D01*
X11933156Y-16270157D01*
X12066489Y-16070157D02*
X12085536Y-16070157D01*
X12104584Y-16079681D01*
X12114108Y-16089205D01*
X12123632Y-16108252D01*
X12133156Y-16146347D01*
X12133156Y-16193966D01*
X12123632Y-16232062D01*
X12114108Y-16251109D01*
X12104584Y-16260633D01*
X12085536Y-16270157D01*
X12066489Y-16270157D01*
X12047441Y-16260633D01*
X12037917Y-16251109D01*
X12028394Y-16232062D01*
X12018870Y-16193966D01*
X12018870Y-16146347D01*
X12028394Y-16108252D01*
X12037917Y-16089205D01*
X12047441Y-16079681D01*
X12066489Y-16070157D01*
X12247441Y-16155871D02*
X12228394Y-16146347D01*
X12218870Y-16136824D01*
X12209346Y-16117776D01*
X12209346Y-16108252D01*
X12218870Y-16089205D01*
X12228394Y-16079681D01*
X12247441Y-16070157D01*
X12285536Y-16070157D01*
X12304584Y-16079681D01*
X12314108Y-16089205D01*
X12323632Y-16108252D01*
X12323632Y-16117776D01*
X12314108Y-16136824D01*
X12304584Y-16146347D01*
X12285536Y-16155871D01*
X12247441Y-16155871D01*
X12228394Y-16165395D01*
X12218870Y-16174919D01*
X12209346Y-16193966D01*
X12209346Y-16232062D01*
X12218870Y-16251109D01*
X12228394Y-16260633D01*
X12247441Y-16270157D01*
X12285536Y-16270157D01*
X12304584Y-16260633D01*
X12314108Y-16251109D01*
X12323632Y-16232062D01*
X12323632Y-16193966D01*
X12314108Y-16174919D01*
X12304584Y-16165395D01*
X12285536Y-16155871D01*
X12495060Y-16070157D02*
X12456965Y-16070157D01*
X12437917Y-16079681D01*
X12428394Y-16089205D01*
X12409346Y-16117776D01*
X12399822Y-16155871D01*
X12399822Y-16232062D01*
X12409346Y-16251109D01*
X12418870Y-16260633D01*
X12437917Y-16270157D01*
X12476013Y-16270157D01*
X12495060Y-16260633D01*
X12504584Y-16251109D01*
X12514108Y-16232062D01*
X12514108Y-16184443D01*
X12504584Y-16165395D01*
X12495060Y-16155871D01*
X12476013Y-16146347D01*
X12437917Y-16146347D01*
X12418870Y-16155871D01*
X12409346Y-16165395D01*
X12399822Y-16184443D01*
X12685536Y-16070157D02*
X12647441Y-16070157D01*
X12628394Y-16079681D01*
X12618870Y-16089205D01*
X12599822Y-16117776D01*
X12590298Y-16155871D01*
X12590298Y-16232062D01*
X12599822Y-16251109D01*
X12609346Y-16260633D01*
X12628394Y-16270157D01*
X12666489Y-16270157D01*
X12685536Y-16260633D01*
X12695060Y-16251109D01*
X12704584Y-16232062D01*
X12704584Y-16184443D01*
X12695060Y-16165395D01*
X12685536Y-16155871D01*
X12666489Y-16146347D01*
X12628394Y-16146347D01*
X12609346Y-16155871D01*
X12599822Y-16165395D01*
X12590298Y-16184443D01*
X12780775Y-16070157D02*
X12780775Y-16108252D01*
X12856965Y-16070157D02*
X12856965Y-16108252D01*
X13152203Y-16346347D02*
X13142679Y-16336824D01*
X13123632Y-16308252D01*
X13114108Y-16289205D01*
X13104584Y-16260633D01*
X13095060Y-16213014D01*
X13095060Y-16174919D01*
X13104584Y-16127300D01*
X13114108Y-16098728D01*
X13123632Y-16079681D01*
X13142679Y-16051109D01*
X13152203Y-16041585D01*
X13256965Y-16155871D02*
X13237917Y-16146347D01*
X13228394Y-16136824D01*
X13218870Y-16117776D01*
X13218870Y-16108252D01*
X13228394Y-16089205D01*
X13237917Y-16079681D01*
X13256965Y-16070157D01*
X13295060Y-16070157D01*
X13314108Y-16079681D01*
X13323632Y-16089205D01*
X13333156Y-16108252D01*
X13333156Y-16117776D01*
X13323632Y-16136824D01*
X13314108Y-16146347D01*
X13295060Y-16155871D01*
X13256965Y-16155871D01*
X13237917Y-16165395D01*
X13228394Y-16174919D01*
X13218870Y-16193966D01*
X13218870Y-16232062D01*
X13228394Y-16251109D01*
X13237917Y-16260633D01*
X13256965Y-16270157D01*
X13295060Y-16270157D01*
X13314108Y-16260633D01*
X13323632Y-16251109D01*
X13333156Y-16232062D01*
X13333156Y-16193966D01*
X13323632Y-16174919D01*
X13314108Y-16165395D01*
X13295060Y-16155871D01*
X13571251Y-16270157D02*
X13571251Y-16070157D01*
X13656965Y-16270157D02*
X13656965Y-16165395D01*
X13647441Y-16146347D01*
X13628394Y-16136824D01*
X13599822Y-16136824D01*
X13580775Y-16146347D01*
X13571251Y-16155871D01*
X13780775Y-16270157D02*
X13761727Y-16260633D01*
X13752203Y-16251109D01*
X13742679Y-16232062D01*
X13742679Y-16174919D01*
X13752203Y-16155871D01*
X13761727Y-16146347D01*
X13780775Y-16136824D01*
X13809346Y-16136824D01*
X13828394Y-16146347D01*
X13837917Y-16155871D01*
X13847441Y-16174919D01*
X13847441Y-16232062D01*
X13837917Y-16251109D01*
X13828394Y-16260633D01*
X13809346Y-16270157D01*
X13780775Y-16270157D01*
X13961727Y-16270157D02*
X13942679Y-16260633D01*
X13933156Y-16241585D01*
X13933156Y-16070157D01*
X14114108Y-16260633D02*
X14095060Y-16270157D01*
X14056965Y-16270157D01*
X14037917Y-16260633D01*
X14028394Y-16241585D01*
X14028394Y-16165395D01*
X14037917Y-16146347D01*
X14056965Y-16136824D01*
X14095060Y-16136824D01*
X14114108Y-16146347D01*
X14123632Y-16165395D01*
X14123632Y-16184443D01*
X14028394Y-16203490D01*
X14199822Y-16260633D02*
X14218870Y-16270157D01*
X14256965Y-16270157D01*
X14276013Y-16260633D01*
X14285536Y-16241585D01*
X14285536Y-16232062D01*
X14276013Y-16213014D01*
X14256965Y-16203490D01*
X14228394Y-16203490D01*
X14209346Y-16193966D01*
X14199822Y-16174919D01*
X14199822Y-16165395D01*
X14209346Y-16146347D01*
X14228394Y-16136824D01*
X14256965Y-16136824D01*
X14276013Y-16146347D01*
X14352203Y-16346347D02*
X14361727Y-16336824D01*
X14380775Y-16308252D01*
X14390298Y-16289205D01*
X14399822Y-16260633D01*
X14409346Y-16213014D01*
X14409346Y-16174919D01*
X14399822Y-16127300D01*
X14390298Y-16098728D01*
X14380775Y-16079681D01*
X14361727Y-16051109D01*
X14352203Y-16041585D01*
X14714108Y-16346347D02*
X14704584Y-16336824D01*
X14685536Y-16308252D01*
X14676013Y-16289205D01*
X14666489Y-16260633D01*
X14656965Y-16213014D01*
X14656965Y-16174919D01*
X14666489Y-16127300D01*
X14676013Y-16098728D01*
X14685536Y-16079681D01*
X14704584Y-16051109D01*
X14714108Y-16041585D01*
X14790298Y-16136824D02*
X14790298Y-16270157D01*
X14790298Y-16155871D02*
X14799822Y-16146347D01*
X14818870Y-16136824D01*
X14847441Y-16136824D01*
X14866489Y-16146347D01*
X14876013Y-16165395D01*
X14876013Y-16270157D01*
X14999822Y-16270157D02*
X14980775Y-16260633D01*
X14971251Y-16251109D01*
X14961727Y-16232062D01*
X14961727Y-16174919D01*
X14971251Y-16155871D01*
X14980775Y-16146347D01*
X14999822Y-16136824D01*
X15028394Y-16136824D01*
X15047441Y-16146347D01*
X15056965Y-16155871D01*
X15066489Y-16174919D01*
X15066489Y-16232062D01*
X15056965Y-16251109D01*
X15047441Y-16260633D01*
X15028394Y-16270157D01*
X14999822Y-16270157D01*
X15123632Y-16136824D02*
X15199822Y-16136824D01*
X15152203Y-16070157D02*
X15152203Y-16241585D01*
X15161727Y-16260633D01*
X15180775Y-16270157D01*
X15199822Y-16270157D01*
X15418870Y-16136824D02*
X15418870Y-16336824D01*
X15418870Y-16146347D02*
X15437917Y-16136824D01*
X15476013Y-16136824D01*
X15495060Y-16146347D01*
X15504584Y-16155871D01*
X15514108Y-16174919D01*
X15514108Y-16232062D01*
X15504584Y-16251109D01*
X15495060Y-16260633D01*
X15476013Y-16270157D01*
X15437917Y-16270157D01*
X15418870Y-16260633D01*
X15628394Y-16270157D02*
X15609346Y-16260633D01*
X15599822Y-16241585D01*
X15599822Y-16070157D01*
X15790298Y-16270157D02*
X15790298Y-16165395D01*
X15780775Y-16146347D01*
X15761727Y-16136824D01*
X15723632Y-16136824D01*
X15704584Y-16146347D01*
X15790298Y-16260633D02*
X15771251Y-16270157D01*
X15723632Y-16270157D01*
X15704584Y-16260633D01*
X15695060Y-16241585D01*
X15695060Y-16222538D01*
X15704584Y-16203490D01*
X15723632Y-16193966D01*
X15771251Y-16193966D01*
X15790298Y-16184443D01*
X15856965Y-16136824D02*
X15933156Y-16136824D01*
X15885536Y-16070157D02*
X15885536Y-16241585D01*
X15895060Y-16260633D01*
X15914108Y-16270157D01*
X15933156Y-16270157D01*
X16076013Y-16260633D02*
X16056965Y-16270157D01*
X16018870Y-16270157D01*
X15999822Y-16260633D01*
X15990298Y-16241585D01*
X15990298Y-16165395D01*
X15999822Y-16146347D01*
X16018870Y-16136824D01*
X16056965Y-16136824D01*
X16076013Y-16146347D01*
X16085536Y-16165395D01*
X16085536Y-16184443D01*
X15990298Y-16203490D01*
X16256965Y-16270157D02*
X16256965Y-16070157D01*
X16256965Y-16260633D02*
X16237917Y-16270157D01*
X16199822Y-16270157D01*
X16180775Y-16260633D01*
X16171251Y-16251109D01*
X16161727Y-16232062D01*
X16161727Y-16174919D01*
X16171251Y-16155871D01*
X16180775Y-16146347D01*
X16199822Y-16136824D01*
X16237917Y-16136824D01*
X16256965Y-16146347D01*
X16333156Y-16346347D02*
X16342679Y-16336824D01*
X16361727Y-16308252D01*
X16371251Y-16289205D01*
X16380775Y-16260633D01*
X16390298Y-16213014D01*
X16390298Y-16174919D01*
X16380775Y-16127300D01*
X16371251Y-16098728D01*
X16361727Y-16079681D01*
X16342679Y-16051109D01*
X16333156Y-16041585D01*
M02*
